<svg width="23" height="23" viewBox="0 0 23 23" fill="none" xmlns="http://www.w3.org/2000/svg">
<path d="M15.7469 6.67898L14.5511 4.78957C14.2991 4.49578 13.9536 4.3125 13.5664 4.3125H9.43359C9.04637 4.3125 8.70092 4.49578 8.44891 4.78957L7.25309 6.67898C7.00107 6.97322 6.67629 7.1875 6.28906 7.1875H3.59375C3.2125 7.1875 2.84687 7.33895 2.57728 7.60853C2.3077 7.87812 2.15625 8.24375 2.15625 8.625V17.25C2.15625 17.6312 2.3077 17.9969 2.57728 18.2665C2.84687 18.536 3.2125 18.6875 3.59375 18.6875H19.4062C19.7875 18.6875 20.1531 18.536 20.4227 18.2665C20.6923 17.9969 20.8438 17.6312 20.8438 17.25V8.625C20.8438 8.24375 20.6923 7.87812 20.4227 7.60853C20.1531 7.33895 19.7875 7.1875 19.4062 7.1875H16.7559C16.3673 7.1875 15.9989 6.97322 15.7469 6.67898Z" stroke="white" stroke-width="1.4375" stroke-linecap="round" stroke-linejoin="round"/>
<path d="M11.5 15.8125C13.4848 15.8125 15.0938 14.2035 15.0938 12.2188C15.0938 10.234 13.4848 8.625 11.5 8.625C9.51523 8.625 7.90625 10.234 7.90625 12.2188C7.90625 14.2035 9.51523 15.8125 11.5 15.8125Z" stroke="white" stroke-width="1.4375" stroke-miterlimit="10"/>
</svg>
