<svg width="17" height="17" viewBox="0 0 17 17" fill="none" xmlns="http://www.w3.org/2000/svg">
<path fill-rule="evenodd" clip-rule="evenodd" d="M3.35232 10.0215C3.36625 9.9323 3.40822 9.84983 3.47217 9.78607L12.0385 1.21977C12.1182 1.1401 12.2263 1.09534 12.3389 1.09534C12.4516 1.09534 12.5597 1.1401 12.6394 1.21977L15.9459 4.52627C16.0253 4.60594 16.0699 4.71384 16.0699 4.82632C16.0699 4.93881 16.0253 5.04671 15.9459 5.12637L7.37792 13.6935C7.31405 13.7572 7.23159 13.7988 7.14247 13.8125L3.23672 14.4126C3.17078 14.4227 3.10338 14.4172 3.03998 14.3964C2.97659 14.3756 2.91897 14.3402 2.87179 14.2931C2.82462 14.2459 2.78921 14.1883 2.76844 14.1249C2.74767 14.0615 2.74211 13.9941 2.75222 13.9281L3.35147 10.0232L3.35232 10.0215ZM4.17172 10.2884L3.68127 13.4844L6.87642 12.9931L15.0432 4.82632L12.3394 2.12162L4.17172 10.2884Z" fill="#121212"/>
<path fill-rule="evenodd" clip-rule="evenodd" d="M13.1512 6.94709L10.1448 3.94659L10.7457 3.34479L13.7513 6.34529L13.1512 6.94709Z" fill="#121212"/>
</svg>
