<svg width="23" height="23" viewBox="0 0 23 23" fill="none" xmlns="http://www.w3.org/2000/svg">
<circle cx="11.5" cy="11.5" r="11.5" fill="white"/>
<circle cx="11.5" cy="11.5" r="9.5" fill="#EA4335"/>
<path fill-rule="evenodd" clip-rule="evenodd" d="M9.41354 6.32218C9.64275 6.11589 9.95362 6 10.2778 6H12.7222C13.0464 6 13.3573 6.11589 13.5865 6.32218C13.8157 6.52847 13.9444 6.80826 13.9444 7.1V8.2H15.7706C15.7749 8.19996 15.7792 8.19996 15.7836 8.2H16.3889C16.7264 8.2 17 8.44624 17 8.75C17 9.05376 16.7264 9.3 16.3889 9.3H16.3401L15.7776 15.3752C15.7703 15.8037 15.578 16.2132 15.2408 16.5167C14.897 16.8262 14.4307 17 13.9444 17H9.05556C8.56932 17 8.10301 16.8262 7.75919 16.5167C7.42198 16.2132 7.22969 15.8037 7.22244 15.3752L6.65992 9.3H6.61111C6.2736 9.3 6 9.05376 6 8.75C6 8.44624 6.2736 8.2 6.61111 8.2H7.21644C7.22076 8.19996 7.22507 8.19996 7.22937 8.2H9.05556V7.1C9.05556 6.80826 9.18433 6.52847 9.41354 6.32218ZM7.88638 9.3L8.44233 15.3043C8.44374 15.3195 8.44444 15.3348 8.44444 15.35C8.44444 15.4959 8.50883 15.6358 8.62343 15.7389C8.73804 15.8421 8.89348 15.9 9.05556 15.9H13.9444C14.1065 15.9 14.262 15.8421 14.3766 15.7389C14.4912 15.6358 14.5556 15.4959 14.5556 15.35C14.5556 15.3348 14.5563 15.3195 14.5577 15.3043L15.1136 9.3H7.88638ZM12.7222 8.2H10.2778V7.1H12.7222V8.2ZM10.2778 10.4C10.6153 10.4 10.8889 10.6462 10.8889 10.95V14.25C10.8889 14.5538 10.6153 14.8 10.2778 14.8C9.94027 14.8 9.66667 14.5538 9.66667 14.25V10.95C9.66667 10.6462 9.94027 10.4 10.2778 10.4ZM12.7222 10.4C13.0597 10.4 13.3333 10.6462 13.3333 10.95V14.25C13.3333 14.5538 13.0597 14.8 12.7222 14.8C12.3847 14.8 12.1111 14.5538 12.1111 14.25V10.95C12.1111 10.6462 12.3847 10.4 12.7222 10.4Z" fill="white"/>
</svg>
