<svg width="27" height="27" viewBox="0 0 27 27" fill="none" xmlns="http://www.w3.org/2000/svg">
<path d="M12.4154 0.849609C10.8966 0.849609 9.39261 1.14877 7.98938 1.73C6.58615 2.31124 5.31114 3.16317 4.23716 4.23716C2.06815 6.40617 0.849609 9.34798 0.849609 12.4154C0.849609 15.4829 2.06815 18.4247 4.23716 20.5937C6.40617 22.7627 9.34798 23.9812 12.4154 23.9812C14.7766 23.9812 17.0632 23.2593 18.9803 21.9376L22.7799 25.7371C23.5965 26.5538 24.9205 26.5538 25.7371 25.7371C26.5538 24.9205 26.5538 23.5965 25.7371 22.7799L21.9375 18.9803C22.3984 18.3119 22.7886 17.5952 23.1008 16.8415C23.6821 15.4382 23.9812 13.9343 23.9812 12.4154C23.9812 10.8966 23.6821 9.39261 23.1008 7.98938C22.5196 6.58615 21.6677 5.31114 20.5937 4.23716C19.5197 3.16317 18.2447 2.31124 16.8415 1.73C15.4382 1.14877 13.9343 0.849609 12.4154 0.849609ZM9.58982 5.59383C10.4856 5.22276 11.4458 5.03178 12.4154 5.03178C13.3851 5.03178 14.3452 5.22276 15.241 5.59383C16.1368 5.96489 16.9508 6.50876 17.6364 7.1944C18.3221 7.88003 18.866 8.694 19.237 9.58982C19.6081 10.4856 19.7991 11.4458 19.7991 12.4154C19.7991 13.3851 19.6081 14.3452 19.237 15.241C18.866 16.1368 18.3221 16.9508 17.6364 17.6364C16.2517 19.0211 14.3737 19.7991 12.4154 19.7991C10.4572 19.7991 8.5791 19.0211 7.1944 17.6364C5.8097 16.2517 5.03178 14.3737 5.03178 12.4154C5.03178 10.4572 5.8097 8.5791 7.1944 7.1944C7.88003 6.50876 8.694 5.96489 9.58982 5.59383Z" fill="white" stroke="black" stroke-width="0.5" stroke-linecap="round" stroke-linejoin="round"/>
</svg>
