<svg width="21" height="21" viewBox="0 0 21 21" fill="none" xmlns="http://www.w3.org/2000/svg">
<path d="M10.5148 0C9.13784 0 7.77438 0.271579 6.50225 0.79923C5.23013 1.32688 4.07425 2.10027 3.1006 3.07524C1.13424 5.04429 0.029554 7.71489 0.029554 10.4995C0.0203877 12.924 0.858717 15.2753 2.39921 17.1457L0.30217 19.2456C0.156679 19.3933 0.0581222 19.5808 0.0189346 19.7845C-0.020253 19.9881 0.00168487 20.1989 0.0819801 20.3901C0.169068 20.579 0.310248 20.7378 0.487598 20.8462C0.664947 20.9546 0.87047 21.0078 1.07808 20.9991H10.5148C13.2956 20.9991 15.9626 19.8929 17.9289 17.9238C19.8953 15.9548 21 13.2842 21 10.4995C21 7.71489 19.8953 5.04429 17.9289 3.07524C15.9626 1.1062 13.2956 0 10.5148 0ZM10.5148 18.8992H3.60501L4.58014 17.9227C4.77543 17.726 4.88504 17.4599 4.88504 17.1825C4.88504 16.9051 4.77543 16.639 4.58014 16.4423C3.20719 15.069 2.35221 13.2615 2.16088 11.3277C1.96954 9.39399 2.45368 7.45363 3.53081 5.83724C4.60794 4.22085 6.21142 3.02844 8.06807 2.46316C9.92471 1.89788 11.9196 1.99471 13.713 2.73714C15.5063 3.47957 16.9872 4.82168 17.9031 6.5348C18.8191 8.24792 19.1136 10.2261 18.7364 12.1322C18.3592 14.0384 17.3336 15.7546 15.8345 16.9885C14.3353 18.2224 12.4553 18.8976 10.5148 18.8992Z" fill="white"/>
</svg>
