<svg width="17" height="17" viewBox="0 0 17 17" fill="none" xmlns="http://www.w3.org/2000/svg">
<path fill-rule="evenodd" clip-rule="evenodd" d="M3.35306 10.0219C3.36698 9.93267 3.40896 9.8502 3.47291 9.78644L12.0392 1.22014C12.1189 1.14046 12.227 1.0957 12.3397 1.0957C12.4524 1.0957 12.5605 1.14046 12.6402 1.22014L15.9467 4.52664C16.0261 4.6063 16.0707 4.7142 16.0707 4.82669C16.0707 4.93917 16.0261 5.04707 15.9467 5.12674L7.37866 13.6939C7.31478 13.7575 7.23233 13.7992 7.14321 13.8129L3.23746 14.413C3.17151 14.4231 3.10411 14.4175 3.04072 14.3968C2.97732 14.376 2.9197 14.3406 2.87253 14.2934C2.82535 14.2462 2.78995 14.1886 2.76917 14.1252C2.7484 14.0618 2.74285 13.9944 2.75296 13.9285L3.35221 10.0236L3.35306 10.0219ZM4.17246 10.2888L3.68201 13.4848L6.87716 12.9935L15.044 4.82669L12.3401 2.12199L4.17246 10.2888Z" fill="white"/>
<path fill-rule="evenodd" clip-rule="evenodd" d="M13.151 6.94703L10.1445 3.94653L10.7455 3.34473L13.7511 6.34523L13.151 6.94703Z" fill="white"/>
</svg>
