<svg width="13" height="15" viewBox="0 0 13 15" fill="none" xmlns="http://www.w3.org/2000/svg">
<path d="M1 3.8H11.7333M5.025 6.6V10.8M7.70833 6.6V10.8M1.67083 3.8L2.34167 12.2C2.34167 12.5713 2.48302 12.9274 2.73463 13.19C2.98624 13.4525 3.3275 13.6 3.68333 13.6H9.05C9.40583 13.6 9.74709 13.4525 9.9987 13.19C10.2503 12.9274 10.3917 12.5713 10.3917 12.2L11.0625 3.8M4.35417 3.8V1.7C4.35417 1.51435 4.42484 1.3363 4.55065 1.20503C4.67646 1.07375 4.84708 1 5.025 1H7.70833C7.88625 1 8.05688 1.07375 8.18268 1.20503C8.30849 1.3363 8.37917 1.51435 8.37917 1.7V3.8" stroke="white" stroke-linecap="round" stroke-linejoin="round"/>
</svg>
