<?xml version="1.0" encoding="UTF-8"?>
<svg id="export" xmlns="http://www.w3.org/2000/svg" xmlns:xlink="http://www.w3.org/1999/xlink" viewBox="0 0 280 300">
  <defs>
    <style>
      .cls-1, .cls-2 {
        fill: none;
      }

      .cls-2 {
        stroke: #000;
        stroke-linecap: round;
        stroke-linejoin: round;
        stroke-width: .75px;
      }

      .cls-3 {
        clip-path: url(#clippath);
      }

      .cls-4 {
        fill: #f7f7f7;
      }

      .cls-5 {
        fill: #00ffd8;
      }

      .cls-6 {
        fill: #ededed;
      }

      .cls-7 {
        fill: #fff;
      }

      .cls-8 {
        fill: #2e2e2e;
      }

      .cls-9 {
        clip-path: url(#clippath-1);
      }

      .cls-10 {
        clip-path: url(#clippath-4);
      }

      .cls-11 {
        clip-path: url(#clippath-3);
      }

      .cls-12 {
        clip-path: url(#clippath-2);
      }

      .cls-13 {
        clip-path: url(#clippath-7);
      }

      .cls-14 {
        clip-path: url(#clippath-8);
      }

      .cls-15 {
        clip-path: url(#clippath-6);
      }

      .cls-16 {
        clip-path: url(#clippath-5);
      }

      .cls-17 {
        fill: rgba(60, 60, 67, .36);
        isolation: isolate;
        opacity: .5;
      }
    </style>
    <clipPath id="clippath">
      <rect class="cls-1" x="40" y="86.42" width="200" height="176.41" rx="6.15" ry="6.15"/>
    </clipPath>
    <clipPath id="clippath-1">
      <path class="cls-1" d="m40-62.91c0-3.73,0-5.6.73-7.03.64-1.25,1.66-2.27,2.91-2.91,1.43-.73,3.29-.73,7.03-.73h178.67c3.73,0,5.6,0,7.03.73,1.25.64,2.27,1.66,2.91,2.91.73,1.43.73,3.29.73,7.03v325.74H40V-62.91Z"/>
    </clipPath>
    <clipPath id="clippath-2">
      <rect class="cls-1" x="48.21" y="95.14" width="183.59" height="24.62" rx="6.67" ry="6.67"/>
    </clipPath>
    <clipPath id="clippath-3">
      <rect class="cls-1" x="48.21" y="127.96" width="183.59" height="124.1" rx="6.67" ry="6.67"/>
    </clipPath>
    <clipPath id="clippath-4">
      <rect class="cls-1" x="26.05" y="217.16" width="227.89" height="38.06" rx="6.02" ry="6.02"/>
    </clipPath>
    <clipPath id="clippath-5">
      <rect class="cls-1" x="35.11" y="75.8" width="209.77" height="185.03" rx="6.45" ry="6.45"/>
    </clipPath>
    <clipPath id="clippath-6">
      <path class="cls-1" d="m35.11-80.83c0-3.92,0-5.87.76-7.37.67-1.32,1.74-2.39,3.06-3.06,1.5-.76,3.45-.76,7.37-.76h187.4c3.92,0,5.87,0,7.37.76,1.32.67,2.39,1.74,3.06,3.06.76,1.5.76,3.45.76,7.37v341.66H35.11V-80.83Z"/>
    </clipPath>
    <clipPath id="clippath-7">
      <rect class="cls-1" x="43.72" y="84.94" width="192.56" height="25.82" rx="6.99" ry="6.99"/>
    </clipPath>
    <clipPath id="clippath-8">
      <rect class="cls-1" x="43.72" y="119.37" width="192.56" height="130.17" rx="6.99" ry="6.99"/>
    </clipPath>
  </defs>
  <rect class="cls-8" x="0" width="280" height="300"/>
  <g>
    <g class="cls-3">
      <g class="cls-9">
        <g>
          <path class="cls-6" d="m40-62.91c0-3.73,0-5.6.73-7.03.64-1.25,1.66-2.27,2.91-2.91,1.43-.73,3.29-.73,7.03-.73h178.67c3.73,0,5.6,0,7.03.73,1.25.64,2.27,1.66,2.91,2.91.73,1.43.73,3.29.73,7.03v325.74H40V-62.91Z"/>
          <g class="cls-12">
            <g>
              <rect class="cls-7" x="48.21" y="95.14" width="183.59" height="24.62" rx="6.67" ry="6.67"/>
              <rect class="cls-7" x="48.21" y="95.14" width="183.59" height="24.62" rx="6.67" ry="6.67"/>
              <path d="m62.77,107.4v.49h-6.08v-.49h2.75v-.8h-1.94v-2.49h.59v.77h3.31v-.77h.59v2.49h-1.95v.8h2.75Zm-.75,1.15v2.07h-.59v-1.6h-4.06v-.47h4.66Zm-3.94-2.43h3.31v-.8h-3.31v.8Zm7.28-.38c0,1.18.78,2.39,1.73,2.85l-.36.47c-.74-.39-1.35-1.18-1.65-2.1-.3.99-.93,1.83-1.68,2.23l-.38-.47c.98-.48,1.75-1.77,1.76-2.98v-1.22h.58v1.22Zm2.93-1.8v2.71h1.12v.51h-1.12v3.46h-.59v-6.68h.59Z"/>
              <path d="m214.88,111.46c0,.89.44,1.34,1.32,1.34h4c.88,0,1.32-.45,1.32-1.34v-.79h.75c.88,0,1.32-.45,1.32-1.34v-3.46c0-.52-.11-.86-.43-1.18l-2.15-2.18c-.3-.31-.66-.43-1.12-.43h-1.63c-.88,0-1.32.45-1.32,1.34v.79h-.75c-.88,0-1.32.45-1.32,1.34v5.91Zm6.24-4.46l-2.35-2.39c-.32-.33-.59-.4-1.07-.4h-.07v-.77c0-.42.23-.66.67-.66h1.88v2.18c0,.49.24.73.73.73h1.99v3.64c0,.43-.23.66-.67.66h-.71v-1.85c0-.54-.06-.78-.4-1.13Zm-.32-2.15v-1.75l1.92,1.96h-1.72c-.15,0-.21-.06-.21-.21Zm-5.23,6.59v-5.89c0-.42.23-.66.67-.66h1.4v2.47c0,.54.27.8.8.8h2.41v3.28c0,.43-.23.66-.67.66h-3.94c-.44,0-.66-.24-.66-.66Zm2.95-3.92c-.17,0-.24-.07-.24-.24v-2.23l2.43,2.47h-2.19Z"/>
            </g>
          </g>
          <g class="cls-11">
            <g>
              <rect class="cls-7" x="48.21" y="127.96" width="183.59" height="124.1" rx="6.67" ry="6.67"/>
              <rect class="cls-7" x="48.21" y="127.96" width="183.59" height="24.62" rx="6.67" ry="6.67"/>
              <path d="m62.19,136.76v3.56h-.58v-3.56h.58Zm-2.44,3.85v1.54h-1.64v.74c.86,0,1.42-.02,2.1-.14l.06.45c-.76.14-1.35.15-2.33.15h-.41v-1.64h1.64v-.65h-1.65v-.46h2.22Zm2.44,0v2.78h-.58v-2.29h-1.56v-.49h2.14Zm-3.61-3.54c1,0,1.73.62,1.73,1.5s-.73,1.5-1.73,1.5-1.74-.62-1.74-1.5.72-1.5,1.74-1.5Zm0,.5c-.67,0-1.16.41-1.16,1,0,.59.49,1.01,1.16,1.01s1.16-.42,1.16-1.01-.5-1.01-1.16-1Zm10.07-.8v6.68h-.59v-6.68h.59Zm-1.98.73c0,1.92-.9,3.62-3.14,4.69l-.32-.48c1.81-.86,2.73-2.14,2.86-3.73h-2.55v-.48h3.16Zm9.93-.44v2.25h-1.98v.86h2.75v.48h-6.08v-.48h2.75v-.86h-1.96v-2.25h4.52Zm-3.94.47v1.31h3.36v-1.31h-3.36Zm3.97,3.82v2.1h-.59v-1.63h-4.06v-.47h4.66Zm7.21-.89v.49h-6.11v-.49h2.76v-.71h-1.97v-1.63h3.94v-.69h-3.96v-.48h4.55v1.61h-3.94v.71h4.09v.47h-2.13v.71h2.77Zm-.75,1v1.94h-.59v-1.46h-4.09v-.48h4.68Zm6.81-4.68v6.68h-.57v-6.68h.57Zm-1.34.14v6.2h-.56v-3.25h-.86c-.06,1.3-.62,2.11-1.44,2.11-.87,0-1.43-.9-1.43-2.32s.56-2.32,1.43-2.32c.81,0,1.36.78,1.43,2.04h.86v-2.46h.56Zm-2.86.98c-.54,0-.89.68-.88,1.77,0,1.08.34,1.77.88,1.76.54,0,.89-.68.89-1.76s-.35-1.77-.89-1.77Zm12.73,2.92v.5h-2.76v2.16h-.58v-2.16h-2.75v-.5h6.08Zm-2.75-2.72c0,.83,1.16,1.56,2.36,1.73l-.22.47c-1.03-.16-2.01-.68-2.43-1.4-.43.74-1.42,1.25-2.45,1.4l-.22-.47c1.19-.17,2.37-.89,2.37-1.73h0s-2.16,0-2.16,0v-.48h2.16v-.83h.58v.83h2.17v.48h-2.16Zm8.27-1.32v2.72h1.08v.5h-1.08v3.46h-.59v-6.68h.59Zm-1.73.72c0,1.89-.89,3.61-3.07,4.69l-.33-.47c1.73-.86,2.67-2.14,2.8-3.73h-2.49v-.5h3.09Z"/>
              <path d="m216.18,142.63c1.3,0,2.35-1.06,2.37-2.33.18-.07.38-.09.54-.09s.36.03.54.09c.02,1.29,1.06,2.33,2.37,2.33,1.23,0,2.23-.93,2.36-2.12h.5c.2,0,.27-.11.27-.27v-.16c0-.16-.08-.27-.27-.27h-.54c-.21-1.08-1.17-1.91-2.32-1.91s-2.04.76-2.29,1.79c-.2-.08-.43-.1-.62-.1s-.42.03-.61.1c-.26-1.03-1.19-1.79-2.29-1.79s-2.11.83-2.33,1.91h-.54c-.19,0-.27.11-.27.27v.16c0,.16.08.27.27.27h.51c.12,1.19,1.13,2.12,2.36,2.12Zm0-.64c-.95,0-1.73-.77-1.73-1.73s.77-1.73,1.73-1.73,1.73.77,1.73,1.73-.77,1.73-1.73,1.73Zm5.82,0c-.96,0-1.73-.77-1.73-1.73s.77-1.73,1.73-1.73,1.73.77,1.73,1.73-.77,1.73-1.73,1.73Z"/>
              <rect class="cls-17" x="48.21" y="152.57" width="183.59" height=".26"/>
              <rect class="cls-7" x="48.21" y="152.83" width="183.59" height="24.62" rx="6.67" ry="6.67"/>
              <path d="m58.66,163.08c0,.79.53,1.56,1.37,1.87l-.29.46c-.65-.26-1.12-.76-1.35-1.37-.23.66-.7,1.21-1.37,1.49l-.29-.44c.85-.35,1.36-1.16,1.37-2.01v-.08h-1.23v-.48h1.23v-.8h.56v.8h1.21v.48h-1.21v.08Zm3.7-1.44v4.09h-.56v-1.81h-.87v1.78h-.57v-3.94h.57v1.67h.87v-1.79h.56Zm0,4.45v2.22h-.58v-1.74h-3.92v-.48h4.5Zm5.99-4.45v1.51h1.01v.5h-1.01v1.4h-.59v-3.4h.59Zm-1.82.33c0,1.68-1.22,2.78-3.16,3.25l-.23-.5c1.66-.38,2.65-1.21,2.75-2.26h-2.45v-.49h3.09Zm1.82,3.37v1.65h-3.67v.77h3.91v.49h-4.49v-1.72h3.66v-.71h-3.67v-.48h4.26Zm6.74-3.7v6.68h-.59v-6.68h.59Zm-1.54.73v.49h-.76v3.22c.38-.03.75-.06,1.1-.11l.04.44c-1.46.23-3.06.25-4.3.26l-.07-.5c.29,0,.6,0,.92,0v-3.3h-.75v-.49h3.82Zm-2.49,3.78c.38,0,.76-.02,1.15-.05v-3.25h-1.15v3.29Zm12.75-.47v.5h-2.76v2.16h-.58v-2.16h-2.75v-.5h6.08Zm-2.75-2.72c0,.83,1.16,1.56,2.36,1.73l-.22.47c-1.03-.16-2.01-.68-2.43-1.4-.43.74-1.42,1.25-2.45,1.4l-.22-.47c1.19-.17,2.37-.89,2.37-1.73h0s-2.16,0-2.16,0v-.48h2.16v-.83h.58v.83h2.17v.48h-2.16Zm8.27-1.32v2.72h1.08v.5h-1.08v3.46h-.59v-6.68h.59Zm-1.73.72c0,1.89-.89,3.61-3.06,4.69l-.33-.47c1.73-.86,2.67-2.14,2.8-3.73h-2.49v-.5h3.09Z"/>
              <path d="m218.86,161.89c-.35-.43-1.22-.83-2.18-.83-1.27,0-2.29.65-2.55,1.27v6.39c0,.35.23.49.48.49.2,0,.31-.06.43-.15.3-.25.79-.53,1.63-.53s1.42.28,1.67.5c.12.1.26.18.51.18s.39-.1.51-.18c.27-.2.82-.5,1.67-.5s1.35.29,1.63.53c.13.09.24.15.43.15.25,0,.48-.14.48-.49v-6.39c-.25-.62-1.27-1.27-2.55-1.27-.96,0-1.83.39-2.18.83Zm-3.99.66c.1-.29.77-.8,1.81-.8s1.72.51,1.81.8v5.81c-.44-.33-1.1-.51-1.81-.51s-1.37.19-1.81.53v-5.82Zm7.98,0v5.82c-.44-.35-1.1-.53-1.81-.53s-1.37.19-1.81.51v-5.81c.09-.28.77-.8,1.81-.8s1.71.51,1.81.8Z"/>
              <rect class="cls-17" x="48.21" y="177.45" width="183.59" height=".26"/>
              <rect class="cls-7" x="48.21" y="177.7" width="183.59" height="24.62" rx="6.67" ry="6.67"/>
              <path d="m62.77,189.35v.49h-6.08v-.49h6.08Zm-.78,1.1v1.51h-3.97v.68h4.17v.47h-4.76v-1.59h3.97v-.62h-3.99v-.45h4.57Zm.24-3.69v.48h-2.16c.06.69,1.19,1.21,2.37,1.31l-.2.47c-1.09-.11-2.12-.54-2.52-1.21-.41.67-1.43,1.1-2.52,1.21l-.2-.47c1.18-.09,2.3-.62,2.38-1.31h-2.16v-.48h4.99Zm4.28.47c0,.38-.03.75-.11,1.11h1.66v-1.85h.59v6.69h-.59v-2.57h-1.89v-.49h1.89v-1.3h-1.78c-.39,1.24-1.27,2.33-2.85,3.1l-.31-.48c1.78-.86,2.66-2.15,2.79-3.73h-2.49v-.48h3.09Zm5.33.67c0,.8.68,1.53,1.66,1.83l-.28.45c-.77-.23-1.37-.72-1.66-1.37-.29.71-.91,1.24-1.71,1.5l-.29-.47c.99-.3,1.7-1.07,1.7-1.95v-.13h-1.51v-.49h1.51v-.81h.59v.81h1.49v.49h-1.51v.13Zm2.94-1.4v1.65h1.01v.5h-1.01v1.73h-.59v-3.88h.59Zm.12,4.24v.48h-1.89c.1.7,1.08,1.3,2.15,1.47l-.22.46c-.98-.16-1.87-.65-2.25-1.31-.38.66-1.26,1.14-2.23,1.31l-.23-.45c1.08-.17,2.05-.76,2.15-1.47h-1.89v-.48h4.4Zm6.62-4.24v6.68h-.59v-6.68h.59Zm-1.98.73c0,1.92-.9,3.62-3.14,4.69l-.32-.48c1.81-.86,2.73-2.14,2.86-3.73h-2.55v-.48h3.16Zm8.62-.73v6.68h-.57v-6.68h.57Zm-1.34.14v6.2h-.56v-3.25h-.86c-.06,1.3-.62,2.11-1.44,2.11-.87,0-1.43-.9-1.43-2.32s.56-2.32,1.43-2.32c.81,0,1.36.78,1.43,2.04h.86v-2.46h.56Zm-2.86.98c-.54,0-.89.68-.88,1.77,0,1.08.34,1.77.88,1.76.54,0,.89-.68.89-1.76s-.35-1.77-.89-1.77Zm12.73,2.92v.5h-2.76v2.16h-.58v-2.16h-2.75v-.5h6.08Zm-2.75-2.72c0,.83,1.16,1.56,2.36,1.73l-.22.47c-1.03-.16-2.01-.68-2.43-1.4-.43.74-1.42,1.25-2.45,1.4l-.22-.47c1.19-.17,2.37-.89,2.37-1.73h0s-2.16,0-2.16,0v-.48h2.16v-.83h.58v.83h2.17v.48h-2.16Zm8.27-1.32v2.72h1.08v.5h-1.08v3.46h-.59v-6.68h.59Zm-1.73.72c0,1.89-.89,3.61-3.06,4.69l-.33-.47c1.73-.86,2.67-2.14,2.8-3.73h-2.49v-.5h3.09Z"/>
              <path d="m215.95,194.45c.17.14.4.09.66-.1l2.25-1.66,2.26,1.66c.26.19.48.24.66.1.17-.13.21-.35.11-.66l-.89-2.65,2.27-1.63c.26-.19.37-.38.3-.6-.07-.2-.27-.31-.6-.3l-2.79.02-.85-2.66c-.1-.31-.26-.47-.48-.47s-.37.16-.47.47l-.85,2.66-2.79-.02c-.33,0-.53.1-.6.3-.07.21.04.41.3.6l2.27,1.63-.89,2.65c-.11.31-.07.53.11.66Zm.61-.84s0-.01,0-.04l.85-2.43c.06-.17.03-.3-.12-.4l-2.12-1.46s-.03-.02-.02-.03c0-.01.01-.01.04-.01l2.58.05c.17,0,.29-.07.34-.24l.74-2.46s.01-.03.02-.03c.01,0,.02,0,.03.03l.74,2.46c.06.17.17.25.34.24l2.58-.05s.03,0,.04.01c0,.01,0,.02-.02.03l-2.12,1.46c-.15.1-.18.23-.12.4l.85,2.43s0,.03,0,.04c0,.01-.02,0-.04,0l-2.05-1.56c-.14-.11-.29-.11-.43,0l-2.05,1.56s-.03.02-.04,0Z"/>
              <rect class="cls-17" x="48.21" y="202.32" width="183.59" height=".26"/>
              <rect class="cls-7" x="48.21" y="202.57" width="183.59" height="24.62" rx="6.67" ry="6.67"/>
              <path d="m62.43,211.38v6.68h-.57v-6.68h.57Zm-1.31.17v6.16h-.56v-3.25h-.93v-.53h.93v-2.37h.56Zm-1.3.69v.49h-.56v3.09c.25-.02.49-.04.71-.07l.04.44c-1.05.2-2.46.23-3.33.23l-.08-.5c.21,0,.45,0,.71,0v-3.17h-.56v-.49h3.07Zm-1.97,3.65c.28,0,.57-.02.86-.04v-3.13h-.86v3.16Zm10.77-4.51v6.69h-.59v-6.69h.59Zm-3.55.52c.99,0,1.71.91,1.71,2.33s-.71,2.32-1.71,2.32-1.71-.9-1.71-2.32.71-2.32,1.71-2.33Zm0,.53c-.67,0-1.13.71-1.13,1.8s.47,1.8,1.13,1.8,1.13-.71,1.13-1.8-.47-1.8-1.13-1.8Zm6.87,1.01c0,1.13.83,2.28,1.81,2.71l-.33.47c-.78-.36-1.46-1.13-1.77-2.05-.32.98-.99,1.83-1.75,2.22l-.35-.47c.95-.46,1.79-1.72,1.8-2.88v-.87h-1.58v-.49h3.76v.49h-1.59v.87Zm3.12-2.05v6.68h-.59v-6.68h.59Zm6.66,0v6.68h-.57v-6.68h.57Zm-1.34.14v6.2h-.56v-3.25h-.86c-.06,1.3-.62,2.11-1.44,2.11-.87,0-1.43-.9-1.43-2.32s.56-2.32,1.43-2.32c.81,0,1.36.78,1.43,2.04h.86v-2.46h.56Zm-2.86.98c-.54,0-.89.68-.88,1.77,0,1.08.34,1.77.88,1.76.54,0,.89-.68.89-1.76s-.35-1.77-.89-1.77Zm7.27.68c0,1.21.77,2.43,1.74,2.87l-.35.48c-.76-.39-1.39-1.19-1.68-2.14-.3,1-.92,1.86-1.68,2.26l-.38-.47c.98-.48,1.76-1.77,1.76-3v-1.22h.6v1.22Zm3.19-1.8v6.69h-.59v-3.93h-1.59v-.48h1.59v-2.28h.59Zm4.9,1.4c0,.8.68,1.53,1.66,1.83l-.28.45c-.77-.23-1.37-.72-1.66-1.37-.29.71-.91,1.24-1.71,1.5l-.29-.47c.99-.3,1.7-1.07,1.7-1.95v-.13h-1.51v-.49h1.51v-.81h.59v.81h1.49v.49h-1.51v.13Zm2.94-1.4v1.65h1.01v.5h-1.01v1.73h-.59v-3.88h.59Zm.12,4.24v.48h-1.89c.1.7,1.08,1.3,2.15,1.47l-.22.46c-.98-.16-1.87-.65-2.25-1.31-.38.66-1.26,1.14-2.23,1.31l-.23-.45c1.08-.17,2.05-.76,2.15-1.47h-1.89v-.48h4.4Zm6.62-4.24v6.68h-.59v-6.68h.59Zm-1.98.73c0,1.92-.9,3.62-3.14,4.69l-.32-.48c1.81-.86,2.73-2.14,2.86-3.73h-2.55v-.48h3.15Z"/>
              <path d="m216.54,219.06h2.56c-.13-.07-.48-.3-.61-.64h-1.87c-.43,0-.65-.22-.65-.64v-6.69c0-.41.22-.64.65-.64h4.65c.42,0,.65.23.65.64v3.89c.34.13.39.16.64.61v-4.56c0-.98-.24-1.22-1.21-1.22h-4.8c-.96,0-1.21.25-1.21,1.22v6.8c0,.98.25,1.23,1.21,1.23Zm.76-6.78h3.29c.16,0,.28-.13.28-.29s-.12-.28-.28-.28h-3.29c-.17,0-.29.13-.29.28s.12.29.29.29Zm0,1.54h3.29c.16,0,.28-.13.28-.29s-.12-.28-.28-.28h-3.29c-.17,0-.29.13-.29.28s.12.29.29.29Zm3.53,5.34c.38,0,.74-.11,1.04-.29l1.11.96c.11.11.21.14.34.14s.26-.1.26-.26-.05-.22-.14-.31l-1.12-.97c.21-.31.33-.69.33-1.09,0-1.1-.74-1.83-1.83-1.83s-1.83.74-1.83,1.83.74,1.82,1.83,1.82Zm0-.53c-.72,0-1.3-.58-1.3-1.29s.58-1.29,1.3-1.29,1.29.59,1.29,1.29-.58,1.29-1.29,1.29Z"/>
              <rect class="cls-17" x="48.21" y="227.19" width="183.59" height=".26"/>
              <rect class="cls-7" x="48.21" y="227.45" width="183.59" height="24.62" rx="6.67" ry="6.67"/>
              <path d="m62.02,240.93v1.91h-4.6v-1.91h4.6Zm-4.01.46v.99h3.43v-.99h-3.43Zm4.4-4.57v.46h-5.42v-.46h2.43v-.66h.59v.66h2.4Zm-2.69.73c1.38,0,2.16.32,2.16.95,0,.59-.67.9-1.87.94v.52h2.75v.47h-6.08v-.47h2.75v-.52c-1.2-.04-1.88-.35-1.88-.94,0-.62.79-.94,2.17-.95Zm0,.41c-.98,0-1.55.19-1.54.53,0,.34.56.53,1.54.53s1.54-.2,1.54-.53-.56-.53-1.54-.53Zm10.3-1.71v2.85h1.07v.5h-1.07v3.34h-.59v-6.68h.59Zm-5.27,4.9c.54,0,1.18,0,1.84-.02v-.74c-.78-.09-1.28-.54-1.28-1.2,0-.75.63-1.24,1.58-1.24s1.58.49,1.59,1.24c0,.66-.52,1.12-1.29,1.21v.71c.62-.03,1.25-.08,1.83-.17l.04.45c-1.46.25-3.03.26-4.21.26l-.1-.5Zm4.15-4.08v.48h-4.03v-.48h1.72v-.8h.59v.8h1.71Zm-2.01,1.33c-.62,0-1.03.32-1.03.78s.41.77,1.03.76c.61,0,1.02-.29,1.02-.76s-.41-.78-1.02-.78Zm7.76-1.56v.59h1.56v-1.17h.59v4.88h-.59v-1.78h-1.56v.6h-3.06v-3.12h3.06Zm-2.48.49v2.16h1.9v-2.16h-1.9Zm4.79,4.97v.5h-4.47v-2.09h.59v1.59h3.88Zm-2.31-3.43h1.56v-.94h-1.56v.94Zm8.78-2.61v6.68h-.57v-6.68h.57Zm-1.34.14v6.2h-.56v-3.25h-.86c-.06,1.3-.62,2.11-1.44,2.11-.87,0-1.43-.9-1.43-2.32s.56-2.32,1.43-2.32c.81,0,1.36.78,1.43,2.04h.86v-2.46h.56Zm-2.86.98c-.54,0-.89.68-.88,1.77,0,1.08.34,1.77.88,1.76.54,0,.89-.68.89-1.76s-.35-1.77-.89-1.77Zm12.73,2.92v.5h-2.76v2.16h-.58v-2.16h-2.75v-.5h6.08Zm-2.75-2.72c0,.83,1.16,1.56,2.36,1.73l-.22.47c-1.03-.16-2.01-.68-2.43-1.4-.43.74-1.42,1.25-2.45,1.4l-.22-.47c1.19-.17,2.37-.89,2.37-1.73h0s-2.16,0-2.16,0v-.48h2.16v-.83h.58v.83h2.17v.48h-2.16Zm8.27-1.32v2.72h1.08v.5h-1.08v3.46h-.59v-6.68h.59Zm-1.73.72c0,1.89-.89,3.61-3.07,4.69l-.33-.47c1.73-.86,2.67-2.14,2.8-3.73h-2.49v-.5h3.09Z"/>
              <path class="cls-2" d="m218.77,238.21v3.08m-1.54-1.54h3.08m-4.62,4.1h6.15c.57,0,1.03-.46,1.03-1.03v-6.15c0-.57-.46-1.03-1.03-1.03h-6.15c-.57,0-1.03.46-1.03,1.03v6.15c0,.57.46,1.03,1.03,1.03Z"/>
            </g>
          </g>
        </g>
      </g>
    </g>
    <g>
      <g>
        <rect class="cls-5" x="36.99" y="36.64" width="43.12" height="17.32" rx="2.41" ry="2.41"/>
        <g>
          <path class="cls-8" d="m45.71,49.39c-.58.17-1.3.14-2.12.01-.57-.11-1.22-.4-1.79-.79l.77-1.5c.71.37,1.39.65,2.02.74.41.09.5-.41.13-.56-.47-.23-1.1-.35-1.86-.81-.73-.44-1.09-1.34-.71-2.22.28-.73.95-1.2,2.17-1.24.98-.03,1.82.25,2.64.89l-.99,1.38c-.6-.37-1.08-.53-1.54-.56-.25-.03-.4.4-.13.54.45.25,1.1.38,1.72.71.81.42,1.2,1.07,1.08,1.91-.1.83-.62,1.29-1.38,1.51Z"/>
          <path class="cls-8" d="m50.33,46.74c0,.46.05.68.3.77.17.06.31.04.66-.08l.32,1.68c-.57.26-1.5.36-2.15.11-.76-.31-1.03-.98-1.03-2.13v-2.14h-.99v-1.72h.99v-2.11h1.9v2.11h1.23v1.72h-1.23v1.79Z"/>
          <path class="cls-8" d="m52.04,46.29c0-2.02,1.23-3.28,3.01-3.28s2.88,1.34,2.88,3.3l-.04.61h-3.97c.04.56.58.87,1.21.87.57,0,.97-.23,1.32-.66l1.24,1.08c-.65.89-1.53,1.3-2.64,1.3-1.77,0-3.05-1.23-3.01-3.21Zm4.04-.85c-.08-.51-.52-.75-1.01-.75-.55,0-.97.28-1.03.75h2.05Z"/>
          <path class="cls-8" d="m62.12,49.37c-.63,0-1.22-.24-1.57-.63v1.91h-1.89v-7.43h1.89v.54c.32-.35.9-.62,1.63-.64,1.61-.04,2.79,1.1,2.82,3.17.03,2.13-1.24,3.07-2.87,3.07Zm-.32-1.68c.67.03,1.34-.33,1.34-1.44,0-1.01-.65-1.43-1.25-1.43-.74,0-1.28.63-1.28,1.61,0,.64.51,1.22,1.19,1.27Z"/>
          <path class="cls-8" d="m67.94,49.49h-2.17v-1.99h2.17v1.99Z"/>
          <path class="cls-8" d="m69.43,49.29v-1.35c1.12-1.02,1.72-1.56,2.6-2.54.71-.8,1.01-1.38.97-1.79-.03-.47-.46-.76-.83-.74-.47.02-.88.45-.94,1.21l-1.9-.33c.22-1.64,1.14-2.72,2.76-2.76,1.2-.04,2.24.6,2.65,1.5.33.69.23,1.92-.42,2.9-.55.83-.98,1.25-1.99,2.18h1.39c.58,0,1.09-.02,1.44-.1v1.68c-.45.1-1.38.14-1.85.14h-3.88Z"/>
        </g>
      </g>
      <g>
        <path class="cls-4" d="m93.78,41.1v.62c-.48.13-.74.5-.74,1.06h.63v1.28h-1.25v-1.21c0-.87.52-1.57,1.36-1.74Z"/>
        <path class="cls-4" d="m104.09,46.48v.8h-9.38v-.8h4.15v-.69c-2.02-.06-3.4-.45-3.4-1.31,0-.94,1.62-1.32,3.94-1.32s3.94.39,3.94,1.32c0,.86-1.38,1.25-3.4,1.31v.69h4.16Zm-.38-3.78h-8.62v-.78h3.75v-.86h1.1v.86h3.77v.78Zm-8.35,5.3h8.08v2.72h-8.08v-2.72Zm1.07,1.94h5.94v-1.16h-5.94v1.16Zm2.97-4.9c1.63,0,2.85-.19,2.85-.56s-1.22-.56-2.85-.56-2.85.19-2.85.56,1.23.56,2.85.56Z"/>
        <path class="cls-4" d="m114.69,43.48h-6.37v-.96h2.63v-1.19h1.11v1.19h2.63v.96Zm-2.64,5.82c1.24-.01,2.32-.12,2.97-.42v.99c-.59.26-1.75.4-3.07.4h-3.59v-.97h2.6v-1.4c-1.33-.14-2.16-.85-2.16-1.9,0-1.2,1.06-1.95,2.72-1.95s2.72.75,2.72,1.95c0,1.07-.84,1.77-2.19,1.91v1.39Zm-.53-2.25c1.11,0,1.68-.45,1.68-1.05s-.57-1.06-1.68-1.06-1.68.46-1.68,1.06.57,1.05,1.68,1.05Zm6.67-.85h-1.3v4.63h-1.09v-9.4h1.09v3.72h1.3v1.05Z"/>
        <path class="cls-4" d="m124.62,46.74h-5.28v-5.08h5.28v5.08Zm3.37,2.98v.98h-8.2v-3.05h1.11v2.07h7.08Zm-4.45-7.12h-3.13v3.19h3.13v-3.19Zm3.17,3.12h-1.54v-.97h1.54v-1.32h-1.54v-.97h1.54v-1.04h1.08v6.99h-1.08v-2.68Z"/>
        <path class="cls-4" d="m135.26,41.49h1.02v9.18h-1.02v-4.28h-1.24c-.07,2.78-.81,4-2.18,4s-2.19-1.33-2.19-4.37.77-4.37,2.19-4.37c1.31,0,2.06,1.13,2.17,3.7h1.25v-3.86Zm-2.28,4.53c0-2.31-.36-3.38-1.14-3.38s-1.16,1.07-1.16,3.38.37,3.38,1.16,3.38,1.14-1.07,1.14-3.38Zm5.58-4.59v9.4h-1.03v-9.4h1.03Z"/>
        <path class="cls-4" d="m152.57,48.52h-4.15v2.53h-1.11v-2.53h-4.13v-1.01h9.38v1.01Zm-9.09-1.91v-1c1.98-.14,3.41-1.06,3.79-2.34h-3.55v-.99h3.56v-1.07h1.12v1.07h3.61v.99h-3.56c-.06.29-.15.56-.28.83l4.09,1.51-.37.95-4.28-1.63c-.88.98-2.34,1.6-4.14,1.69Z"/>
        <path class="cls-4" d="m154.11,41.77h5.12v2.27c0,3.74-1.93,6.21-5.12,6.21v-1.03c2.55-.01,4-2,4-5.15v-1.29h-4v-1Zm9.48,4.51h-1.32v4.54h-1.09v-9.4h1.09v3.81h1.32v1.05Z"/>
        <path class="cls-4" d="m164.07,44.38v-.62c.48-.13.74-.5.74-1.06h-.63v-1.28h1.25v1.21c0,.87-.52,1.57-1.36,1.74Z"/>
        <path class="cls-4" d="m166.46,45.75h9.38v.79h-9.38v-.79Zm.65,2.85h7.03v-.6h-7.05v-.77h8.11v2.1h-7.03v.62h7.19v.77h-8.25v-2.11Zm.03-5.65h6.97v-.64h-6.97v-.77h8.03v2.13h-6.98v.63h7.11v.77h-8.16v-2.12Z"/>
        <path class="cls-4" d="m180.15,47.1v-1.02c1.76-.32,2.79-2.31,2.82-4.55l1.09.07c0,.84-.13,1.64-.4,2.35l2.92,2.33-.68.77-2.65-2.16c-.68,1.19-1.75,2.04-3.09,2.21Zm9.02,2.63v.98h-8.2v-2.99h1.11v2.01h7.08Zm-1.29-5.51h-2.27v-.99h2.27v-1.79h1.09v6.99h-1.09v-4.2Z"/>
        <path class="cls-4" d="m192.8,47.02h-1.8v-5.36h4.16v.91h-3.12v1.28h2.99v.89h-2.99v1.36h.86c1.05,0,1.95-.11,2.58-.34v.9c-.62.24-1.58.35-2.66.35Zm-1.35.94h8.29v2.87h-1.08v-1.95h-7.22v-.92Zm8.29-6.52v6.01h-1.03v-2.76h-1.53v2.66h-1.03v-5.85h1.03v2.19h1.53v-2.24h1.03Z"/>
        <path class="cls-4" d="m204.13,42.89h1.97v.98h-5.02v-.98h1.97v-1.48h1.08v1.48Zm1.69,4.6c0,1.87-.92,2.88-2.19,2.88s-2.18-1.01-2.18-2.88.92-2.88,2.18-2.88,2.19,1.01,2.19,2.88Zm-1,0c0-1.23-.51-1.93-1.19-1.93s-1.17.69-1.17,1.93.5,1.93,1.17,1.93,1.19-.69,1.19-1.93Zm5.5-6.06v9.4h-1.01v-4.59h-1.51v4.42h-1.01v-9.18h1.01v3.73h1.51v-3.78h1.01Z"/>
        <path class="cls-4" d="m221.26,48.42h-4.16v2.63h-1.1v-2.63h-4.12v-1.01h9.38v1.01Zm-9.08-2.02v-1.01c1.92-.15,3.51-1.15,3.91-2.72h-3.67v-.99h8.29v.99h-3.47c-.07.34-.18.67-.32.97l4.09,1.81-.45.91-4.19-1.88c-.95,1.12-2.5,1.8-4.19,1.91Z"/>
        <path class="cls-4" d="m225.37,45.52l2.28,4.14-.91.48-1.65-3.08c-.47,1.88-1.3,2.94-2.55,3.2v-1.1c1.49-.48,1.99-3.31,2-7.5l1.04.04c0,1.46-.08,2.73-.21,3.82Zm2.72-4.04h1.03v9.18h-1.03v-4.98h-1.48v-1.03h1.48v-3.16Zm3.4-.05v9.4h-1.03v-9.4h1.03Z"/>
        <path class="cls-4" d="m242.42,49.37v1h-9.38v-1h2.16v-2.54c-1.08-.49-1.71-1.32-1.71-2.38,0-1.74,1.67-2.86,4.24-2.86s4.24,1.12,4.24,2.86c0,1.04-.63,1.88-1.69,2.37v2.55h2.16Zm-4.7-3.06c1.85,0,3.09-.74,3.09-1.86s-1.24-1.87-3.09-1.87-3.08.73-3.08,1.87,1.23,1.86,3.08,1.86Zm-1.44,3.06h2.89v-2.2c-.44.09-.92.13-1.45.13s-1-.04-1.44-.13v2.2Z"/>
      </g>
    </g>
    <g class="cls-10">
      <g class="cls-16">
        <g class="cls-15">
          <g>
            <path class="cls-6" d="m35.11-80.83c0-3.92,0-5.87.76-7.37.67-1.32,1.74-2.39,3.06-3.06,1.5-.76,3.45-.76,7.37-.76h187.4c3.92,0,5.87,0,7.37.76,1.32.67,2.39,1.74,3.06,3.06.76,1.5.76,3.45.76,7.37v341.66H35.11V-80.83Z"/>
            <g class="cls-13">
              <g>
                <rect class="cls-7" x="43.72" y="84.94" width="192.56" height="25.82" rx="6.99" ry="6.99"/>
                <rect class="cls-7" x="43.72" y="84.94" width="192.56" height="25.82" rx="6.99" ry="6.99"/>
                <path d="m58.99,97.8v.51h-6.38v-.51h2.88v-.84h-2.03v-2.62h.61v.81h3.47v-.81h.61v2.62h-2.05v.84h2.88Zm-.79,1.21v2.17h-.62v-1.68h-4.26v-.5h4.89Zm-4.13-2.54h3.47v-.84h-3.47v.84Zm7.64-.4c0,1.24.82,2.51,1.81,2.99l-.38.5c-.77-.41-1.42-1.23-1.73-2.21-.32,1.04-.98,1.92-1.76,2.34l-.39-.5c1.02-.5,1.84-1.85,1.84-3.13v-1.28h.61v1.28Zm3.07-1.88v2.84h1.17v.54h-1.17v3.62h-.61v-7h.61Z"/>
                <path d="m218.54,102.07c0,.93.46,1.4,1.38,1.4h4.2c.92,0,1.38-.47,1.38-1.4v-.83h.78c.92,0,1.38-.47,1.38-1.4v-3.63c0-.55-.11-.9-.45-1.24l-2.25-2.29c-.32-.33-.69-.45-1.17-.45h-1.71c-.92,0-1.38.47-1.38,1.4v.83h-.78c-.92,0-1.38.47-1.38,1.4v6.2Zm6.54-4.67l-2.46-2.5c-.34-.35-.62-.42-1.12-.42h-.08v-.81c0-.44.24-.7.7-.7h1.97v2.29c0,.52.25.76.76.76h2.09v3.82c0,.45-.24.7-.71.7h-.74v-1.94c0-.57-.07-.82-.42-1.19Zm-.34-2.25v-1.83l2.02,2.05h-1.8c-.16,0-.22-.07-.22-.22Zm-5.49,6.92v-6.18c0-.44.24-.69.7-.69h1.46v2.59c0,.56.29.84.84.84h2.52v3.44c0,.45-.24.7-.7.7h-4.13c-.46,0-.7-.25-.7-.7Zm3.09-4.11c-.18,0-.25-.07-.25-.25v-2.34l2.55,2.59h-2.3Z"/>
              </g>
            </g>
            <g class="cls-14">
              <g>
                <rect class="cls-7" x="43.72" y="119.37" width="192.56" height="130.17" rx="6.99" ry="6.99"/>
                <rect class="cls-7" x="43.72" y="119.37" width="192.56" height="25.82" rx="6.99" ry="6.99"/>
                <path d="m58.38,128.6v3.73h-.61v-3.73h.61Zm-2.56,4.03v1.62h-1.72v.78c.91,0,1.49-.02,2.21-.15l.06.47c-.8.15-1.42.16-2.44.16h-.43v-1.72h1.72v-.68h-1.73v-.48h2.32Zm2.56,0v2.92h-.61v-2.4h-1.64v-.51h2.25Zm-3.79-3.71c1.05,0,1.81.65,1.81,1.57s-.76,1.58-1.81,1.58-1.82-.65-1.82-1.58.76-1.57,1.82-1.57Zm0,.52c-.7,0-1.22.43-1.21,1.05,0,.62.51,1.06,1.21,1.06s1.21-.44,1.21-1.06-.52-1.06-1.21-1.05Zm10.56-.84v7h-.62v-7h.62Zm-2.07.76c0,2.02-.95,3.8-3.29,4.92l-.34-.5c1.89-.9,2.86-2.24,3-3.92h-2.68v-.5h3.31Zm10.41-.46v2.36h-2.07v.9h2.88v.5h-6.38v-.5h2.88v-.9h-2.06v-2.36h4.74Zm-4.14.5v1.37h3.52v-1.37h-3.52Zm4.16,4v2.21h-.62v-1.71h-4.26v-.5h4.89Zm7.57-.94v.51h-6.41v-.51h2.9v-.74h-2.06v-1.71h4.13v-.72h-4.15v-.5h4.77v1.69h-4.14v.75h4.29v.5h-2.23v.74h2.91Zm-.79,1.05v2.03h-.62v-1.53h-4.29v-.5h4.91Zm7.14-4.91v7h-.6v-7h.6Zm-1.41.15v6.5h-.59v-3.4h-.9c-.07,1.36-.65,2.21-1.51,2.21-.91,0-1.5-.95-1.5-2.43s.59-2.43,1.5-2.43c.85,0,1.43.82,1.5,2.14h.91v-2.58h.59Zm-3,1.02c-.57,0-.93.71-.92,1.85,0,1.13.35,1.85.92,1.84.57,0,.93-.71.93-1.84s-.36-1.85-.93-1.85Zm13.35,3.06v.52h-2.89v2.26h-.61v-2.26h-2.88v-.52h6.38Zm-2.88-2.85c0,.87,1.22,1.64,2.47,1.81l-.23.5c-1.08-.17-2.1-.71-2.55-1.47-.45.77-1.49,1.31-2.57,1.47l-.23-.5c1.24-.17,2.48-.93,2.48-1.81h0s-2.26,0-2.26,0v-.5h2.26v-.87h.61v.87h2.28v.5h-2.27Zm8.68-1.39v2.85h1.13v.52h-1.13v3.63h-.61v-7h.61Zm-1.81.76c0,1.99-.93,3.79-3.21,4.92l-.35-.49c1.81-.9,2.8-2.25,2.94-3.91h-2.62v-.52h3.24Z"/>
                <path d="m219.9,134.76c1.36,0,2.46-1.11,2.48-2.44.19-.07.4-.1.57-.1s.38.03.57.1c.02,1.35,1.12,2.44,2.48,2.44,1.29,0,2.34-.98,2.47-2.22h.53c.21,0,.29-.12.29-.29v-.17c0-.17-.08-.29-.29-.29h-.56c-.22-1.13-1.23-2-2.44-2s-2.14.8-2.41,1.88c-.21-.08-.45-.11-.65-.11s-.44.03-.64.11c-.27-1.08-1.25-1.88-2.41-1.88s-2.21.87-2.44,2h-.56c-.2,0-.28.12-.28.29v.17c0,.17.08.29.28.29h.53c.13,1.25,1.19,2.22,2.47,2.22Zm0-.67c-1,0-1.81-.81-1.81-1.81s.81-1.81,1.81-1.81,1.81.81,1.81,1.81-.8,1.81-1.81,1.81Zm6.1,0c-1.01,0-1.81-.81-1.81-1.81s.8-1.81,1.81-1.81,1.81.81,1.81,1.81-.81,1.81-1.81,1.81Z"/>
                <rect class="cls-17" x="43.72" y="145.19" width="192.56" height=".27"/>
                <rect class="cls-7" x="43.72" y="145.45" width="192.56" height="25.82" rx="6.99" ry="6.99"/>
                <path d="m54.68,156.21c0,.83.55,1.64,1.44,1.96l-.3.48c-.69-.27-1.17-.8-1.42-1.43-.24.69-.74,1.26-1.43,1.56l-.31-.47c.89-.37,1.43-1.21,1.43-2.1v-.09h-1.29v-.5h1.29v-.84h.58v.84h1.27v.5h-1.27v.09Zm3.88-1.51v4.29h-.59v-1.9h-.91v1.87h-.6v-4.13h.6v1.75h.91v-1.88h.59Zm0,4.66v2.33h-.61v-1.83h-4.11v-.5h4.72Zm6.28-4.67v1.58h1.06v.52h-1.06v1.47h-.61v-3.57h.61Zm-1.91.35c0,1.76-1.28,2.92-3.32,3.4l-.24-.52c1.75-.39,2.78-1.26,2.88-2.37h-2.57v-.51h3.25Zm1.91,3.54v1.73h-3.85v.81h4.11v.51h-4.71v-1.8h3.84v-.75h-3.85v-.5h4.47Zm7.07-3.88v7h-.62v-7h.62Zm-1.62.76v.51h-.8v3.37c.39-.03.78-.06,1.16-.11l.04.46c-1.53.24-3.21.26-4.51.27l-.07-.53c.3,0,.63,0,.97,0v-3.46h-.79v-.51h4Zm-2.61,3.96c.39,0,.8-.02,1.21-.05v-3.4h-1.21v3.45Zm13.37-.49v.52h-2.89v2.26h-.61v-2.26h-2.88v-.52h6.38Zm-2.88-2.85c0,.87,1.22,1.64,2.47,1.81l-.23.5c-1.08-.17-2.1-.71-2.54-1.47-.45.77-1.49,1.31-2.57,1.47l-.23-.5c1.24-.17,2.48-.93,2.48-1.81h0s-2.26,0-2.26,0v-.5h2.26v-.87h.61v.87h2.28v.5h-2.27Zm8.68-1.39v2.85h1.13v.52h-1.13v3.63h-.61v-7h.61Zm-1.81.76c0,1.99-.93,3.79-3.21,4.92l-.35-.49c1.81-.9,2.8-2.25,2.94-3.91h-2.62v-.52h3.24Z"/>
                <path d="m222.72,154.96c-.37-.46-1.28-.87-2.29-.87-1.34,0-2.41.68-2.67,1.33v6.71c0,.37.24.51.5.51.21,0,.33-.06.46-.16.31-.26.83-.56,1.71-.56s1.49.29,1.75.53c.12.1.28.19.54.19s.41-.1.54-.19c.28-.21.86-.53,1.75-.53s1.42.3,1.71.56c.13.1.25.16.46.16.26,0,.5-.14.5-.51v-6.71c-.26-.65-1.34-1.33-2.67-1.33-1.01,0-1.92.41-2.29.87Zm-4.19.69c.11-.3.81-.83,1.9-.83s1.81.54,1.9.83v6.09c-.46-.34-1.16-.54-1.9-.54s-1.44.2-1.9.56v-6.11Zm8.37,0v6.11c-.46-.36-1.15-.56-1.9-.56s-1.43.2-1.9.54v-6.09c.09-.29.81-.83,1.9-.83s1.79.54,1.9.83Z"/>
                <rect class="cls-17" x="43.72" y="171.27" width="192.56" height=".27"/>
                <rect class="cls-7" x="43.72" y="171.54" width="192.56" height="25.82" rx="6.99" ry="6.99"/>
                <path d="m58.99,183.76v.51h-6.38v-.51h6.38Zm-.82,1.16v1.58h-4.16v.71h4.37v.49h-4.99v-1.66h4.17v-.65h-4.18v-.47h4.79Zm.25-3.87v.5h-2.26c.06.72,1.24,1.27,2.49,1.37l-.2.49c-1.15-.12-2.23-.56-2.64-1.27-.43.71-1.5,1.15-2.65,1.27l-.2-.49c1.24-.1,2.41-.65,2.5-1.37h-2.26v-.5h5.23Zm4.49.49c0,.4-.04.79-.11,1.17h1.74v-1.94h.61v7.01h-.61v-2.69h-1.98v-.51h1.98v-1.36h-1.87c-.41,1.3-1.33,2.44-2.99,3.25l-.32-.5c1.87-.9,2.79-2.25,2.92-3.91h-2.62v-.5h3.24Zm5.59.7c0,.83.71,1.61,1.74,1.91l-.29.47c-.81-.24-1.44-.76-1.74-1.43-.31.74-.96,1.3-1.79,1.58l-.31-.49c1.04-.32,1.78-1.12,1.78-2.04v-.13h-1.58v-.51h1.58v-.85h.62v.85h1.57v.51h-1.58v.13Zm3.09-1.47v1.73h1.06v.52h-1.06v1.82h-.61v-4.07h.61Zm.13,4.45v.5h-1.99c.1.73,1.13,1.36,2.25,1.54l-.23.48c-1.03-.17-1.96-.68-2.36-1.38-.4.7-1.32,1.19-2.34,1.37l-.24-.47c1.13-.18,2.15-.8,2.25-1.54h-1.98v-.5h4.62Zm6.94-4.45v7h-.62v-7h.62Zm-2.07.76c0,2.02-.95,3.8-3.29,4.92l-.34-.5c1.89-.9,2.86-2.24,3-3.92h-2.68v-.5h3.31Zm9.04-.76v7h-.6v-7h.6Zm-1.41.15v6.5h-.59v-3.4h-.9c-.07,1.36-.65,2.21-1.51,2.21-.91,0-1.5-.95-1.5-2.43s.59-2.43,1.5-2.43c.85,0,1.43.82,1.5,2.14h.91v-2.58h.59Zm-3,1.02c-.57,0-.93.71-.92,1.85,0,1.13.35,1.85.92,1.84.57,0,.93-.71.93-1.84s-.36-1.85-.93-1.85Zm13.35,3.06v.52h-2.89v2.26h-.61v-2.26h-2.88v-.52h6.38Zm-2.88-2.85c0,.87,1.22,1.64,2.47,1.81l-.23.5c-1.08-.17-2.1-.71-2.54-1.47-.45.77-1.49,1.31-2.57,1.47l-.23-.5c1.24-.17,2.48-.93,2.48-1.81h0s-2.26,0-2.26,0v-.5h2.26v-.87h.61v.87h2.28v.5h-2.27Zm8.68-1.39v2.85h1.13v.52h-1.13v3.63h-.61v-7h.61Zm-1.81.76c0,1.99-.93,3.79-3.21,4.92l-.35-.49c1.81-.9,2.8-2.25,2.94-3.91h-2.62v-.52h3.24Z"/>
                <path d="m219.66,189.11c.18.14.42.09.69-.11l2.36-1.74,2.37,1.74c.28.2.5.25.69.11.18-.14.22-.37.11-.69l-.93-2.78,2.38-1.71c.28-.2.39-.4.32-.63-.07-.21-.28-.32-.63-.32l-2.92.02-.89-2.79c-.11-.33-.27-.5-.5-.5s-.39.17-.5.5l-.89,2.79-2.92-.02c-.34,0-.55.1-.63.32-.08.22.04.43.32.63l2.38,1.71-.93,2.78c-.11.33-.07.55.11.69Zm.64-.88s0-.01,0-.04l.89-2.55c.06-.17.03-.31-.13-.42l-2.22-1.54s-.03-.02-.02-.04c0-.01.01-.01.04-.01l2.7.05c.18,0,.3-.07.36-.25l.78-2.59s.01-.04.02-.04c.01,0,.02,0,.03.04l.78,2.59c.06.18.17.26.36.25l2.7-.05s.04,0,.04.01c0,.01,0,.02-.02.04l-2.22,1.54c-.16.11-.19.25-.13.42l.89,2.55s0,.03,0,.04c0,.01-.02,0-.04,0l-2.15-1.64c-.14-.11-.31-.11-.45,0l-2.15,1.64s-.03.02-.04,0Z"/>
                <rect class="cls-17" x="43.72" y="197.36" width="192.56" height=".27"/>
                <rect class="cls-7" x="43.72" y="197.63" width="192.56" height="25.82" rx="6.99" ry="6.99"/>
                <path d="m58.64,206.86v7h-.6v-7h.6Zm-1.37.17v6.46h-.59v-3.41h-.98v-.56h.98v-2.49h.59Zm-1.36.73v.51h-.59v3.24c.26-.02.52-.04.75-.07l.04.46c-1.1.2-2.58.24-3.49.24l-.08-.53c.22,0,.47,0,.74,0v-3.33h-.59v-.51h3.22Zm-2.06,3.83c.29,0,.6-.02.9-.04v-3.28h-.9v3.32Zm11.3-4.73v7.02h-.62v-7.02h.62Zm-3.73.54c1.04,0,1.79.95,1.79,2.44s-.75,2.43-1.79,2.43-1.79-.95-1.79-2.43.74-2.43,1.79-2.44Zm0,.55c-.7,0-1.19.75-1.19,1.89s.49,1.88,1.19,1.88,1.19-.74,1.19-1.88-.49-1.88-1.19-1.89Zm7.21,1.06c0,1.19.87,2.4,1.9,2.84l-.35.49c-.82-.37-1.53-1.18-1.85-2.15-.33,1.03-1.04,1.92-1.84,2.32l-.37-.49c1-.48,1.88-1.8,1.88-3.02v-.91h-1.65v-.51h3.95v.51h-1.67v.91Zm3.27-2.15v7h-.62v-7h.62Zm6.98,0v7h-.6v-7h.6Zm-1.41.15v6.5h-.59v-3.4h-.9c-.07,1.36-.65,2.21-1.51,2.21-.91,0-1.5-.95-1.5-2.43s.59-2.43,1.5-2.43c.85,0,1.43.82,1.5,2.14h.91v-2.58h.59Zm-3,1.02c-.57,0-.93.71-.92,1.85,0,1.13.35,1.85.92,1.84.57,0,.93-.71.93-1.84s-.36-1.85-.93-1.85Zm7.63.71c0,1.27.81,2.54,1.83,3.01l-.37.5c-.8-.41-1.45-1.25-1.76-2.25-.31,1.05-.97,1.95-1.76,2.37l-.4-.5c1.02-.5,1.84-1.85,1.84-3.14v-1.28h.63v1.28Zm3.34-1.88v7.02h-.61v-4.12h-1.66v-.5h1.66v-2.4h.61Zm5.14,1.47c0,.83.71,1.61,1.74,1.91l-.29.47c-.81-.24-1.44-.76-1.74-1.43-.31.74-.96,1.3-1.79,1.58l-.31-.49c1.04-.32,1.78-1.12,1.78-2.04v-.13h-1.58v-.51h1.58v-.85h.62v.85h1.57v.51h-1.58v.13Zm3.09-1.47v1.73h1.06v.52h-1.06v1.82h-.61v-4.07h.61Zm.13,4.45v.5h-1.99c.1.73,1.13,1.36,2.25,1.54l-.23.48c-1.03-.17-1.96-.68-2.36-1.38-.4.7-1.32,1.19-2.34,1.37l-.24-.47c1.13-.18,2.15-.8,2.25-1.54h-1.98v-.5h4.62Zm6.94-4.45v7h-.62v-7h.62Zm-2.07.76c0,2.02-.95,3.8-3.29,4.92l-.34-.5c1.89-.9,2.86-2.24,3-3.92h-2.68v-.5h3.31Z"/>
                <path d="m220.28,214.92h2.69c-.13-.08-.51-.32-.64-.68h-1.96c-.45,0-.68-.23-.68-.67v-7.02c0-.43.23-.68.68-.68h4.87c.44,0,.68.24.68.68v4.08c.36.13.41.16.67.64v-4.78c0-1.03-.26-1.28-1.27-1.28h-5.04c-1.01,0-1.27.26-1.27,1.28v7.13c0,1.03.26,1.29,1.27,1.29Zm.8-7.11h3.45c.17,0,.3-.13.3-.3s-.13-.3-.3-.3h-3.45c-.17,0-.3.13-.3.3s.13.3.3.3Zm0,1.61h3.45c.17,0,.3-.13.3-.3s-.13-.3-.3-.3h-3.45c-.17,0-.3.13-.3.3s.13.3.3.3Zm3.71,5.6c.4,0,.78-.11,1.09-.31l1.17,1.01c.11.11.22.14.36.14s.27-.1.27-.27-.05-.23-.14-.32l-1.17-1.02c.22-.33.34-.72.34-1.14,0-1.15-.77-1.92-1.92-1.92s-1.92.77-1.92,1.92.78,1.91,1.92,1.91Zm0-.56c-.75,0-1.36-.61-1.36-1.36s.61-1.36,1.36-1.36,1.35.61,1.35,1.36-.61,1.36-1.35,1.36Z"/>
                <rect class="cls-17" x="43.72" y="223.45" width="192.56" height=".27"/>
                <rect class="cls-7" x="43.72" y="223.72" width="192.56" height="25.82" rx="6.99" ry="6.99"/>
                <path d="m58.21,237.86v2h-4.82v-2h4.82Zm-4.21.48v1.04h3.6v-1.04h-3.6Zm4.62-4.8v.48h-5.68v-.48h2.55v-.69h.61v.69h2.51Zm-2.82.76c1.45,0,2.27.34,2.27.99,0,.61-.71.94-1.96.98v.54h2.88v.5h-6.38v-.5h2.88v-.54c-1.26-.04-1.97-.37-1.97-.98,0-.65.83-.98,2.28-.99Zm0,.43c-1.03,0-1.62.2-1.62.56,0,.35.58.56,1.62.56s1.62-.2,1.62-.56-.59-.55-1.62-.56Zm10.8-1.79v2.99h1.12v.52h-1.12v3.5h-.62v-7h.62Zm-5.52,5.14c.57,0,1.24,0,1.93-.02v-.78c-.82-.09-1.35-.57-1.34-1.26,0-.79.66-1.3,1.65-1.3s1.65.51,1.66,1.3c0,.69-.55,1.17-1.36,1.27v.75c.65-.03,1.31-.08,1.92-.17l.04.47c-1.53.26-3.18.28-4.41.28l-.1-.53Zm4.35-4.28v.5h-4.22v-.5h1.8v-.84h.62v.84h1.8Zm-2.1,1.39c-.65,0-1.08.33-1.08.82s.43.8,1.08.8c.64,0,1.07-.31,1.07-.8s-.43-.82-1.07-.82Zm8.14-1.64v.62h1.64v-1.23h.62v5.11h-.62v-1.87h-1.64v.63h-3.21v-3.27h3.21Zm-2.6.51v2.26h1.99v-2.26h-1.99Zm5.02,5.21v.52h-4.69v-2.19h.62v1.67h4.07Zm-2.42-3.59h1.64v-.98h-1.64v.98Zm9.21-2.74v7h-.6v-7h.6Zm-1.41.15v6.5h-.59v-3.4h-.9c-.07,1.36-.65,2.21-1.51,2.21-.91,0-1.5-.95-1.5-2.43s.59-2.43,1.5-2.43c.85,0,1.43.82,1.5,2.14h.91v-2.58h.59Zm-3,1.02c-.57,0-.93.71-.92,1.85,0,1.13.35,1.85.92,1.84.57,0,.93-.71.93-1.84s-.36-1.85-.93-1.85Zm13.35,3.06v.52h-2.89v2.26h-.61v-2.26h-2.88v-.52h6.38Zm-2.88-2.85c0,.87,1.22,1.64,2.47,1.81l-.23.5c-1.08-.17-2.1-.71-2.55-1.47-.45.77-1.49,1.31-2.57,1.47l-.23-.5c1.24-.17,2.48-.93,2.48-1.81h0s-2.26,0-2.26,0v-.5h2.26v-.87h.61v.87h2.28v.5h-2.27Zm8.68-1.39v2.85h1.13v.52h-1.13v3.63h-.61v-7h.61Zm-1.81.76c0,1.99-.93,3.79-3.21,4.92l-.35-.49c1.81-.9,2.8-2.25,2.94-3.91h-2.62v-.52h3.24Z"/>
                <path class="cls-2" d="m222.62,235.01v3.23m-1.61-1.61h3.23m-4.84,4.3h6.45c.59,0,1.08-.48,1.08-1.08v-6.45c0-.59-.48-1.08-1.08-1.08h-6.45c-.59,0-1.08.48-1.08,1.08v6.45c0,.59.48,1.08,1.08,1.08Z"/>
              </g>
            </g>
          </g>
        </g>
      </g>
    </g>
    <path class="cls-5" d="m247.93,255.72H32.07c-3.59,0-6.52-2.92-6.52-6.52v-26.03c0-3.59,2.92-6.52,6.52-6.52h215.86c3.59,0,6.52,2.92,6.52,6.52v26.03c0,3.59-2.92,6.52-6.52,6.52Zm-215.86-38.06c-3.04,0-5.52,2.48-5.52,5.52v26.03c0,3.04,2.48,5.52,5.52,5.52h215.86c3.04,0,5.52-2.48,5.52-5.52v-26.03c0-3.04-2.48-5.52-5.52-5.52H32.07Z"/>
    <g>
      <g id="_Radial_Repeat_" data-name="&amp;lt;Radial Repeat&amp;gt;">
        <rect class="cls-5" x="259.05" y="216.43" width="5.43" height="1" transform="translate(-57.9 101.18) rotate(-19.74)"/>
      </g>
      <g id="_Radial_Repeat_-2" data-name="&amp;lt;Radial Repeat&amp;gt;">
        <rect class="cls-5" x="257.04" y="213.01" width="5.42" height="1" transform="translate(-76.31 224.64) rotate(-41.32)"/>
      </g>
      <g id="_Radial_Repeat_-3" data-name="&amp;lt;Radial Repeat&amp;gt;">
        <rect class="cls-5" x="253.9" y="210.58" width="5.42" height="1" transform="translate(-48.11 343.54) rotate(-62.93)"/>
      </g>
    </g>
  </g>
</svg>