<svg width="129" height="69" viewBox="0 0 129 69" fill="none" xmlns="http://www.w3.org/2000/svg">
<path d="M3.42069 50.2546V44.285L24.8842 11.1508H34.0061V44.0168H40.6464V50.2546H34.0061V59.7119H27.0305V50.2546H3.42069ZM11.2012 44.0168H27.0305V19.9374H26.4939L11.2012 43.6143V44.0168Z" fill="white"/>
<path d="M87.4207 50.4642V44.4946L108.884 11.3604H118.006V44.2264H124.646V50.4642H118.006V59.9215H111.03V50.4642H87.4207ZM95.2012 44.2264H111.03V20.147H110.494L95.2012 43.8239V44.2264Z" fill="white"/>
<path fill-rule="evenodd" clip-rule="evenodd" d="M61.5446 41.9002C63.9003 43.7332 68.2502 42.0833 71.2603 38.2149C74.2703 34.3465 74.8008 29.7246 72.4451 27.8915C70.0894 26.0585 65.7395 27.7084 62.7294 31.5768C59.7194 35.4452 59.1889 40.0671 61.5446 41.9002ZM63.8175 38.9173C65.1613 39.9629 67.6426 39.0217 69.3596 36.8151C71.0766 34.6085 71.3792 31.9721 70.0354 30.9264C68.6917 29.8808 66.2104 30.822 64.4934 33.0286C62.7764 35.2352 62.4738 37.8717 63.8175 38.9173Z" fill="#F9F9F9"/>
<path fill-rule="evenodd" clip-rule="evenodd" d="M61.5446 41.9002C63.9003 43.7332 68.2502 42.0833 71.2603 38.2149C74.2703 34.3465 74.8008 29.7246 72.4451 27.8915C70.0894 26.0585 65.7395 27.7084 62.7294 31.5768C59.7194 35.4452 59.1889 40.0671 61.5446 41.9002ZM63.8175 38.9173C65.1613 39.9629 67.6426 39.0217 69.3596 36.8151C71.0766 34.6085 71.3792 31.9721 70.0354 30.9264C68.6917 29.8808 66.2104 30.822 64.4934 33.0286C62.7764 35.2352 62.4738 37.8717 63.8175 38.9173Z" fill="#F9F9F9"/>
<path fill-rule="evenodd" clip-rule="evenodd" d="M61.5446 41.9002C63.9003 43.7332 68.2502 42.0833 71.2603 38.2149C74.2703 34.3465 74.8008 29.7246 72.4451 27.8915C70.0894 26.0585 65.7395 27.7084 62.7294 31.5768C59.7194 35.4452 59.1889 40.0671 61.5446 41.9002ZM63.8175 38.9173C65.1613 39.9629 67.6426 39.0217 69.3596 36.8151C71.0766 34.6085 71.3792 31.9721 70.0354 30.9264C68.6917 29.8808 66.2104 30.822 64.4934 33.0286C62.7764 35.2352 62.4738 37.8717 63.8175 38.9173Z" fill="#F9F9F9"/>
<path fill-rule="evenodd" clip-rule="evenodd" d="M48.5715 58.5724C56.5345 64.7686 71.2382 59.1913 81.4132 46.115C91.5881 33.0388 93.3813 17.4155 85.4183 11.2192C77.4553 5.02303 62.7516 10.6004 52.5766 23.6766C42.4017 36.7528 40.6085 52.3761 48.5715 58.5724ZM59.779 44.1685C62.8978 46.5954 68.6568 44.4109 72.642 39.2894C76.6272 34.1679 77.3295 28.0487 74.2106 25.6219C71.0918 23.195 65.3328 25.3795 61.3477 30.501C57.3625 35.6225 56.6602 41.7417 59.779 44.1685ZM79.5505 15.7163C79.3027 16.2928 78.6772 16.5371 78.1535 16.2619C75.6996 14.9727 72.6792 15.3228 69.749 16.4527C66.8423 17.5736 64.2177 19.3901 62.71 20.7065C62.2565 21.1025 61.5965 21.0171 61.2359 20.5158C60.8752 20.0145 60.9504 19.2872 61.4039 18.8913C63.0598 17.4455 65.8861 15.4892 69.0503 14.269C72.191 13.0579 75.8614 12.4987 79.0509 14.1744C79.5746 14.4495 79.7983 15.1399 79.5505 15.7163ZM73.8707 20.9557C74.3732 21.2535 74.9942 21.027 75.2577 20.4499C75.5212 19.8727 75.3275 19.1635 74.825 18.8656C73.0413 17.8085 70.965 18.099 69.2553 18.718C67.5196 19.3464 65.952 20.387 65.0188 21.1686C64.5595 21.5533 64.4571 22.2893 64.7902 22.8126C65.1233 23.3358 65.7657 23.4481 66.225 23.0634C67.0112 22.4049 68.3794 21.4971 69.8632 20.9599C71.373 20.4133 72.8 20.3211 73.8707 20.9557Z" fill="#F9F9F9"/>
</svg>
