<svg width="290" height="301" viewBox="0 0 290 301" fill="none" xmlns="http://www.w3.org/2000/svg">
<g opacity="0.05">
<path d="M174.569 349.138C270.98 349.138 349.138 270.98 349.138 174.569C349.138 78.1571 270.98 0 174.569 0C78.1571 0 0 78.1571 0 174.569C0 270.98 78.1571 349.138 174.569 349.138Z" fill="white"/>
<path fill-rule="evenodd" clip-rule="evenodd" d="M119.308 52.4962C119.83 55.2483 118.019 57.8973 115.273 58.4193C76.7181 65.7218 59.3869 99.5914 55.6293 115.621C54.9913 118.347 52.265 120.036 49.5386 119.398C46.8123 118.759 45.1236 116.033 45.7617 113.307C50.0156 95.17 69.3512 56.7951 113.385 48.455C116.137 47.933 118.786 49.7441 119.308 52.4897V52.4962Z" fill="#121212"/>
<path fill-rule="evenodd" clip-rule="evenodd" d="M118.187 78.4319C118.619 81.1969 116.73 83.7879 113.965 84.2262C95.0614 87.191 85.7868 103.968 83.6018 112.115C82.88 114.815 80.0956 116.42 77.3951 115.698C74.6945 114.976 73.0897 112.192 73.8115 109.491C76.5121 99.4176 87.8686 78.0581 112.393 74.2168C115.158 73.7849 117.749 75.6734 118.187 78.4384V78.4319Z" fill="#121212"/>
<path d="M174.568 256.371C219.747 256.371 256.371 219.747 256.371 174.569C256.371 129.39 219.747 92.766 174.568 92.766C129.39 92.766 92.7656 129.39 92.7656 174.569C92.7656 219.747 129.39 256.371 174.568 256.371Z" fill="#121212"/>
<path d="M162.56 199.84C172.769 202.58 183.275 199.215 191.905 192.151C200.541 185.087 207.528 174.169 211.028 161.13C214.521 148.092 213.928 135.143 209.977 124.708C206.033 114.28 198.621 106.114 188.405 103.375C178.196 100.635 167.69 104 159.06 111.064C150.423 118.128 143.437 129.046 139.937 142.085C136.444 155.123 137.037 168.072 140.987 178.507C144.932 188.935 152.344 197.101 162.56 199.84Z" fill="white"/>
<path d="M169.857 204.017C167.124 204.017 164.404 203.662 161.729 202.947C151.011 200.079 142.574 191.803 137.979 179.641C133.667 168.227 133.254 154.595 136.832 141.247C140.409 127.905 147.576 116.297 157.024 108.57C167.079 100.339 178.513 97.3936 189.238 100.262C199.956 103.136 208.386 111.412 212.982 123.568C217.294 134.982 217.7 148.62 214.129 161.962C210.552 175.31 203.379 186.911 193.936 194.639C186.389 200.814 178.062 204.017 169.85 204.017H169.857ZM181.155 105.637C174.401 105.637 167.466 108.344 161.098 113.552C152.687 120.435 146.28 130.864 143.051 142.916C139.822 154.969 140.157 167.208 143.999 177.372C147.84 187.536 154.73 194.413 163.392 196.734C172.055 199.06 181.458 196.547 189.869 189.663C198.28 182.78 204.687 172.351 207.922 160.299C211.151 148.246 210.816 136.007 206.975 125.843C203.134 115.679 196.244 108.802 187.581 106.481C185.474 105.914 183.327 105.637 181.162 105.637H181.155Z" fill="#121212"/>
<path d="M224.609 216.469C234.825 219.208 245.324 215.844 253.96 208.78C262.591 201.716 269.584 190.798 273.077 177.759C276.57 164.72 275.977 151.772 272.033 141.337C268.088 130.909 260.676 122.742 250.461 120.003C240.251 117.264 229.746 120.628 221.116 127.692C212.479 134.756 205.486 145.675 201.993 158.713C198.499 171.752 199.092 184.7 203.043 195.135C206.988 205.564 214.4 213.73 224.615 216.469H224.609Z" fill="white"/>
<path d="M231.904 220.645C229.171 220.645 226.452 220.291 223.777 219.575C213.058 216.701 204.628 208.425 200.033 196.27C195.721 184.855 195.308 171.217 198.885 157.875C202.462 144.527 209.63 132.926 219.078 125.198C229.133 116.968 240.573 114.016 251.291 116.89C262.01 119.758 270.44 128.034 275.042 140.196C279.354 151.604 279.76 165.242 276.189 178.59C272.612 191.932 265.445 203.54 255.996 211.268C248.449 217.442 240.122 220.645 231.904 220.645ZM225.446 213.362C234.108 215.689 243.512 213.175 251.923 206.292C260.334 199.408 266.741 188.98 269.97 176.927C273.199 164.868 272.864 152.635 269.022 142.471C265.181 132.307 258.291 125.43 249.629 123.11C240.966 120.79 231.563 123.303 223.152 130.18C214.741 137.064 208.334 147.492 205.105 159.545C201.876 171.597 202.211 183.837 206.052 194.001C209.894 204.165 216.784 211.042 225.446 213.362Z" fill="#121212"/>
<path d="M172.853 150.146C175.462 140.412 171.578 130.914 164.178 128.931C156.779 126.949 148.667 133.232 146.058 142.966C143.45 152.7 147.334 162.198 154.733 164.181C162.133 166.163 170.245 159.88 172.853 150.146Z" fill="#121212"/>
<path d="M234.899 166.771C237.508 157.038 233.624 147.539 226.224 145.557C218.825 143.574 210.713 149.858 208.104 159.592C205.496 169.326 209.38 178.824 216.779 180.806C224.179 182.789 232.291 176.505 234.899 166.771Z" fill="#121212"/>
<path d="M161.362 237.248C139.119 237.248 122.916 221.728 116.078 210.436C114.969 208.612 115.555 206.24 117.379 205.138C119.197 204.03 121.575 204.616 122.677 206.44C130.895 219.995 154.891 240.671 186.898 221.838C188.734 220.755 191.1 221.367 192.183 223.204C193.265 225.041 192.653 227.407 190.816 228.489C180.169 234.748 170.282 237.248 161.368 237.248H161.362Z" fill="white"/>
<path d="M198.486 237.532C197.79 237.532 197.087 237.345 196.456 236.952C182.895 228.535 185.222 215.122 188.348 209.212C189.347 207.33 191.673 206.608 193.562 207.6C195.444 208.6 196.166 210.933 195.173 212.815C194.941 213.253 189.624 223.623 200.529 230.391C202.34 231.512 202.895 233.897 201.773 235.708C201.045 236.888 199.782 237.532 198.493 237.532H198.486Z" fill="white"/>
</g>
</svg>
