<?xml version="1.0" encoding="UTF-8"?>
<svg id="export" xmlns="http://www.w3.org/2000/svg" xmlns:xlink="http://www.w3.org/1999/xlink" viewBox="0 0 280 251.84">
  <defs>
    <style>
      .cls-1 {
        fill: none;
      }

      .cls-2 {
        clip-path: url(#clippath);
      }

      .cls-3 {
        fill: #f7f7f7;
      }

      .cls-4 {
        fill: #00ffd8;
      }

      .cls-5 {
        fill: #ededed;
      }

      .cls-6 {
        fill: #fff;
      }

      .cls-7 {
        fill: #fafafa;
      }

      .cls-8 {
        fill: #231f20;
      }

      .cls-9 {
        fill: #292929;
      }

      .cls-10 {
        fill: #3c3c43;
      }

      .cls-11 {
        fill: #2e2e2e;
      }

      .cls-12 {
        clip-path: url(#clippath-1);
      }

      .cls-13 {
        clip-path: url(#clippath-4);
      }

      .cls-14 {
        clip-path: url(#clippath-3);
      }

      .cls-15 {
        clip-path: url(#clippath-2);
      }

      .cls-16 {
        clip-path: url(#clippath-7);
      }

      .cls-17 {
        clip-path: url(#clippath-8);
      }

      .cls-18 {
        clip-path: url(#clippath-6);
      }

      .cls-19 {
        clip-path: url(#clippath-5);
      }

      .cls-20 {
        clip-path: url(#clippath-9);
      }

      .cls-21 {
        clip-path: url(#clippath-10);
      }

      .cls-22 {
        opacity: .36;
      }

      .cls-23 {
        opacity: .93;
      }

      .cls-24 {
        isolation: isolate;
        opacity: .5;
      }
    </style>
    <clipPath id="clippath">
      <rect class="cls-1" x="36.96" y="87.21" width="200" height="132.31" rx="6.15" ry="6.15"/>
    </clipPath>
    <clipPath id="clippath-1">
      <path class="cls-1" d="m36.96-62.12c0-3.73,0-5.6.73-7.03.64-1.25,1.66-2.27,2.91-2.91,1.43-.73,3.29-.73,7.03-.73h178.67c3.73,0,5.6,0,7.03.73,1.25.64,2.27,1.66,2.91,2.91.73,1.43.73,3.29.73,7.03v391.9H36.96V-62.12Z"/>
    </clipPath>
    <clipPath id="clippath-2">
      <rect class="cls-1" x="45.16" y="95.93" width="183.59" height="24.62" rx="6.67" ry="6.67"/>
    </clipPath>
    <clipPath id="clippath-3">
      <rect class="cls-1" x="45.16" y="128.75" width="183.59" height="49.49" rx="6.67" ry="6.67"/>
    </clipPath>
    <clipPath id="clippath-4">
      <rect class="cls-1" x="45.16" y="186.44" width="183.59" height="124.1" rx="6.67" ry="6.67"/>
    </clipPath>
    <clipPath id="clippath-5">
      <rect class="cls-1" x="18.56" y="117.64" width="236.81" height="40.82" rx="10.74" ry="10.74"/>
    </clipPath>
    <clipPath id="clippath-6">
      <rect class="cls-1" x="23.01" y="76.98" width="227.89" height="150.76" rx="7.01" ry="7.01"/>
    </clipPath>
    <clipPath id="clippath-7">
      <path class="cls-1" d="m30.79-78.34c0-3.96,0-5.95.77-7.46.68-1.33,1.76-2.41,3.09-3.09,1.51-.77,3.5-.77,7.46-.77h189.68c3.96,0,5.95,0,7.46.77,1.33.68,2.41,1.76,3.09,3.09.77,1.51.77,3.5.77,7.46v416.06H30.79V-78.34Z"/>
    </clipPath>
    <clipPath id="clippath-8">
      <rect class="cls-1" x="39.51" y="89.45" width="194.91" height="26.13" rx="7.08" ry="7.08"/>
    </clipPath>
    <clipPath id="clippath-9">
      <rect class="cls-1" x="39.51" y="124.3" width="194.91" height="52.54" rx="7.08" ry="7.08"/>
    </clipPath>
    <clipPath id="clippath-10">
      <rect class="cls-1" x="39.51" y="185.55" width="194.91" height="131.75" rx="7.08" ry="7.08"/>
    </clipPath>
  </defs>
  <rect class="cls-11" x="0" width="280" height="251.84"/>
  <g>
    <g class="cls-2">
      <g class="cls-12">
        <g>
          <g class="cls-23">
            <path class="cls-7" d="m36.96-62.12c0-3.73,0-5.6.73-7.03.64-1.25,1.66-2.27,2.91-2.91,1.43-.73,3.29-.73,7.03-.73h178.67c3.73,0,5.6,0,7.03.73,1.25.64,2.27,1.66,2.91,2.91.73,1.43.73,3.29.73,7.03v391.9H36.96V-62.12Z"/>
          </g>
          <g class="cls-15">
            <g>
              <rect class="cls-6" x="45.16" y="95.93" width="183.59" height="24.62" rx="6.67" ry="6.67"/>
              <rect class="cls-6" x="45.16" y="95.93" width="183.59" height="24.62" rx="6.67" ry="6.67"/>
              <path d="m59.73,108.19v.49h-6.08v-.49h2.75v-.8h-1.94v-2.49h.59v.77h3.31v-.77h.59v2.49h-1.95v.8h2.75Zm-.75,1.15v2.07h-.59v-1.6h-4.06v-.47h4.66Zm-3.94-2.43h3.31v-.8h-3.31v.8Zm7.28-.38c0,1.18.78,2.39,1.73,2.85l-.36.47c-.74-.39-1.35-1.18-1.65-2.1-.3.99-.93,1.83-1.68,2.23l-.38-.47c.98-.48,1.75-1.77,1.76-2.98v-1.22h.58v1.22Zm2.93-1.8v2.71h1.12v.51h-1.12v3.46h-.59v-6.68h.59Z"/>
              <path d="m211.84,112.26c0,.89.44,1.34,1.32,1.34h4c.88,0,1.32-.45,1.32-1.34v-.79h.75c.88,0,1.32-.45,1.32-1.34v-3.46c0-.52-.11-.86-.43-1.18l-2.15-2.18c-.3-.31-.66-.43-1.12-.43h-1.63c-.88,0-1.32.45-1.32,1.34v.79h-.75c-.88,0-1.32.45-1.32,1.34v5.91Zm6.24-4.46l-2.35-2.39c-.32-.33-.59-.4-1.07-.4h-.07v-.77c0-.42.23-.66.67-.66h1.88v2.18c0,.49.24.73.73.73h1.99v3.64c0,.43-.23.66-.67.66h-.71v-1.85c0-.54-.06-.78-.4-1.13Zm-.32-2.15v-1.75l1.92,1.96h-1.72c-.15,0-.21-.06-.21-.21Zm-5.23,6.59v-5.89c0-.42.23-.66.67-.66h1.4v2.47c0,.54.27.8.8.8h2.41v3.28c0,.43-.23.66-.67.66h-3.94c-.44,0-.66-.24-.66-.66Zm2.95-3.92c-.17,0-.24-.07-.24-.24v-2.23l2.43,2.47h-2.19Z"/>
            </g>
          </g>
          <g class="cls-14">
            <g>
              <rect class="cls-6" x="45.16" y="128.75" width="183.59" height="49.49" rx="6.67" ry="6.67"/>
              <rect class="cls-6" x="45.16" y="128.75" width="183.59" height="24.62" rx="6.67" ry="6.67"/>
              <path d="m55.83,137.99c1.05,0,1.8.64,1.8,1.57,0,.84-.61,1.44-1.5,1.54v1.14c.66-.03,1.33-.09,1.97-.19l.05.44c-1.52.29-3.17.29-4.37.29l-.08-.5c.54,0,1.18,0,1.85-.02v-1.16c-.89-.11-1.51-.7-1.5-1.54,0-.93.75-1.56,1.8-1.57Zm0,.52c-.71,0-1.23.43-1.22,1.05,0,.62.51,1.06,1.22,1.05.71,0,1.22-.43,1.22-1.05s-.51-1.05-1.22-1.05Zm3.29-.95v6.69h-.59v-6.69h.59Zm7.07,3.97v.48h-2.79v2.23h-.58v-2.23h-2.75v-.48h6.11Zm-4.75-3.69v.92h3.37v-.92h.59v2.88h-4.54v-2.88h.59Zm0,2.4h3.37v-.99h-3.37v.99Zm12.92,2.62v.5h-6.11v-.5h6.11Zm-4.8-4.82v1.25h3.47v-1.25h.58v3.48h-4.64v-3.48h.59Zm0,3h3.47v-1.28h-3.47v1.28Zm10.29-3.49v2.66h1.12v.5h-1.12v3.54h-.59v-6.69h.59Zm-1.87.62v2.39h-2.43v1.56c1.24,0,2.1-.04,3.12-.23l.06.49c-1.05.2-1.95.24-3.23.25h-.53v-2.55h2.43v-1.41h-2.45v-.49h3.03Zm9.25,3.21v.5h-2.79v2.35h-.58v-2.35h-2.75v-.5h6.11Zm-3.07-3.56c1.4,0,2.35.56,2.35,1.47s-.95,1.45-2.35,1.45-2.35-.56-2.35-1.45.95-1.47,2.35-1.47Zm0,.48c-1.04,0-1.75.39-1.74.99,0,.59.7.98,1.74.98s1.75-.38,1.75-.98-.71-.99-1.75-.99Zm8.94-.75v6.69h-.59v-3.77h-1.46v-.49h1.46v-2.43h.59Zm-3.22,1.98c0,1.11.8,2.32,1.77,2.76l-.35.47c-.76-.37-1.41-1.18-1.71-2.11-.31.99-.97,1.84-1.73,2.25l-.36-.46c.97-.47,1.77-1.73,1.78-2.91v-.8h-1.53v-.49h3.65v.49h-1.53v.8Zm9.85-1.98v6.68h-.57v-6.68h.57Zm-1.34.14v6.2h-.56v-3.25h-.86c-.06,1.3-.62,2.11-1.44,2.11-.87,0-1.43-.9-1.43-2.32s.56-2.32,1.43-2.32c.81,0,1.36.78,1.43,2.04h.86v-2.46h.56Zm-2.86.98c-.54,0-.89.68-.88,1.77,0,1.08.34,1.77.88,1.76.54,0,.89-.68.89-1.76s-.35-1.77-.89-1.77Zm7.27.68c0,1.21.77,2.43,1.74,2.87l-.35.48c-.76-.39-1.39-1.19-1.68-2.14-.3,1-.92,1.86-1.68,2.26l-.38-.47c.98-.48,1.76-1.77,1.76-3v-1.22h.6v1.22Zm3.19-1.8v6.69h-.59v-3.93h-1.58v-.48h1.58v-2.28h.59Zm4.46.24c.59,0,1.08.22,1.39.58h1.71v-.82h.59v3.43h-.59v-.77h-1.69c-.31.38-.81.6-1.41.6-1.01,0-1.73-.62-1.73-1.52s.73-1.51,1.73-1.51Zm0,.49c-.68,0-1.17.42-1.17,1.02s.49,1.04,1.17,1.04c.66,0,1.16-.44,1.16-1.04s-.5-1.03-1.16-1.02Zm3.69,3.04v1.6h-3.73v.74h3.98v.47h-4.57v-1.67h3.73v-.68h-3.74v-.47h4.33Zm-2.03-2.48c.04.14.07.3.07.46s-.03.3-.07.44h1.44v-.9h-1.44Zm8.46-1.29v6.68h-.59v-6.68h.59Zm-1.98.73c0,1.92-.9,3.62-3.14,4.69l-.32-.48c1.81-.86,2.73-2.14,2.86-3.73h-2.55v-.48h3.16Z"/>
              <g class="cls-24">
                <g class="cls-22">
                  <rect class="cls-10" x="45.16" y="153.36" width="183.59" height=".26"/>
                </g>
              </g>
              <rect class="cls-6" x="45.16" y="153.62" width="183.59" height="24.62" rx="6.67" ry="6.67"/>
              <path d="m55.64,164.31c0,1.1.53,2.23,1.42,2.71l-.35.47c-.65-.37-1.11-1.05-1.34-1.86-.25.87-.75,1.62-1.41,2.02l-.38-.44c.93-.53,1.5-1.73,1.5-2.87v-1.29h.57v1.25Zm3.73-1.89v6.68h-.57v-3.5h-.92v3.16h-.57v-6.2h.57v2.55h.92v-2.69h.57Zm6.83,5.36v.5h-6.11v-.5h2.75v-1.26h-1.98v-2.06h4v-1.05h-4.01v-.49h4.59v2.02h-3.99v1.09h4.15v.49h-2.17v1.26h2.79Zm5.68-4.68v.67c0,.82,0,1.74-.25,3.08l-.6-.07c.26-1.28.26-2.22.26-3.01v-.18h-4.12v-.49h4.71Zm.73,4.57v.49h-6.08v-.49h2.39v-2.39h.58v2.39h3.12Zm2.78-3.88c0,.85.73,1.6,1.73,1.89l-.28.47c-.79-.24-1.42-.75-1.73-1.42-.3.73-.93,1.3-1.73,1.56l-.29-.46c.99-.32,1.71-1.13,1.71-2.04v-.09h-1.54v-.47h1.54v-.83h.59v.83h1.52v.47h-1.53v.09Zm3.09-1.35v3.96h-.59v-3.96h.59Zm0,4.3v2.28h-4.34v-2.28h4.34Zm-3.76.48v1.32h3.19v-1.32h-3.19Z"/>
              <path class="cls-9" d="m216.2,170.27c-1.21,0-2.4-.51-3.23-1.46-.16-.19-.15-.47.04-.63.19-.16.47-.15.63.04.95,1.08,2.48,1.45,3.82.91,1.74-.7,2.59-2.68,1.89-4.42-.7-1.74-2.68-2.59-4.42-1.89-.76.3-1.37.86-1.74,1.57l.66-.26c.23-.09.49.02.58.25.09.23-.02.49-.25.59l-1.59.64c-.11.04-.23.04-.34,0-.11-.05-.2-.14-.24-.25l-.64-1.59c-.09-.22,0-.47.22-.57.21-.1.47-.03.59.18l.28.48c.48-.84,1.22-1.5,2.14-1.86,2.2-.88,4.71.19,5.59,2.39.88,2.2-.19,4.71-2.39,5.59-.52.21-1.06.31-1.59.31Z"/>
              <path class="cls-8" d="m216.28,134.15c-3.54,0-6.43,2.89-6.43,6.43,0,.31.02.61.06.9h0s0,0,0,0c.44,3.11,3.13,5.52,6.36,5.52,3.54,0,6.43-2.89,6.43-6.43s-2.89-6.43-6.43-6.43Zm5.85,6.14l-.68.04v-.16s.67-.04.67-.04v.16Zm-.08-.73l-.67.13-.03-.16.67-.13.03.16Zm-.17-.72l-.65.21-.05-.16.65-.21.05.16Zm-.26-.69l-.61.29-.07-.15.61-.29.07.15Zm-.35-.65l-.57.36-.09-.14.57-.36.09.14Zm-.42-.6l-.52.43-.1-.13.52-.43.1.13Zm-1.19-1.12l.13.1-.4.55-.13-.1.4-.55Zm-.63-.39l.14.08-.33.6-.14-.08.33-.6Zm-.67-.3l.15.06-.25.63-.15-.06.25-.63Zm-.7-.22l.16.04-.17.66-.16-.04.17-.66Zm-.72-.13l.16.02-.09.67-.16-.02.09-.67Zm-.74-.04h.16v.68h-.16v-.68Zm4.02,1.92c.07.07-3.31,4.25-3.31,4.25l-1.06-1.07s4.31-3.25,4.38-3.18Zm-4.6-1.88l.09.67-.16.02-.09-.67.16-.02Zm-.72.13l.17.66-.16.04-.17-.66.16-.04Zm-.7.22l.25.63-.15.06-.25-.63.15-.06Zm-.67.3l.33.6-.14.08-.33-.6.14-.08Zm-.63.39l.4.55-.13.1-.4-.55.13-.1Zm-.57.46l.46.5-.12.11-.46-.5.12-.11Zm-.51.53l.52.43-.1.13-.52-.43.1-.13Zm-.44.59l.57.36-.09.14-.57-.36.09-.14Zm-.36.64l.61.29-.07.15-.61-.29.07-.15Zm-.28.68l.65.21-.05.16-.65-.21.05-.16Zm-.19.71l.67.13-.03.16-.67-.13.03-.16Zm-.1.73l.68.04v.16s-.69-.04-.69-.04v-.16Zm-.01.74l.68-.04v.16s-.67.04-.67.04v-.16Zm.08.73l.67-.13.03.16-.67.13-.03-.16Zm.17.72l.65-.21.05.16-.65.21-.05-.16Zm.26.69l.61-.29.07.15-.61.29-.07-.15Zm.43.79l-.09-.14.57-.36.09.14-.57.36Zm.34.46l.52-.43.1.13-.52.43-.1-.13Zm1.19,1.12l-.13-.1.4-.55.13.1-.4.55Zm.63.39l-.14-.08.33-.6.14.08-.33.6Zm.67.3l-.15-.06.25-.63.15.06-.25.63Zm.7.22l-.16-.04.17-.66.16.04-.17.66Zm.73.13l-.16-.02.09-.67.16.02-.09.67Zm.74.04h-.16v-.68h.16v.68Zm-4.03-1.92c-.07-.07,3.25-4.45,3.25-4.45l1.08,1.09s-4.29,3.41-4.33,3.37Zm4.6,1.88l-.09-.67.16-.02.09.67-.16.02Zm.72-.13l-.17-.66.16-.04.17.66-.16.04Zm.7-.22l-.25-.63.15-.06.25.63-.15.06Zm.67-.3l-.33-.6.14-.08.33.6-.14.08Zm.63-.39l-.4-.55.13-.1.4.55-.13.1Zm.57-.46l-.46-.5.12-.11.46.5-.12.11Zm.51-.53l-.52-.43.1-.13.52.43-.1.13Zm.44-.59l-.57-.36.09-.14.57.36-.09.14Zm.36-.64l-.61-.29.07-.15.61.29-.07.15Zm.28-.68l-.65-.21.05-.16.65.21-.05.16Zm.19-.71l-.67-.13.03-.16.67.13-.03.16Zm-.58-.77v-.16s.69.04.69.04v.16s-.69-.04-.69-.04Z"/>
            </g>
          </g>
          <g class="cls-13">
            <g>
              <rect class="cls-6" x="45.16" y="186.44" width="183.59" height="124.1" rx="6.67" ry="6.67"/>
              <rect class="cls-6" x="45.16" y="186.44" width="183.59" height="24.62" rx="6.67" ry="6.67"/>
              <path d="m59.15,195.24v3.56h-.58v-3.56h.58Zm-2.44,3.85v1.54h-1.64v.74c.86,0,1.42-.02,2.1-.14l.06.45c-.76.14-1.35.15-2.33.15h-.41v-1.64h1.64v-.65h-1.65v-.46h2.22Zm2.44,0v2.78h-.58v-2.29h-1.56v-.49h2.14Zm-3.61-3.54c1,0,1.73.62,1.73,1.49s-.73,1.5-1.73,1.5-1.74-.62-1.74-1.5.72-1.49,1.74-1.49Zm0,.5c-.67,0-1.16.41-1.16,1,0,.59.49,1.01,1.16,1.01s1.16-.42,1.16-1.01-.5-1.01-1.16-1Zm10.07-.8v6.68h-.59v-6.68h.59Zm-1.98.73c0,1.92-.9,3.62-3.14,4.69l-.32-.48c1.81-.86,2.73-2.14,2.86-3.73h-2.55v-.48h3.16Zm9.93-.44v2.25h-1.98v.86h2.75v.48h-6.08v-.48h2.75v-.86h-1.96v-2.25h4.52Zm-3.94.47v1.31h3.36v-1.31h-3.36Zm3.97,3.82v2.1h-.59v-1.63h-4.06v-.47h4.66Zm7.21-.89v.49h-6.11v-.49h2.76v-.71h-1.97v-1.63h3.94v-.69h-3.96v-.48h4.55v1.61h-3.94v.71h4.09v.47h-2.13v.71h2.77Zm-.75,1v1.94h-.59v-1.46h-4.09v-.48h4.68Zm6.81-4.68v6.68h-.57v-6.68h.57Zm-1.34.14v6.2h-.56v-3.25h-.86c-.06,1.3-.62,2.11-1.44,2.11-.87,0-1.43-.9-1.43-2.32s.56-2.32,1.43-2.32c.81,0,1.36.78,1.43,2.04h.86v-2.46h.56Zm-2.86.98c-.54,0-.89.68-.88,1.77,0,1.08.34,1.77.88,1.76.54,0,.89-.68.89-1.76s-.35-1.77-.89-1.77Zm12.73,2.92v.5h-2.76v2.16h-.58v-2.16h-2.75v-.5h6.08Zm-2.75-2.72c0,.83,1.16,1.56,2.36,1.73l-.22.47c-1.03-.16-2.01-.68-2.43-1.4-.43.74-1.42,1.25-2.45,1.4l-.22-.47c1.19-.17,2.37-.89,2.37-1.73h0s-2.16,0-2.16,0v-.48h2.16v-.83h.58v.83h2.17v.48h-2.16Zm8.27-1.32v2.72h1.08v.5h-1.08v3.46h-.59v-6.68h.59Zm-1.73.72c0,1.89-.89,3.61-3.07,4.69l-.33-.47c1.73-.86,2.67-2.14,2.8-3.73h-2.49v-.5h3.09Z"/>
              <path d="m213.14,201.12c1.3,0,2.35-1.06,2.37-2.33.18-.07.38-.09.54-.09s.36.03.54.09c.02,1.29,1.06,2.33,2.37,2.33,1.23,0,2.23-.93,2.36-2.12h.5c.2,0,.27-.11.27-.27v-.16c0-.16-.08-.27-.27-.27h-.54c-.21-1.08-1.17-1.91-2.32-1.91s-2.04.76-2.29,1.79c-.2-.08-.43-.1-.62-.1s-.42.03-.61.1c-.26-1.03-1.19-1.79-2.29-1.79s-2.11.83-2.33,1.91h-.54c-.19,0-.27.11-.27.27v.16c0,.16.08.27.27.27h.51c.12,1.19,1.13,2.12,2.36,2.12Zm0-.64c-.95,0-1.73-.77-1.73-1.73s.77-1.73,1.73-1.73,1.73.77,1.73,1.73-.77,1.73-1.73,1.73Zm5.82,0c-.96,0-1.73-.77-1.73-1.73s.77-1.73,1.73-1.73,1.73.77,1.73,1.73-.77,1.73-1.73,1.73Z"/>
              <g class="cls-24">
                <g class="cls-22">
                  <rect class="cls-10" x="45.16" y="211.06" width="183.59" height=".26"/>
                </g>
              </g>
              <rect class="cls-6" x="45.16" y="211.31" width="183.59" height="24.62" rx="6.67" ry="6.67"/>
            </g>
          </g>
        </g>
      </g>
    </g>
    <g>
      <g>
        <rect class="cls-4" x="38.11" y="37.17" width="43.12" height="16.25" rx="2.41" ry="2.41"/>
        <g>
          <path class="cls-11" d="m46.84,49.38c-.58.17-1.3.14-2.12.01-.57-.11-1.22-.4-1.79-.79l.77-1.5c.71.37,1.39.65,2.02.74.41.09.5-.41.13-.56-.47-.23-1.1-.35-1.86-.81-.73-.44-1.09-1.34-.71-2.22.28-.73.95-1.2,2.17-1.24.98-.03,1.82.25,2.64.89l-.99,1.38c-.6-.37-1.08-.53-1.54-.56-.25-.03-.4.4-.13.54.45.25,1.1.39,1.72.71.81.42,1.2,1.07,1.08,1.91-.1.83-.62,1.29-1.38,1.51Z"/>
          <path class="cls-11" d="m51.46,46.74c0,.46.05.68.3.77.17.06.31.04.66-.08l.32,1.68c-.57.26-1.5.36-2.15.11-.76-.31-1.03-.98-1.03-2.13v-2.15h-.99v-1.72h.99v-2.11h1.9v2.11h1.23v1.72h-1.23v1.79Z"/>
          <path class="cls-11" d="m53.16,46.29c0-2.02,1.23-3.28,3.01-3.28s2.88,1.34,2.88,3.3l-.04.61h-3.97c.04.56.58.87,1.21.87.57,0,.97-.23,1.32-.66l1.24,1.08c-.65.89-1.53,1.3-2.64,1.3-1.77,0-3.05-1.23-3.01-3.21Zm4.04-.85c-.08-.51-.52-.75-1.01-.75-.55,0-.97.28-1.03.75h2.05Z"/>
          <path class="cls-11" d="m63.25,49.37c-.63,0-1.22-.24-1.57-.63v1.91h-1.89v-7.43h1.89v.54c.32-.35.9-.62,1.63-.64,1.61-.04,2.79,1.1,2.82,3.17.03,2.13-1.24,3.07-2.87,3.07Zm-.32-1.68c.67.03,1.34-.33,1.34-1.44,0-1.01-.65-1.43-1.25-1.43-.74,0-1.28.63-1.28,1.61,0,.64.51,1.22,1.19,1.27Z"/>
          <path class="cls-11" d="m69.07,49.49h-2.17v-1.99h2.17v1.99Z"/>
          <path class="cls-11" d="m70.56,49.29v-1.35c1.12-1.02,1.72-1.56,2.6-2.54.71-.8,1.01-1.38.97-1.79-.03-.47-.46-.76-.83-.74-.47.02-.88.45-.94,1.21l-1.9-.33c.22-1.64,1.14-2.72,2.76-2.76,1.2-.04,2.24.6,2.65,1.5.33.69.23,1.93-.42,2.9-.55.83-.98,1.25-1.99,2.18h1.39c.58,0,1.09-.02,1.44-.1v1.68c-.45.1-1.38.14-1.85.14h-3.88Z"/>
        </g>
      </g>
      <g>
        <path class="cls-3" d="m94.91,41.1v.62c-.48.13-.74.5-.74,1.06h.63v1.28h-1.25v-1.21c0-.87.52-1.57,1.36-1.74Z"/>
        <path class="cls-3" d="m99.67,49.24c1.26,0,2.41-.11,3.08-.4v1.02c-.67.27-1.78.4-3.07.4h-3.85v-1.02h2.67v-1.91c-1.4-.23-2.35-1.33-2.35-2.83,0-1.68,1.21-2.87,2.9-2.87s2.9,1.19,2.9,2.87c0,1.5-.97,2.61-2.38,2.83v1.91h.09Zm-.62-2.86c1.11,0,1.84-.81,1.84-1.88s-.73-1.89-1.84-1.89-1.84.83-1.84,1.89.72,1.88,1.84,1.88Zm5.57-4.95v9.4h-1.09v-9.4h1.09Z"/>
        <path class="cls-3" d="m115.8,48.43h-4.14v2.62h-1.12v-2.62h-4.12v-1.01h9.38v1.01Zm-.66-2.01h-8.08v-4.82h1.08v1.32h5.92v-1.32h1.08v4.82Zm-1.08-.97v-1.56h-5.92v1.56h5.92Z"/>
        <path class="cls-3" d="m129.46,49.35v1.02h-9.38v-1.02h9.38Zm-.63-1.94h-8.14v-5.71h1.08v1.82h5.99v-1.82h1.08v5.71Zm-1.08-.98v-1.95h-5.99v1.95h5.99Z"/>
        <path class="cls-3" d="m134.83,49.26c.89,0,1.86-.17,2.43-.44v.99c-.57.29-1.55.45-2.45.45h-3.71v-4.82h4.1v-2.67h-4.13v-1h5.21v4.68h-4.11v2.82h2.65Zm5.66-2.98h-1.32v4.54h-1.09v-9.4h1.09v3.81h1.32v1.05Z"/>
        <path class="cls-3" d="m150.62,48.42h-4.15v2.63h-1.11v-2.63h-4.13v-1.01h9.38v1.01Zm-8.88-4.39c0-1.56,1.66-2.51,4.18-2.51s4.18.95,4.18,2.51-1.66,2.51-4.18,2.51-4.18-.95-4.18-2.51Zm1.13,0c0,.98,1.26,1.53,3.05,1.53s3.05-.55,3.05-1.53-1.26-1.53-3.05-1.53-3.05.55-3.05,1.53Z"/>
        <path class="cls-3" d="m155.42,45.7l3.06,3.85-.87.63-2.51-3.23c-.63,1.98-1.74,3.16-3.17,3.32v-1.08c1.66-.31,2.63-2.93,2.66-6.41h-2.44v-1h5.94v1h-2.4c-.01,1.08-.11,2.06-.27,2.93Zm5.25-4.27v9.4h-1.09v-4.85h-2.31v-1.02h2.31v-3.52h1.09Z"/>
        <path class="cls-3" d="m168.13,41.49h1.02v9.18h-1.02v-4.28h-1.24c-.07,2.78-.81,4-2.18,4s-2.19-1.33-2.19-4.37.77-4.37,2.19-4.37c1.31,0,2.06,1.13,2.17,3.7h1.25v-3.86Zm-2.28,4.53c0-2.31-.36-3.38-1.14-3.38s-1.16,1.07-1.16,3.38.37,3.38,1.16,3.38,1.14-1.07,1.14-3.38Zm5.58-4.59v9.4h-1.03v-9.4h1.03Z"/>
        <path class="cls-3" d="m176.64,45.2l2.94,4.49-.91.59-2.34-3.7c-.64,2.22-1.77,3.55-3.26,3.67v-1.11c1.8-.3,2.73-3.54,2.74-7.49l1.11.04c0,1.29-.1,2.45-.28,3.5Zm5.19-3.77v9.4h-1.09v-4.97h-2.42v-1.02h2.42v-3.4h1.09Z"/>
        <path class="cls-3" d="m189.66,45.91c-1.72,0-2.87-.91-2.87-2.19s1.16-2.19,2.87-2.19,2.86.91,2.86,2.19-1.14,2.19-2.86,2.19Zm6.06,3.94v.86h-8.12v-2.49h6.81v-.81h-6.83v-.86h7.91v2.49h-6.81v.81h7.04Zm-6.06-4.82c1.06,0,1.78-.52,1.78-1.31s-.73-1.31-1.78-1.31-1.79.52-1.79,1.31.74,1.31,1.79,1.31Zm4.74-.74v-1.19h-1.6l-.07-.9h1.66v-.77h1.09v4.6h-1.09v-.84h-1.66l.07-.9h1.6Z"/>
        <path class="cls-3" d="m197.67,49.21c2.56-.01,4.1-2,4.1-5.15v-1.29h-4.1v-1h5.21v2.27c0,3.76-2,6.21-5.21,6.21v-1.03Zm7.24-7.78h1.09v9.4h-1.09v-9.4Z"/>
        <path class="cls-3" d="m207.52,44.38v-.62c.48-.13.74-.5.74-1.06h-.63v-1.28h1.25v1.21c0,.87-.52,1.57-1.36,1.74Z"/>
        <path class="cls-3" d="m213.02,47.1v-1.02c1.76-.32,2.79-2.31,2.82-4.55l1.09.07c0,.84-.13,1.64-.4,2.35l2.92,2.33-.68.77-2.65-2.16c-.68,1.19-1.75,2.04-3.09,2.21Zm9.02,2.63v.98h-8.2v-2.99h1.11v2.01h7.08Zm-1.29-5.51h-2.27v-.99h2.27v-1.79h1.09v6.99h-1.09v-4.2Z"/>
        <path class="cls-3" d="m225.67,47.02h-1.8v-5.36h4.16v.91h-3.12v1.28h2.99v.89h-2.99v1.36h.86c1.04,0,1.95-.11,2.57-.34v.9c-.62.24-1.58.35-2.66.35Zm-1.35.94h8.29v2.87h-1.08v-1.95h-7.22v-.92Zm8.29-6.52v6.01h-1.03v-2.76h-1.53v2.66h-1.03v-5.85h1.03v2.19h1.53v-2.24h1.03Z"/>
        <path class="cls-3" d="m234.18,49.96c0-.45.35-.8.81-.8s.81.35.81.8-.35.81-.81.81-.81-.35-.81-.81Zm.12-8.17h1.4l-.29,6.37h-.84l-.27-6.37Z"/>
      </g>
    </g>
    <g>
      <g id="_Radial_Repeat_" data-name="&amp;lt;Radial Repeat&amp;gt;">
        <rect class="cls-4" x="256.01" y="117.26" width="5.42" height="1" transform="translate(-24.57 94.32) rotate(-19.74)"/>
      </g>
      <g id="_Radial_Repeat_-2" data-name="&amp;lt;Radial Repeat&amp;gt;">
        <rect class="cls-4" x="253.99" y="113.84" width="5.42" height="1" transform="translate(-11.59 197.95) rotate(-41.32)"/>
      </g>
      <g id="_Radial_Repeat_-3" data-name="&amp;lt;Radial Repeat&amp;gt;">
        <rect class="cls-4" x="250.86" y="111.41" width="5.42" height="1" transform="translate(38.54 286.79) rotate(-62.93)"/>
      </g>
    </g>
    <g class="cls-19">
      <g class="cls-18">
        <g class="cls-16">
          <g>
            <path class="cls-5" d="m24.47-78.34c0-3.96,0-5.95.82-7.46.72-1.33,1.87-2.41,3.28-3.09,1.6-.77,3.7-.77,7.9-.77h200.99c4.2,0,6.3,0,7.9.77,1.41.68,2.56,1.76,3.28,3.09.82,1.51.82,3.5.82,7.46v416.06H24.47V-78.34Z"/>
            <g class="cls-17">
              <g>
                <rect class="cls-6" x="39.51" y="89.45" width="194.91" height="26.13" rx="7.08" ry="7.08"/>
                <rect class="cls-6" x="39.51" y="89.45" width="194.91" height="26.13" rx="7.08" ry="7.08"/>
                <path d="m54.96,102.47v.52h-6.46v-.52h2.92v-.85h-2.06v-2.65h.62v.82h3.51v-.82h.62v2.65h-2.07v.85h2.92Zm-.8,1.22v2.2h-.63v-1.7h-4.31v-.5h4.94Zm-4.18-2.58h3.51v-.85h-3.51v.85Zm7.73-.41c0,1.25.83,2.54,1.83,3.03l-.38.5c-.78-.41-1.44-1.25-1.75-2.23-.32,1.05-.99,1.94-1.79,2.37l-.4-.5c1.04-.51,1.86-1.87,1.87-3.17v-1.29h.61v1.29Zm3.11-1.91v2.88h1.19v.54h-1.19v3.67h-.62v-7.09h.62Z"/>
                <path d="m216.46,106.79c0,.94.47,1.42,1.4,1.42h4.25c.94,0,1.4-.48,1.4-1.42v-.84h.79c.93,0,1.4-.48,1.4-1.42v-3.67c0-.56-.11-.91-.45-1.26l-2.28-2.32c-.32-.33-.7-.45-1.18-.45h-1.73c-.93,0-1.4.48-1.4,1.42v.84h-.79c-.93,0-1.4.47-1.4,1.42v6.28Zm6.62-4.73l-2.49-2.54c-.34-.35-.63-.43-1.13-.43h-.08v-.82c0-.45.24-.71.71-.71h2v2.32c0,.52.25.77.77.77h2.12v3.86c0,.45-.24.71-.71.71h-.75v-1.97c0-.58-.07-.83-.43-1.2Zm-.34-2.28v-1.85l2.04,2.08h-1.82c-.16,0-.22-.07-.22-.23Zm-5.55,7v-6.25c0-.44.24-.7.71-.7h1.48v2.62c0,.57.29.85.85.85h2.55v3.48c0,.45-.24.71-.71.71h-4.18c-.47,0-.71-.25-.71-.71Zm3.13-4.16c-.18,0-.25-.07-.25-.25v-2.37l2.58,2.63h-2.33Z"/>
              </g>
            </g>
            <g class="cls-20">
              <g>
                <rect class="cls-6" x="39.51" y="124.3" width="194.91" height="52.54" rx="7.08" ry="7.08"/>
                <rect class="cls-6" x="39.51" y="124.3" width="194.91" height="26.13" rx="7.08" ry="7.08"/>
                <path d="m50.82,134.1c1.12,0,1.91.68,1.91,1.67,0,.89-.65,1.53-1.6,1.63v1.21c.7-.04,1.42-.1,2.09-.2l.05.46c-1.62.3-3.37.31-4.64.31l-.09-.53c.58,0,1.25,0,1.96-.02v-1.24c-.95-.11-1.6-.74-1.6-1.63,0-.99.8-1.66,1.91-1.67Zm0,.55c-.76,0-1.31.45-1.3,1.12,0,.66.54,1.12,1.3,1.12.75,0,1.29-.45,1.29-1.12s-.54-1.12-1.29-1.12Zm3.49-1.01v7.11h-.62v-7.11h.62Zm7.51,4.21v.51h-2.96v2.37h-.61v-2.37h-2.92v-.51h6.49Zm-5.04-3.92v.98h3.57v-.98h.63v3.05h-4.82v-3.05h.62Zm0,2.54h3.57v-1.05h-3.57v1.05Zm13.71,2.78v.53h-6.49v-.53h6.49Zm-5.1-5.11v1.32h3.68v-1.32h.61v3.69h-4.93v-3.69h.63Zm0,3.19h3.68v-1.36h-3.68v1.36Zm10.93-3.7v2.82h1.19v.53h-1.19v3.76h-.62v-7.11h.62Zm-1.99.66v2.54h-2.58v1.66c1.32,0,2.23-.04,3.31-.25l.06.52c-1.12.21-2.07.26-3.43.26h-.57v-2.71h2.58v-1.5h-2.6v-.52h3.22Zm9.82,3.41v.53h-2.96v2.5h-.61v-2.5h-2.92v-.53h6.49Zm-3.26-3.78c1.49,0,2.5.6,2.5,1.56s-1,1.54-2.5,1.54-2.5-.6-2.5-1.54,1-1.56,2.5-1.56Zm0,.51c-1.11,0-1.86.41-1.85,1.05,0,.63.74,1.04,1.85,1.04s1.86-.41,1.86-1.04-.76-1.05-1.86-1.05Zm9.49-.8v7.11h-.63v-4h-1.55v-.52h1.55v-2.58h.63Zm-3.42,2.11c0,1.18.85,2.46,1.88,2.94l-.37.5c-.81-.39-1.49-1.25-1.81-2.24-.33,1.05-1.02,1.96-1.83,2.38l-.38-.49c1.03-.5,1.88-1.83,1.89-3.09v-.85h-1.62v-.52h3.88v.52h-1.63v.85Zm10.46-2.11v7.09h-.61v-7.09h.61Zm-1.43.15v6.58h-.6v-3.45h-.91c-.07,1.38-.65,2.24-1.53,2.24-.92,0-1.52-.96-1.52-2.46s.6-2.46,1.52-2.46c.86,0,1.44.83,1.52,2.17h.92v-2.62h.6Zm-3.04,1.04c-.57,0-.94.72-.93,1.87,0,1.15.36,1.87.93,1.87.57,0,.94-.72.94-1.87s-.37-1.87-.94-1.87Zm7.72.72c0,1.28.82,2.58,1.85,3.05l-.37.51c-.81-.41-1.47-1.26-1.79-2.27-.32,1.06-.98,1.97-1.79,2.4l-.41-.5c1.04-.51,1.87-1.87,1.87-3.18v-1.29h.64v1.29Zm3.38-1.91v7.11h-.62v-4.17h-1.68v-.51h1.68v-2.42h.62Zm4.74.26c.62,0,1.15.23,1.48.61h1.82v-.87h.62v3.64h-.62v-.81h-1.79c-.33.4-.87.64-1.5.64-1.07,0-1.84-.65-1.84-1.61s.77-1.6,1.84-1.6Zm0,.52c-.73,0-1.24.45-1.24,1.08s.52,1.1,1.24,1.11c.7,0,1.23-.46,1.23-1.11s-.53-1.09-1.23-1.08Zm3.92,3.23v1.7h-3.96v.79h4.23v.5h-4.85v-1.77h3.96v-.72h-3.97v-.5h4.59Zm-2.15-2.63c.04.15.07.31.07.49s-.03.32-.07.47h1.53v-.96h-1.53Zm8.98-1.37v7.09h-.63v-7.09h.63Zm-2.1.77c0,2.04-.96,3.84-3.33,4.98l-.34-.51c1.92-.91,2.89-2.27,3.04-3.96h-2.71v-.51h3.35Z"/>
                <g class="cls-24">
                  <g class="cls-22">
                    <rect class="cls-10" x="39.51" y="150.43" width="194.91" height=".27"/>
                  </g>
                </g>
                <rect class="cls-6" x="39.51" y="150.7" width="194.91" height="26.13" rx="7.08" ry="7.08"/>
                <path d="m50.63,162.05c0,1.16.57,2.37,1.51,2.88l-.37.49c-.69-.39-1.18-1.12-1.43-1.97-.27.93-.79,1.72-1.5,2.15l-.41-.46c.99-.57,1.59-1.83,1.59-3.05v-1.37h.61v1.33Zm3.96-2v7.09h-.61v-3.72h-.97v3.36h-.61v-6.58h.61v2.7h.97v-2.86h.61Zm7.25,5.69v.53h-6.49v-.53h2.92v-1.34h-2.11v-2.18h4.24v-1.12h-4.26v-.52h4.87v2.15h-4.23v1.16h4.4v.52h-2.3v1.34h2.96Zm6.03-4.97v.71c0,.87,0,1.84-.26,3.27l-.64-.07c.27-1.36.27-2.35.27-3.2v-.19h-4.37v-.52h5Zm.77,4.85v.52h-6.46v-.52h2.54v-2.54h.61v2.54h3.31Zm2.95-4.12c0,.9.77,1.7,1.83,2l-.3.49c-.84-.25-1.51-.8-1.83-1.51-.32.78-.99,1.38-1.83,1.66l-.3-.49c1.05-.34,1.81-1.2,1.81-2.16v-.1h-1.63v-.5h1.63v-.88h.63v.88h1.62v.5h-1.63v.1Zm3.28-1.44v4.2h-.62v-4.2h.62Zm0,4.56v2.42h-4.61v-2.42h4.61Zm-4,.51v1.4h3.38v-1.4h-3.38Z"/>
                <path class="cls-9" d="m221.09,168.34c-1.28,0-2.53-.54-3.41-1.54-.16-.19-.15-.47.04-.63.19-.16.47-.15.63.04,1.02,1.15,2.66,1.54,4.08.97.9-.36,1.61-1.05,1.99-1.94s.39-1.88.03-2.78c-.36-.9-1.05-1.61-1.94-1.99-.89-.38-1.88-.39-2.78-.03-.83.33-1.5.96-1.9,1.75l.77-.31c.23-.09.49.02.58.25.09.23-.02.49-.25.58l-1.69.67c-.23.09-.49-.02-.58-.25l-.67-1.69c-.09-.22,0-.47.22-.57.21-.1.47-.03.59.18l.32.55c.5-.9,1.3-1.62,2.28-2.01,1.12-.45,2.36-.44,3.47.04,1.11.48,1.97,1.36,2.42,2.48.45,1.12.44,2.36-.04,3.47s-1.36,1.97-2.48,2.42c-.54.22-1.12.32-1.68.32Z"/>
                <path class="cls-8" d="m221.17,130.03c-3.76,0-6.82,3.06-6.82,6.82,0,.33.02.65.07.96h0s0,0,0,0c.47,3.31,3.32,5.86,6.76,5.86,3.76,0,6.82-3.06,6.82-6.82s-3.06-6.82-6.82-6.82Zm6.22,6.52l-.72.05v-.17s.71-.05.71-.05v.17Zm-.09-.78l-.71.14-.03-.17.71-.14.03.17Zm-.18-.76l-.69.22-.05-.16.69-.22.05.16Zm-.28-.73l-.65.31-.07-.16.65-.31.07.16Zm-.37-.69l-.61.39-.09-.15.61-.39.09.15Zm-.45-.64l-.56.46-.11-.13.56-.46.11.13Zm-1.26-1.19l.14.1-.42.58-.14-.1.42-.58Zm-.67-.41l.15.08-.35.63-.15-.08.35-.63Zm-.71-.32l.16.06-.27.67-.16-.06.27-.67Zm-.75-.23l.17.04-.18.7-.17-.04.18-.7Zm-.77-.14l.17.02-.09.72-.17-.02.09-.72Zm-.78-.04h.17v.72h-.17v-.72Zm4.27,2.04c.07.07-3.52,4.51-3.52,4.51l-1.13-1.13s4.57-3.46,4.65-3.38Zm-4.88-2l.09.72-.17.02-.09-.72.17-.02Zm-.77.14l.18.7-.17.04-.18-.7.17-.04Zm-.75.23l.27.67-.16.06-.27-.67.16-.06Zm-.71.32l.35.63-.15.08-.35-.63.15-.08Zm-.67.41l.42.58-.14.1-.42-.58.14-.1Zm-.61.49l.49.53-.13.12-.49-.53.13-.12Zm-.54.56l.56.46-.11.13-.56-.46.11-.13Zm-.47.63l.61.39-.09.15-.61-.39.09-.15Zm-.39.68l.65.31-.07.16-.65-.31.07-.16Zm-.3.72l.69.22-.05.16-.69-.22.05-.16Zm-.2.75l.71.14-.03.17-.71-.14.03-.17Zm-.11.77l.72.05v.17s-.73-.05-.73-.05v-.17Zm-.01.78l.72-.05v.17s-.71.05-.71.05v-.17Zm.09.78l.71-.14.03.17-.71.14-.03-.17Zm.18.76l.69-.22.05.16-.69.22-.05-.16Zm.28.73l.65-.31.07.16-.65.31-.07-.16Zm.46.84l-.09-.15.61-.39.09.15-.61.39Zm.36.49l.56-.46.11.13-.56.46-.11-.13Zm1.26,1.19l-.14-.1.42-.58.14.1-.42.58Zm.67.41l-.15-.08.35-.63.15.08-.35.63Zm.71.32l-.16-.06.27-.67.16.06-.27.67Zm.75.23l-.17-.04.18-.7.17.04-.18.7Zm.77.14l-.17-.02.09-.72.17.02-.09.72Zm.78.04h-.17v-.72h.17v.72Zm-4.28-2.04c-.07-.07,3.45-4.73,3.45-4.73l1.15,1.15s-4.55,3.62-4.59,3.57Zm4.88,2l-.09-.72.17-.02.09.72-.17.02Zm.77-.14l-.18-.7.17-.04.18.7-.17.04Zm.75-.23l-.27-.67.16-.06.27.67-.16.06Zm.71-.32l-.35-.63.15-.08.35.63-.15.08Zm.67-.41l-.42-.58.14-.1.42.58-.14.1Zm.61-.49l-.49-.53.13-.12.49.53-.13.12Zm.54-.56l-.56-.46.11-.13.56.46-.11.13Zm.47-.63l-.61-.39.09-.15.61.39-.09.15Zm.39-.68l-.65-.31.07-.16.65.31-.07.16Zm.3-.72l-.69-.22.05-.16.69.22-.05.16Zm.2-.75l-.71-.14.03-.17.71.14-.03.17Zm-.61-.82v-.17s.73.05.73.05v.17s-.73-.05-.73-.05Z"/>
              </g>
            </g>
            <g class="cls-21">
              <g>
                <rect class="cls-6" x="39.51" y="185.55" width="194.91" height="131.75" rx="7.08" ry="7.08"/>
                <rect class="cls-6" x="39.51" y="185.55" width="194.91" height="26.13" rx="7.08" ry="7.08"/>
                <path d="m54.35,194.89v3.78h-.61v-3.78h.61Zm-2.59,4.08v1.63h-1.74v.79c.92,0,1.5-.02,2.23-.15l.06.48c-.81.15-1.44.16-2.47.16h-.43v-1.74h1.74v-.69h-1.75v-.49h2.35Zm2.59,0v2.95h-.61v-2.43h-1.66v-.52h2.27Zm-3.84-3.76c1.06,0,1.83.65,1.83,1.59s-.77,1.59-1.83,1.59-1.84-.65-1.84-1.59.77-1.59,1.84-1.59Zm0,.53c-.71,0-1.24.44-1.23,1.06,0,.63.52,1.08,1.23,1.08s1.23-.45,1.23-1.08-.53-1.07-1.23-1.06Zm10.69-.85v7.09h-.63v-7.09h.63Zm-2.1.77c0,2.04-.96,3.84-3.33,4.98l-.34-.51c1.92-.91,2.89-2.27,3.04-3.96h-2.71v-.51h3.35Zm10.54-.47v2.39h-2.1v.91h2.92v.51h-6.46v-.51h2.92v-.91h-2.08v-2.39h4.8Zm-4.19.5v1.39h3.56v-1.39h-3.56Zm4.21,4.05v2.23h-.63v-1.73h-4.31v-.5h4.94Zm7.66-.95v.52h-6.49v-.52h2.93v-.75h-2.09v-1.73h4.18v-.73h-4.2v-.51h4.83v1.71h-4.19v.76h4.34v.5h-2.26v.75h2.94Zm-.8,1.06v2.06h-.63v-1.55h-4.34v-.51h4.97Zm7.23-4.97v7.09h-.61v-7.09h.61Zm-1.43.15v6.58h-.6v-3.45h-.91c-.07,1.38-.65,2.24-1.53,2.24-.93,0-1.52-.96-1.52-2.46s.6-2.46,1.52-2.46c.86,0,1.44.83,1.52,2.17h.92v-2.62h.6Zm-3.04,1.04c-.57,0-.94.72-.93,1.87,0,1.15.36,1.87.93,1.87.57,0,.94-.72.94-1.87s-.37-1.87-.94-1.87Zm13.51,3.1v.53h-2.93v2.29h-.61v-2.29h-2.92v-.53h6.46Zm-2.92-2.89c0,.89,1.24,1.66,2.5,1.83l-.23.5c-1.1-.17-2.13-.72-2.58-1.49-.45.78-1.5,1.32-2.6,1.49l-.23-.5c1.26-.18,2.51-.94,2.51-1.83h0s-2.29,0-2.29,0v-.51h2.29v-.89h.61v.89h2.31v.51h-2.3Zm8.78-1.4v2.89h1.15v.53h-1.15v3.68h-.62v-7.09h.62Zm-1.83.77c0,2.01-.94,3.84-3.25,4.98l-.35-.49c1.83-.91,2.83-2.28,2.97-3.96h-2.65v-.53h3.28Z"/>
                <path d="m217.83,201.12c1.38,0,2.49-1.12,2.51-2.47.19-.07.4-.1.57-.1s.38.03.58.1c.02,1.36,1.13,2.47,2.51,2.47,1.3,0,2.37-.99,2.5-2.25h.53c.21,0,.29-.12.29-.29v-.17c0-.17-.08-.29-.29-.29h-.57c-.23-1.15-1.25-2.02-2.47-2.02s-2.16.81-2.44,1.9c-.21-.08-.46-.11-.66-.11s-.44.03-.65.11c-.28-1.09-1.27-1.9-2.44-1.9s-2.24.88-2.47,2.02h-.57c-.2,0-.28.12-.28.29v.17c0,.17.08.29.28.29h.54c.13,1.26,1.2,2.25,2.5,2.25Zm0-.68c-1.01,0-1.83-.82-1.83-1.83s.82-1.83,1.83-1.83,1.84.82,1.84,1.83-.81,1.83-1.84,1.83Zm6.18,0c-1.02,0-1.83-.82-1.83-1.83s.81-1.83,1.83-1.83,1.83.82,1.83,1.83-.82,1.83-1.83,1.83Z"/>
                <g class="cls-24">
                  <g class="cls-22">
                    <rect class="cls-10" x="39.51" y="211.68" width="194.91" height=".27"/>
                  </g>
                </g>
                <rect class="cls-6" x="39.51" y="211.95" width="194.91" height="26.13" rx="7.08" ry="7.08"/>
              </g>
            </g>
          </g>
        </g>
      </g>
    </g>
    <path class="cls-4" d="m244.89,158.95H29.03c-3.59,0-6.52-2.92-6.52-6.52v-28.78c0-3.59,2.92-6.52,6.52-6.52h215.86c3.59,0,6.52,2.92,6.52,6.52v28.78c0,3.59-2.92,6.52-6.52,6.52ZM29.03,118.14c-3.04,0-5.52,2.48-5.52,5.52v28.78c0,3.04,2.48,5.52,5.52,5.52h215.86c3.04,0,5.52-2.48,5.52-5.52v-28.78c0-3.04-2.48-5.52-5.52-5.52H29.03Z"/>
  </g>
</svg>