<svg width="14" height="15" viewBox="0 0 14 15" fill="none" xmlns="http://www.w3.org/2000/svg">
<path fill-rule="evenodd" clip-rule="evenodd" d="M7.74769 0.228801C7.70082 0.167506 7.64177 0.116057 7.57407 0.077525C7.50637 0.0389931 7.43141 0.014169 7.35366 0.0045347C7.27591 -0.00509958 7.19697 0.0006536 7.12155 0.0214508C7.04613 0.042248 6.97578 0.0776628 6.91469 0.12558C5.42412 1.29332 4.44091 2.96767 4.16214 4.81301C3.65128 4.45151 3.20349 4.01199 2.83603 3.51137C2.78612 3.44329 2.72144 3.38679 2.64659 3.3459C2.57175 3.305 2.48858 3.28072 2.40302 3.27477C2.31746 3.26883 2.2316 3.28138 2.15158 3.31151C2.07155 3.34165 1.99932 3.38864 1.94003 3.44913C0.912836 4.4977 0.25439 5.83815 0.060072 7.2763C-0.134246 8.71445 0.145654 10.1756 0.859228 11.4482C1.5728 12.7207 2.68299 13.7385 4.02899 14.3542C5.37498 14.9699 6.88689 15.1514 8.34569 14.8726C9.80449 14.5937 11.1344 13.8689 12.1429 12.8032C13.1513 11.7374 13.7859 10.386 13.9547 8.94483C14.1235 7.50361 13.8177 6.04738 13.0817 4.78708C12.3457 3.52677 11.2176 2.52784 9.86091 1.93498C9.0269 1.53923 8.30225 0.954154 7.74769 0.228801ZM9.91535 9.30919C9.91506 9.72088 9.82325 10.1276 9.64625 10.5013C9.46925 10.875 9.21127 11.2068 8.89012 11.4738C8.56896 11.7408 8.19228 11.9366 7.78605 12.0477C7.37982 12.1589 6.95372 12.1827 6.53715 12.1175C6.12058 12.0524 5.72344 11.8998 5.37315 11.6704C5.02286 11.4409 4.72775 11.14 4.50817 10.7885C4.2886 10.437 4.1498 10.0431 4.10134 9.63415C4.05287 9.22519 4.09591 8.81083 4.22747 8.41967C4.71592 8.77259 5.27747 9.03444 5.88647 9.17864C6.05158 8.13957 6.58069 7.18847 7.38369 6.48731C8.08447 6.57838 8.72751 6.91472 9.19319 7.43379C9.65888 7.95286 9.91551 8.61931 9.91535 9.30919Z" fill="black"/>
</svg>