<svg width="19" height="19" viewBox="0 0 19 19" fill="none" xmlns="http://www.w3.org/2000/svg">
<path d="M18 18L13.697 13.697M13.697 13.697C14.3876 13.0063 14.9355 12.1864 15.3093 11.284C15.683 10.3816 15.8754 9.41445 15.8754 8.43771C15.8754 7.46098 15.683 6.49381 15.3093 5.59142C14.9355 4.68904 14.3876 3.86911 13.697 3.17846C13.0063 2.4878 12.1864 1.93994 11.284 1.56616C10.3816 1.19238 9.41445 1 8.43771 1C7.46098 1 6.49381 1.19238 5.59142 1.56616C4.68904 1.93994 3.86911 2.4878 3.17846 3.17846C1.78361 4.5733 1 6.46511 1 8.43771C1 10.4103 1.78361 12.3021 3.17846 13.697C4.5733 15.0918 6.46511 15.8754 8.43771 15.8754C10.4103 15.8754 12.3021 15.0918 13.697 13.697Z" stroke="black" stroke-width="2" stroke-linecap="round" stroke-linejoin="round"/>
</svg>
