<svg width="16" height="15" viewBox="0 0 16 15" fill="none" xmlns="http://www.w3.org/2000/svg">
<mask id="path-1-inside-1_1934_694" fill="white">
<path d="M7.81513 14.7673C7.57381 14.7669 7.33817 14.6923 7.13885 14.5531C4.18617 12.5014 2.90764 11.0947 2.20244 10.2152C0.699606 8.34042 -0.019871 6.41568 0.000417194 4.33134C0.0240868 1.94282 1.89623 0 4.17377 0C5.82989 0 6.97692 0.954872 7.64493 1.75015C7.66609 1.77509 7.69224 1.79509 7.7216 1.80879C7.75096 1.8225 7.78286 1.82959 7.81513 1.82959C7.8474 1.82959 7.87929 1.8225 7.90865 1.80879C7.93802 1.79509 7.96416 1.77509 7.98532 1.75015C8.65333 0.954103 9.80036 0 11.4565 0C13.734 0 15.6062 1.94282 15.6298 4.33173C15.6501 6.41645 14.9299 8.34119 13.4278 10.2156C12.7226 11.0951 11.4441 12.5018 8.4914 14.5534C8.29204 14.6926 8.0564 14.7671 7.81513 14.7673Z"/>
</mask>
<path d="M7.81513 14.7673C7.57381 14.7669 7.33817 14.6923 7.13885 14.5531C4.18617 12.5014 2.90764 11.0947 2.20244 10.2152C0.699606 8.34042 -0.019871 6.41568 0.000417194 4.33134C0.0240868 1.94282 1.89623 0 4.17377 0C5.82989 0 6.97692 0.954872 7.64493 1.75015C7.66609 1.77509 7.69224 1.79509 7.7216 1.80879C7.75096 1.8225 7.78286 1.82959 7.81513 1.82959C7.8474 1.82959 7.87929 1.8225 7.90865 1.80879C7.93802 1.79509 7.96416 1.77509 7.98532 1.75015C8.65333 0.954103 9.80036 0 11.4565 0C13.734 0 15.6062 1.94282 15.6298 4.33173C15.6501 6.41645 14.9299 8.34119 13.4278 10.2156C12.7226 11.0951 11.4441 12.5018 8.4914 14.5534C8.29204 14.6926 8.0564 14.7671 7.81513 14.7673Z" stroke="white" stroke-width="4" mask="url(#path-1-inside-1_1934_694)"/>
</svg>
