<svg width="43" height="43" viewBox="0 0 43 43" fill="none" xmlns="http://www.w3.org/2000/svg">
<path d="M0 0H43.1973V42.9662C41.5 34.0332 34 36 26.1976 36C15 36 7.19763 29.0332 7.19763 18C7.19763 9.5332 7 1.5332 0 0Z" fill="#2E2E2E"/>
<path d="M26 4.0332L28.69 8.87196L33.569 6.25565L33.2159 11.7806L38.7348 12.2174L35.4508 16.6744L39.8575 20.0256L34.6852 21.9996L36.5805 27.2013L31.162 26.0655L29.9443 31.4661L26 27.5812L22.0557 31.4661L20.838 26.0655L15.4195 27.2013L17.3148 21.9996L12.1425 20.0256L16.5492 16.6744L13.2652 12.2174L18.7841 11.7806L18.431 6.25565L23.31 8.87196L26 4.0332Z" fill="white"/>
<path d="M26.1909 23.127C24.2231 23.127 22.8267 22.0605 22.7886 20.5117H24.4517C24.5024 21.248 25.2388 21.7305 26.1909 21.7305C27.2065 21.7305 27.9302 21.1719 27.9302 20.3594C27.9302 19.5342 27.2192 18.9375 26.0259 18.9375H25.2007V17.668H26.0259C27.0034 17.668 27.689 17.1221 27.6763 16.3223C27.689 15.5479 27.105 15.0273 26.2036 15.0273C25.3403 15.0273 24.5913 15.5098 24.5659 16.2842H22.979C23.0171 14.7354 24.4136 13.6816 26.2163 13.6816C28.0825 13.6816 29.2886 14.8242 29.2759 16.2334C29.2886 17.2617 28.603 18.0107 27.6001 18.2139V18.29C28.895 18.4678 29.6313 19.293 29.6187 20.4482C29.6313 21.9971 28.1841 23.127 26.1909 23.127Z" fill="#2E2E2E"/>
</svg>
