<svg width="43" height="42" viewBox="0 0 43 42" fill="none" xmlns="http://www.w3.org/2000/svg">
<path d="M0 0H43.1973V41.9662C39.7733 37.3634 32.4541 36 25.1976 36C15.2565 36 7.19763 27.9411 7.19763 18C7.19763 10.7433 5.03483 3.42382 0 0Z" fill="white"/>
<circle cx="26.1973" cy="18" r="12" fill="#2E2E2E"/>
<path d="M26.2861 23.127C24.4961 23.1143 22.6934 22.0479 22.7061 18.6582C22.7061 15.5098 24.1406 13.6816 26.3877 13.6816C28.165 13.6816 29.3838 14.7988 29.5869 16.2842H27.9492C27.7842 15.5859 27.2256 15.1162 26.3877 15.1162C25.0547 15.1162 24.3057 16.2969 24.3057 18.2266H24.3945C24.8643 17.4395 25.7529 16.9697 26.7559 16.9697C28.4062 16.9697 29.6758 18.2139 29.6758 19.9531C29.6758 21.7812 28.3174 23.1396 26.2861 23.127ZM26.2861 21.7939C27.3145 21.7939 28.0762 20.9941 28.0762 19.9912C28.0762 19.0137 27.3271 18.2266 26.3115 18.2266C25.2832 18.2266 24.4961 19.0391 24.4834 20.0039C24.4961 20.9688 25.2451 21.7939 26.2861 21.7939Z" fill="white"/>
</svg>
