<svg width="43" height="42" viewBox="0 0 43 42" fill="none" xmlns="http://www.w3.org/2000/svg">
<path d="M0 0H43.1973V41.9662C39.7733 37.3634 32.4541 36 25.1976 36C15.2565 36 7.19763 27.9411 7.19763 18C7.19763 10.7433 5.03483 3.42382 0 0Z" fill="white"/>
<circle cx="26.1973" cy="18" r="12" fill="#2E2E2E"/>
<path d="M26.1973 23.127C24.1533 23.127 22.7061 22.0352 22.7061 20.5371C22.7061 19.3691 23.5693 18.417 24.6738 18.2393V18.1885C23.709 17.9854 23.0488 17.1475 23.0488 16.1445C23.0488 14.7227 24.3818 13.6816 26.1973 13.6816C28 13.6816 29.333 14.7227 29.333 16.1445C29.333 17.1475 28.6602 17.9854 27.708 18.1885V18.2393C28.8125 18.417 29.6885 19.3691 29.6885 20.5371C29.6885 22.0352 28.2285 23.127 26.1973 23.127ZM26.1973 21.8193C27.2764 21.8193 27.9873 21.2354 27.9873 20.3848C27.9873 19.5215 27.2256 18.8867 26.1973 18.8867C25.1562 18.8867 24.3945 19.5215 24.4072 20.3848C24.3945 21.2354 25.1055 21.8193 26.1973 21.8193ZM26.1973 17.6553C27.0859 17.6553 27.7207 17.0967 27.7207 16.2969C27.7207 15.5225 27.0986 14.9766 26.1973 14.9766C25.2832 14.9766 24.6611 15.5098 24.6611 16.2969C24.6611 17.0967 25.2959 17.6553 26.1973 17.6553Z" fill="white"/>
</svg>
