<svg width="33" height="33" viewBox="0 0 33 33" fill="none" xmlns="http://www.w3.org/2000/svg">
<circle cx="16.5" cy="16.5" r="16.5" fill="black"/>
<path d="M13.9392 19.6977L10.6254 16.3863C10.4469 16.2078 10.2047 16.1076 9.95215 16.1076C9.69962 16.1076 9.45744 16.2078 9.27888 16.3863C9.10032 16.5647 9 16.8067 9 17.0591C9 17.184 9.02463 17.3077 9.07248 17.4232C9.12033 17.5386 9.19046 17.6435 9.27888 17.7318L13.2708 21.7209C13.6432 22.093 14.2448 22.093 14.6173 21.7209L24.7211 11.6243C24.8997 11.4458 25 11.2038 25 10.9515C25 10.6991 24.8997 10.4571 24.7211 10.2787C24.5426 10.1002 24.3004 10 24.0479 10C23.7953 10 23.5531 10.1002 23.3746 10.2787L13.9392 19.6977Z" fill="white"/>
</svg>
