<svg width="44" height="44" viewBox="0 0 44 44" fill="none" xmlns="http://www.w3.org/2000/svg">
<path d="M37.4384 13.1168C37.0659 13.1168 36.7546 12.9917 36.5044 12.7416C36.2543 12.4897 36.1293 12.1783 36.1293 11.8075V7.87167H32.1939C31.8214 7.87167 31.5092 7.74572 31.2573 7.49383C31.0054 7.24193 30.8804 6.92969 30.8821 6.5571C30.8821 6.18451 31.0072 5.87314 31.2573 5.62299C31.5092 5.37285 31.8214 5.24778 32.1939 5.24778H36.1293V1.31194C36.1293 0.939352 36.2552 0.627984 36.5071 0.37784C36.7572 0.125947 37.0685 0 37.4411 0C37.8136 0 38.1249 0.125947 38.375 0.37784C38.6269 0.627984 38.7528 0.939352 38.7528 1.31194V5.24778H42.6882C43.059 5.24778 43.3703 5.37373 43.6222 5.62562C43.8741 5.87751 44 6.18888 44 6.55972C44 6.93232 43.8741 7.24368 43.6222 7.49383C43.3703 7.74572 43.059 7.87167 42.6882 7.87167H38.7528V11.8075C38.7528 12.1783 38.6269 12.4897 38.375 12.7416C38.1232 12.9935 37.811 13.1194 37.4384 13.1194M11.3076 34.8164H31.0841C31.4899 34.8164 31.7951 34.6266 31.9998 34.247C32.2027 33.8657 32.1799 33.4896 31.9315 33.1187L26.6319 26.0001C26.4045 25.7185 26.1221 25.5777 25.7845 25.5777C25.4487 25.5777 25.1653 25.7229 24.9345 26.0132L18.9239 33.6041L15.18 29.0779C14.9526 28.8295 14.6789 28.7053 14.3588 28.7053C14.0388 28.7053 13.7642 28.847 13.535 29.1304L10.5074 33.1187C10.2258 33.4896 10.1865 33.8657 10.3894 34.247C10.5923 34.6266 10.8983 34.8164 11.3076 34.8164ZM4.2397 44C3.07308 44 2.07525 43.5845 1.2462 42.7536C0.4154 41.9245 0 40.9274 0 39.7624V6.25535C0 5.09034 0.4154 4.09327 1.2462 3.26412C2.077 2.43322 3.07483 2.01777 4.2397 2.01777H24.9266C25.2991 2.01777 25.6114 2.14372 25.8632 2.39561C26.1151 2.6475 26.2401 2.95887 26.2384 3.32972V10.3932C26.2384 10.995 26.4422 11.4988 26.8497 11.9046C27.2555 12.3104 27.7583 12.5133 28.3582 12.5133H31.4855V15.641C31.4855 16.2428 31.6893 16.7465 32.0968 17.1524C32.5026 17.5582 33.0055 17.7611 33.6054 17.7611H40.6681C41.0406 17.7611 41.3528 17.8871 41.6047 18.1389C41.8565 18.3908 41.9816 18.7022 41.9798 19.0731V39.7624C41.9798 40.9274 41.5653 41.9245 40.7363 42.7536C39.9055 43.5845 38.9076 44 37.7428 44H4.2397Z" fill="#C5C5C5"/>
</svg>
