<svg width="33" height="33" viewBox="0 0 33 33" fill="none" xmlns="http://www.w3.org/2000/svg">
<circle cx="16.5" cy="16.5" r="16.5" fill="black"/>
<path d="M16.4609 23.1953C13.3555 23.1953 11.1289 21.4766 11.0703 19.0156H14.0391C14.0977 20.0703 15.1133 20.7734 16.4805 20.7734C17.8867 20.7734 18.9023 19.9727 18.8828 18.8398C18.9023 17.6875 17.8672 16.8672 16.207 16.8672H14.8984V14.6992H16.207C17.5938 14.6992 18.5703 13.9375 18.5703 12.8242C18.5703 11.75 17.75 11.0078 16.5 11.0078C15.25 11.0078 14.2148 11.7109 14.1758 12.7852H11.3633C11.4023 10.3438 13.6094 8.66406 16.5 8.66406C19.4492 8.66406 21.4219 10.4023 21.4023 12.6484C21.4219 14.2305 20.3086 15.3633 18.7266 15.6367V15.7539C20.7969 16.0078 21.9492 17.2773 21.9297 19.0352C21.9492 21.457 19.6445 23.1953 16.4609 23.1953Z" fill="white"/>
</svg>
