<svg width="22" height="22" viewBox="0 0 22 22" fill="none" xmlns="http://www.w3.org/2000/svg">
    <circle cx="11" cy="11" r="11" fill="#2E2E2E"/>
    <path d="M14.8828 14.3168C14.9199 14.354 14.9494 14.3981 14.9695 14.4466C14.9896 14.4952 15 14.5472 15 14.5998C15 14.6524 14.9896 14.7044 14.9695 14.7529C14.9494 14.8015 14.9199 14.8456 14.8828 14.8828C14.8456 14.9199 14.8015 14.9494 14.7529 14.9695C14.7044 14.9896 14.6524 15 14.5998 15C14.5472 15 14.4952 14.9896 14.4466 14.9695C14.3981 14.9494 14.354 14.9199 14.3168 14.8828L11 11.5655L7.68318 14.8828C7.60813 14.9578 7.50634 15 7.4002 15C7.29406 15 7.19227 14.9578 7.11722 14.8828C7.04216 14.8077 7 14.7059 7 14.5998C7 14.4937 7.04216 14.3919 7.11722 14.3168L10.4345 11L7.11722 7.68318C7.04216 7.60813 7 7.50634 7 7.4002C7 7.29406 7.04216 7.19227 7.11722 7.11722C7.19227 7.04216 7.29406 7 7.4002 7C7.50634 7 7.60813 7.04216 7.68318 7.11722L11 10.4345L14.3168 7.11722C14.3919 7.04216 14.4937 7 14.5998 7C14.7059 7 14.8077 7.04216 14.8828 7.11722C14.9578 7.19227 15 7.29406 15 7.4002C15 7.50634 14.9578 7.60813 14.8828 7.68318L11.5655 11L14.8828 14.3168Z" fill="white"/>
    </svg>
    