<svg width="19" height="18" viewBox="0 0 19 18" fill="none" xmlns="http://www.w3.org/2000/svg">
<path d="M3.85279 5.07224L5.3475 4.60591C5.46529 4.56921 5.58901 4.5565 5.71162 4.56853C5.83422 4.58055 5.9533 4.61706 6.06206 4.67598C6.17081 4.7349 6.26711 4.81507 6.34547 4.91192C6.42382 5.00876 6.48268 5.12039 6.5187 5.24042C6.55472 5.36045 6.56719 5.48653 6.55539 5.61147C6.54359 5.73641 6.50776 5.85776 6.44995 5.96859C6.39213 6.07941 6.31346 6.17755 6.21842 6.2574C6.12339 6.33724 6.01385 6.39723 5.89606 6.43393L2.30932 7.55196C2.19148 7.58868 2.06769 7.60136 1.94503 7.58929C1.82237 7.57722 1.70325 7.54063 1.59447 7.48161C1.4857 7.42259 1.38941 7.34231 1.3111 7.24534C1.2328 7.14838 1.17402 7.03663 1.13812 6.9165L0.0410007 3.26142C0.00498172 3.14139 -0.00748506 3.0153 0.00431217 2.89036C0.0161094 2.76542 0.0519396 2.64408 0.109757 2.53325C0.167574 2.42242 0.246247 2.32428 0.341282 2.24444C0.436318 2.16459 0.545855 2.1046 0.66364 2.0679C0.901518 1.99377 1.15855 2.01897 1.37819 2.13796C1.59784 2.25696 1.7621 2.45999 1.83484 2.7024L2.24743 4.07939C4.50544 0.535151 8.98488 -0.988995 12.9617 0.671799C14.151 1.16857 15.219 1.92489 16.0906 2.88755C16.9622 3.85022 17.6162 4.99583 18.0066 6.24377C18.0466 6.36399 18.0627 6.49113 18.054 6.61776C18.0452 6.74439 18.0118 6.86798 17.9557 6.98131C17.8996 7.09463 17.8219 7.19543 17.7271 7.27781C17.6323 7.36018 17.5224 7.42249 17.4037 7.46109C17.285 7.49968 17.16 7.5138 17.0359 7.50261C16.9118 7.49141 16.7912 7.45514 16.681 7.3959C16.5708 7.33666 16.4733 7.25564 16.3942 7.15758C16.3151 7.05952 16.256 6.94638 16.2203 6.82477C15.8241 5.55707 15.0842 4.4294 14.0859 3.57198C13.0877 2.71455 11.8718 2.16233 10.5787 1.97908C9.28558 1.79582 7.96798 1.98901 6.77802 2.53633C5.58807 3.08366 4.57335 3.96279 3.85279 5.07224ZM15.4119 12.9032L13.7475 13.3265C13.627 13.3602 13.5011 13.369 13.3772 13.3524C13.2533 13.3358 13.1339 13.2941 13.026 13.2298C12.9182 13.1655 12.824 13.0798 12.7491 12.9779C12.6741 12.876 12.6199 12.7598 12.5897 12.6363C12.5594 12.5127 12.5537 12.3842 12.5729 12.2584C12.5921 12.1325 12.6357 12.0119 12.7013 11.9035C12.7669 11.7951 12.8531 11.7011 12.9548 11.6271C13.0565 11.5532 13.1717 11.5007 13.2937 11.4727L16.7097 10.6041C16.8877 10.5178 17.0879 10.491 17.2817 10.5276C17.4685 10.5527 17.6435 10.6344 17.784 10.7622C17.9245 10.8901 18.0239 11.0581 18.0694 11.2443L18.9771 14.952C19.0309 15.1955 18.989 15.4508 18.8605 15.6632C18.7319 15.8757 18.5269 16.0285 18.2893 16.0889C18.0516 16.1493 17.8002 16.1126 17.5888 15.9865C17.3774 15.8605 17.2227 15.6552 17.158 15.4145L16.8485 14.1512C15.9457 15.4752 14.7091 16.5266 13.2691 17.1945C11.8291 17.8625 10.239 18.1223 8.66622 17.9466C7.09347 17.7709 5.59634 17.1662 4.33253 16.1962C3.06872 15.2262 2.08503 13.9269 1.48507 12.435L1.24127 11.8291C1.1946 11.713 1.17083 11.5886 1.17133 11.4631C1.17182 11.3376 1.19657 11.2134 1.24416 11.0977C1.29174 10.9819 1.36124 10.8769 1.44867 10.7885C1.5361 10.7001 1.63976 10.6301 1.75373 10.5826C1.9839 10.4865 2.24208 10.4876 2.47148 10.5855C2.58507 10.634 2.68818 10.7048 2.77491 10.7939C2.86164 10.883 2.9303 10.9887 2.97697 11.1048L3.22078 11.7097C3.69877 12.8982 4.48621 13.9312 5.49811 14.6972C6.51001 15.4631 7.70795 15.9328 8.96266 16.0558C10.2174 16.1787 11.4812 15.9501 12.6178 15.3947C13.7543 14.8393 14.7205 13.9772 15.4119 12.9032Z" fill="white"/>
</svg>
