<svg width="27" height="19" viewBox="0 0 27 19" fill="none" xmlns="http://www.w3.org/2000/svg">
    <ellipse cx="13" cy="9" rx="7" ry="5" fill="white"/>
    <path d="M25.7021 2.87402C25.5527 2.3175 25.2597 1.80997 24.8525 1.40225C24.4453 0.994533 23.9382 0.700914 23.3818 0.550781C21.334 1.11759e-07 13.125 0 13.125 0C13.125 0 4.91602 -1.11759e-07 2.86816 0.547851C2.31158 0.697497 1.80417 0.990953 1.39689 1.39875C0.98961 1.80655 0.696795 2.31432 0.547851 2.87109C-1.11759e-07 4.92188 0 9.19922 0 9.19922C0 9.19922 -1.11759e-07 13.4766 0.547851 15.5244C0.849609 16.6553 1.74023 17.5459 2.86816 17.8477C4.91602 18.3984 13.125 18.3984 13.125 18.3984C13.125 18.3984 21.334 18.3984 23.3818 17.8477C24.5127 17.5459 25.4004 16.6553 25.7021 15.5244C26.25 13.4766 26.25 9.19922 26.25 9.19922C26.25 9.19922 26.25 4.92188 25.7021 2.87402ZM10.5176 13.125V5.27344L17.3145 9.16992L10.5176 13.125Z" fill="#FF0000"/>
    </svg>
    