<svg width="58" height="58" viewBox="0 0 58 58" fill="none" xmlns="http://www.w3.org/2000/svg">
<path fill-rule="evenodd" clip-rule="evenodd" d="M29 37.5792C33.7381 37.5792 37.5792 33.7381 37.5792 29C37.5792 24.2619 33.7381 20.4208 29 20.4208C24.2619 20.4208 20.4208 24.2619 20.4208 29C20.4208 33.7381 24.2619 37.5792 29 37.5792ZM28.9396 33.9542C31.6423 33.9542 33.8333 31.7632 33.8333 29.0604C33.8333 26.3577 31.6423 24.1667 28.9396 24.1667C26.2368 24.1667 24.0458 26.3577 24.0458 29.0604C24.0458 31.7632 26.2368 33.9542 28.9396 33.9542Z" fill="#121212"/>
<path fill-rule="evenodd" clip-rule="evenodd" d="M29 58C45.0163 58 58 45.0163 58 29C58 12.9837 45.0163 0 29 0C12.9837 0 0 12.9837 0 29C0 45.0163 12.9837 58 29 58ZM29 40.3583C35.273 40.3583 40.3583 35.273 40.3583 29C40.3583 22.727 35.273 17.6417 29 17.6417C22.727 17.6417 17.6417 22.727 17.6417 29C17.6417 35.273 22.727 40.3583 29 40.3583ZM25.5593 6.96632C25.6318 7.62972 25.1527 8.22626 24.4893 8.29875C15.19 9.31477 10.4395 17.0413 9.24707 20.7813C9.04435 21.4171 8.3646 21.7682 7.72879 21.5655C7.09297 21.3628 6.74188 20.683 6.94459 20.0472C8.29354 15.8162 13.6058 7.05681 24.2269 5.89638C24.8903 5.82389 25.4868 6.30293 25.5593 6.96632ZM23.6966 14.4077C24.362 14.3563 24.8597 13.7752 24.8082 13.1098C24.7568 12.4445 24.1757 11.9468 23.5104 11.9982C17.609 12.4544 14.5123 17.3179 13.6824 19.6623C13.4597 20.2914 13.7892 20.9819 14.4183 21.2046C15.0474 21.4273 15.7379 21.0978 15.9606 20.4687C16.6311 18.5746 19.1477 14.7593 23.6966 14.4077Z" fill="#121212"/>
</svg>
