<svg width="139" height="42" viewBox="0 0 139 42" fill="none" xmlns="http://www.w3.org/2000/svg">
<g clip-path="url(#clip0_2217_2736)">
<path d="M11.5928 21.2425C11.5408 22.5437 11.4623 23.7597 11.3572 24.8905C11.2522 26.0213 11.1347 27.2399 11.0047 28.5463C10.9334 29.2454 10.7762 29.9331 10.5366 30.5942C10.3162 31.2074 9.97585 31.7712 9.53509 32.2533C9.09156 32.7264 8.55397 33.103 7.95633 33.3593C7.27936 33.644 6.54941 33.7834 5.81438 33.7683C5.06549 33.7861 4.32125 33.6467 3.63032 33.3593C3.0348 33.1005 2.49986 32.7218 2.05936 32.2471C1.61757 31.7655 1.2766 31.2016 1.05625 30.588C0.815963 29.9271 0.65877 29.2393 0.588233 28.5401C-0.198031 20.9113 -0.198031 13.2226 0.588233 5.59373C0.657354 4.9004 0.814609 4.21855 1.05625 3.56445C1.28049 2.95875 1.62118 2.40212 2.05936 1.92553C2.50213 1.4525 3.03856 1.07542 3.635 0.817939C4.32593 0.530535 5.07017 0.391177 5.81907 0.408982C6.65409 0.385602 7.48279 0.559204 8.23713 0.915532C8.89647 1.24792 9.46817 1.72912 9.90638 2.32054C10.5238 3.18865 11.0965 4.08722 11.6224 5.01283C12.1861 6.00217 12.7363 7.02352 13.273 8.07689C13.8096 9.13026 14.3255 10.2017 14.8205 11.2912C15.3177 12.3849 15.8023 13.4387 16.2745 14.4529C16.4055 14.7131 16.5615 14.8432 16.7425 14.8432C16.925 14.8432 17.0826 14.7131 17.2105 14.4529C17.6816 13.4387 18.1663 12.3849 18.6645 11.2912C19.1626 10.1976 19.6827 9.12458 20.2245 8.07224C20.7612 7.01887 21.3113 5.99752 21.875 5.00818C22.4004 4.08224 22.9732 3.18363 23.5911 2.31589C24.0121 1.71591 24.5802 1.23236 25.2416 0.910885C26.003 0.555743 26.8375 0.382275 27.6784 0.404335C28.4273 0.38653 29.1715 0.525888 29.8625 0.813292C30.4579 1.07305 30.9932 1.45164 31.435 1.92553C31.8722 2.40258 32.2123 2.95911 32.4366 3.56445C32.6782 4.21855 32.8354 4.9004 32.9046 5.59373C33.2707 9.3115 33.4542 13.1362 33.4553 17.0677C33.4563 20.9993 33.2691 24.8255 32.8936 28.5463C32.8231 29.2455 32.6659 29.9333 32.4256 30.5942C32.2052 31.2074 31.8648 31.7712 31.4241 32.2533C30.9827 32.7276 30.4473 33.1063 29.8516 33.3655C29.1606 33.6529 28.4164 33.7923 27.6675 33.7745C26.9325 33.7897 26.2025 33.6503 25.5256 33.3655C24.9296 33.1067 24.3941 32.728 23.953 32.2533C23.5123 31.7712 23.1719 31.2074 22.9515 30.5942C22.7112 29.9333 22.554 29.2455 22.4835 28.5463C22.3503 27.2451 22.2323 26.0286 22.1293 24.8967C22.0264 23.7649 21.9478 22.5488 21.8938 21.2487C22.3379 20.311 22.7175 19.459 23.0326 18.6927C23.361 17.885 23.6366 17.0571 23.8579 16.2142C23.9132 16.0354 23.9066 15.8435 23.8391 15.6689C23.8133 15.6099 23.7755 15.5568 23.7279 15.5131C23.6804 15.4694 23.6242 15.4359 23.563 15.4148C23.5038 15.3956 23.4408 15.391 23.3794 15.4012C23.318 15.4115 23.26 15.4363 23.2104 15.4737C23.0799 15.5683 22.9889 15.7072 22.9546 15.8641C22.4778 17.3453 21.9046 18.7941 21.2385 20.2015C20.5448 21.6834 19.8569 23.0492 19.1746 24.2988C18.9209 24.7584 18.5482 25.1423 18.0951 25.411C17.6845 25.6524 17.2165 25.7802 16.7394 25.7812C16.2561 25.779 15.7818 25.6513 15.3634 25.411C14.9066 25.1528 14.5374 24.7657 14.3026 24.2988C13.6214 23.0502 12.9334 21.6845 12.2386 20.2015C11.5726 18.7941 10.9994 17.3453 10.5226 15.8641C10.4877 15.7079 10.3974 15.5694 10.2683 15.4737C10.2184 15.4364 10.1601 15.4117 10.0985 15.4014C10.0368 15.3912 9.97364 15.3958 9.91418 15.4148C9.85324 15.4361 9.79738 15.4696 9.75013 15.5133C9.70288 15.5571 9.66525 15.61 9.63962 15.6689C9.56995 15.8429 9.56278 16.0355 9.61933 16.2142C9.84057 17.0571 10.1162 17.885 10.4446 18.6927C10.7618 19.4569 11.1445 20.3068 11.5928 21.2425Z" fill="#121212"/>
<path d="M48.2598 27.3659C48.3573 27.1941 48.3852 26.9919 48.3378 26.8005C48.3181 26.7368 48.2854 26.6779 48.2416 26.6275C48.1978 26.5771 48.144 26.5363 48.0835 26.5077C47.9575 26.4564 47.8163 26.4564 47.6904 26.5077C47.5421 26.563 47.4221 26.6744 47.3565 26.8175C46.5952 28.0392 45.7372 28.9563 44.7824 29.5687C43.8277 30.1811 42.6285 30.4878 41.185 30.4888C39.9895 30.4857 38.8044 30.2674 37.6874 29.8444C36.5587 29.4294 35.5234 28.7977 34.6406 27.9855C33.7478 27.1542 33.0524 26.1361 32.6047 25.0051C32.1201 23.8216 31.9563 22.4625 32.1133 20.9279L33.0181 13.2012C33.1492 12.0301 33.6141 11.0934 34.4128 10.3911C35.2116 9.68889 36.1996 9.33777 37.3769 9.33777H39.9681C41.1455 9.33777 42.0097 9.68269 42.5609 10.3725C43.1122 11.0624 43.2682 11.9795 43.0289 13.1237L41.2989 21.3183C41.2716 21.398 41.2611 21.4824 41.2678 21.5663C41.2745 21.6502 41.2983 21.7318 41.3379 21.8063C41.3714 21.8723 41.4183 21.9306 41.4758 21.9775C41.5333 22.0245 41.6 22.059 41.6717 22.0789C41.8246 22.1167 41.9862 22.0957 42.1241 22.02C42.2112 21.9697 42.2874 21.9028 42.3482 21.823C42.409 21.7432 42.4532 21.6522 42.4783 21.5553L44.4033 13.1268C44.6346 12.0309 45.2554 11.0544 46.1522 10.3756C47.0446 9.69061 48.1444 9.32587 49.2722 9.34086H51.709C53.1245 9.34086 54.2686 9.76996 55.1411 10.6281C56.0137 11.4863 56.4578 12.6172 56.4734 14.0206L56.5124 24.9865C56.5384 29.8774 55.4381 33.9355 53.2114 37.1607C52.6279 37.9745 51.9339 38.7044 51.149 39.3294C50.3805 39.9376 49.5344 40.4424 48.6326 40.8304C47.7179 41.2259 46.7628 41.5219 45.784 41.7134C44.7872 41.9087 43.7735 42.0068 42.7575 42.0062C42.4455 42.0062 42.0243 41.9876 41.5001 41.9473C40.9759 41.907 40.4081 41.8435 39.7716 41.7521C39.1351 41.6607 38.5064 41.5507 37.8652 41.4206C37.2823 41.3085 36.7087 41.1532 36.1492 40.9559C35.5197 40.7456 34.9527 40.3837 34.4986 39.9025C34.1127 39.4731 33.8365 38.9577 33.6936 38.3999C33.5479 37.8263 33.501 37.2324 33.5548 36.6433C33.6068 36.037 33.7389 35.4401 33.9479 34.868C34.1276 34.3556 34.3515 33.8596 34.6172 33.3856C34.8625 32.9355 35.1784 32.5271 35.5532 32.1757C35.9259 31.8334 36.3679 31.5741 36.8496 31.4152C37.3952 31.2409 37.974 31.1942 38.5407 31.2788C38.9078 31.3294 39.3987 31.3749 40.0134 31.4152C40.628 31.4554 41.172 31.4745 41.6452 31.4725C43.2957 31.4725 44.6254 31.0955 45.6342 30.3416C46.6974 29.5303 47.5895 28.5191 48.2598 27.3659Z" fill="#121212"/>
<path d="M66.3816 26.7695C66.1996 25.3908 66.0623 23.8691 65.9698 22.2044C65.8772 20.5396 65.832 18.8031 65.8341 16.9948C65.8341 15.1855 65.8798 13.3576 65.9713 11.5111C66.0629 9.66463 66.2001 7.85738 66.3832 6.08937C66.5402 4.45149 67.0972 3.11825 68.054 2.08967C69.0108 1.06108 70.393 0.547309 72.2006 0.548341C73.6161 0.548341 74.7362 0.893267 75.5609 1.58312C76.4144 2.31474 77.0468 3.2671 77.3877 4.33427C77.8028 5.60849 78.0278 6.93618 78.0554 8.27512C78.1064 9.8112 78.0673 11.3489 77.9384 12.8805C77.8491 14.0326 77.6844 15.1777 77.4455 16.3086C77.2459 17.2443 76.9763 18.1639 76.6389 19.0598C76.3477 19.8322 75.9864 20.5768 75.5594 21.2842C75.1578 21.9395 74.7182 22.5711 74.2427 23.1756C74.1949 23.2356 74.1597 23.3045 74.1394 23.3782C74.119 23.4519 74.1138 23.529 74.1241 23.6047C74.1326 23.6627 74.1525 23.7184 74.1828 23.7686C74.213 23.8189 74.253 23.8627 74.3004 23.8975C74.398 23.9653 74.518 23.9935 74.6358 23.9765C74.7876 23.9521 74.926 23.876 75.0274 23.7612C75.5229 23.1149 76.0613 22.5022 76.6389 21.9271C77.2022 21.3659 77.821 20.8625 78.486 20.4245C79.1415 19.9954 79.8478 19.6484 80.589 19.3913C81.3664 19.126 82.1835 18.994 83.0055 19.0009C84.0442 18.9767 85.0781 19.1486 86.0522 19.5074C86.8438 19.8091 87.5656 20.2671 88.1739 20.8536C88.738 21.4154 89.1793 22.0867 89.4703 22.8256C89.7764 23.6008 89.9687 24.4156 90.0413 25.2452C90.1973 26.9358 89.9612 28.3341 89.333 29.4401C88.6973 30.5501 87.7748 31.4715 86.6607 32.1091C85.396 32.8252 84.0112 33.308 82.5733 33.5343C80.9378 33.8123 79.2811 33.9492 77.6218 33.9432C76.2531 33.9494 74.8863 33.8458 73.5344 33.6334C72.3407 33.4541 71.1855 33.0782 70.1164 32.5212C69.1294 31.9956 68.2808 31.2468 67.639 30.3355C66.9838 29.4153 66.5647 28.2267 66.3816 26.7695Z" fill="#121212"/>
<path d="M88.7668 30.478C88.0322 25.7311 88.0322 20.9006 88.7668 16.1537C88.8968 15.2428 89.3877 14.4683 90.2394 13.8301C91.0912 13.1919 92.3554 12.8733 94.0319 12.8743C95.6564 12.8743 96.8816 13.1929 97.7074 13.8301C98.5332 14.4673 99.0241 15.2418 99.1801 16.1537C99.9663 20.8955 99.9663 25.7331 99.1801 30.4749C99.0241 31.3857 98.5332 32.1603 97.7074 32.7985C96.8816 33.4367 95.6564 33.7553 94.0319 33.7542C92.3554 33.7542 91.0912 33.4357 90.2394 32.7985C89.3877 32.1613 88.8968 31.3878 88.7668 30.478ZM94.0319 10.8497C93.3672 10.8524 92.7077 10.7332 92.0865 10.498C91.4739 10.266 90.9181 9.90687 90.4563 9.44466C89.9675 8.95092 89.5802 8.36743 89.3159 7.72673C89.017 6.9962 88.87 6.2132 88.8838 5.42481C88.8737 4.69823 89.01 3.97699 89.2846 3.30343C89.5592 2.62988 89.9666 2.01761 90.4828 1.50256C90.956 1.03006 91.5164 0.652441 92.1333 0.390324C92.7357 0.133623 93.3842 0.000829066 94.0397 -4.01009e-05C94.7355 -0.00426617 95.4224 0.154976 96.0444 0.464682C96.6693 0.773225 97.2294 1.19693 97.6949 1.71323C98.1636 2.23487 98.5335 2.83627 98.7869 3.48847C99.047 4.14087 99.1804 4.83624 99.1801 5.53789C99.1852 6.23949 99.0517 6.93526 98.7869 7.58577C98.5381 8.20392 98.1787 8.77228 97.7261 9.26341C97.2534 9.76572 96.6813 10.1655 96.0455 10.4377C95.4098 10.7099 94.7242 10.8486 94.0319 10.845V10.8497Z" fill="#121212"/>
<path d="M111.699 26.9647C111.727 27.0326 111.77 27.0938 111.824 27.1443C111.877 27.1947 111.941 27.2333 112.011 27.2575C112.126 27.2963 112.25 27.2963 112.365 27.2575C112.421 27.2343 112.47 27.1996 112.511 27.1558C112.551 27.112 112.582 27.06 112.601 27.0034C112.626 26.9333 112.635 26.8587 112.629 26.7846C112.622 26.7105 112.599 26.6388 112.562 26.5743C112.227 25.943 111.845 25.3367 111.421 24.7604C110.958 24.1301 110.424 23.5538 109.83 23.0424C109.188 22.4924 108.482 22.0207 107.727 21.6374C106.902 21.2228 106.016 20.9405 105.102 20.8009C103.242 20.4632 101.775 19.8777 100.701 19.0443C99.6265 18.2109 99.0893 16.9623 99.0893 15.2986C99.0802 14.4116 99.3532 13.5442 99.8693 12.8201C100.447 12.0313 101.193 11.3787 102.053 10.9086C103.085 10.3367 104.198 9.92212 105.354 9.6786C106.716 9.38351 108.107 9.2396 109.501 9.2495C110.699 9.25735 111.894 9.35523 113.077 9.54228C114.298 9.72031 115.493 10.0481 116.634 10.5182C117.642 10.9198 118.548 11.5394 119.286 12.3322C119.966 13.0871 120.267 14.0108 120.189 15.1034C120.157 15.7326 119.982 16.3465 119.677 16.8988C119.412 17.3696 119.038 17.7706 118.585 18.0684C118.121 18.3612 117.609 18.571 117.072 18.688C116.509 18.8191 115.934 18.8846 115.356 18.8832C114.537 18.8942 113.728 18.707 112.999 18.3379C112.29 17.9738 111.619 17.5421 110.994 17.0491C110.312 16.5327 109.709 16.0515 109.186 15.6053C108.663 15.1592 108.062 14.6139 107.382 13.9695C107.273 13.875 107.134 13.8204 106.989 13.8146C106.867 13.8118 106.747 13.8537 106.654 13.9323C106.61 13.9685 106.573 14.0129 106.546 14.0632C106.52 14.1134 106.503 14.1685 106.498 14.2251C106.495 14.2909 106.51 14.3562 106.541 14.4144C106.572 14.4727 106.618 14.5217 106.674 14.5566C107.067 14.947 107.532 15.3828 108.069 15.864C109.412 17.0535 110.893 18.081 112.479 18.925C113.532 19.4896 114.627 19.9727 115.755 20.3703C116.474 20.6354 117.165 20.9685 117.819 21.3648C118.483 21.765 119.074 22.2729 119.568 22.8674C120.074 23.4805 120.46 24.1818 120.707 24.9354C120.977 25.7926 121.071 26.695 120.983 27.589C120.915 28.599 120.553 29.5677 119.941 30.3773C119.294 31.2232 118.478 31.9273 117.545 32.4453C116.48 33.0357 115.334 33.4698 114.144 33.7341C111.459 34.3311 108.674 34.3311 105.989 33.7341C104.804 33.4671 103.665 33.0265 102.61 32.4267C101.667 31.8888 100.839 31.1725 100.174 30.3184C99.5254 29.4731 99.0996 28.4807 98.9348 27.431C98.8045 26.7029 98.7913 25.9588 98.8958 25.2266C98.9888 24.5429 99.2374 23.8892 99.6228 23.3151C100.026 22.7359 100.575 22.2714 101.214 21.9674C101.896 21.6297 102.774 21.4608 103.847 21.4608C104.772 21.4449 105.691 21.6112 106.551 21.9503C107.319 22.2646 108.035 22.6923 108.674 23.219C109.299 23.7357 109.86 24.3249 110.343 24.9741C110.831 25.6247 111.283 26.2883 111.699 26.9647Z" fill="#121212"/>
<path d="M121.028 20.5082C120.682 20.4041 120.346 20.2666 120.027 20.0977C118.769 19.3696 118.141 17.9517 118.141 15.8439C118.121 15.1876 118.221 14.5332 118.436 13.9122C118.612 13.4348 118.901 13.0066 119.28 12.6637C119.668 12.3266 120.124 12.0739 120.616 11.9217C121.197 11.7387 121.788 11.5893 122.386 11.474C122.411 11.2137 122.425 10.9597 122.425 10.7134C122.425 10.4609 122.438 10.2086 122.464 9.95744C122.507 9.13137 122.673 8.31615 122.955 7.53779C123.159 6.97853 123.496 6.47671 123.938 6.07546C124.366 5.71309 124.88 5.46469 125.431 5.3536C126.109 5.21374 126.8 5.14726 127.493 5.15532C128.167 5.14656 128.839 5.21203 129.498 5.3505C130.047 5.46717 130.56 5.71493 130.991 6.07237C131.443 6.46923 131.787 6.97189 131.994 7.53469C132.278 8.31443 132.456 9.12807 132.524 9.95434V10.0721C133.323 10.0193 134.125 10.0322 134.922 10.1108C135.571 10.1548 136.202 10.3416 136.769 10.6576C138.027 11.3805 138.655 12.8113 138.655 14.9501C138.655 16.4589 138.282 17.5386 137.535 18.1892C136.788 18.8398 135.708 19.2431 134.293 19.399L133.231 19.5152C133.231 19.983 133.218 20.4256 133.192 20.8428C133.165 21.2595 133.126 21.6483 133.075 22.0123C132.632 22.1426 132.203 22.3192 131.797 22.539C131.403 22.7515 131.034 23.0071 130.697 23.3011C130.389 23.5671 130.106 23.8611 129.852 24.1795C129.643 24.4339 129.471 24.716 129.34 25.0175C129.288 25.1495 129.288 25.296 129.34 25.428C129.361 25.4811 129.393 25.5293 129.434 25.5695C129.475 25.6098 129.524 25.6412 129.577 25.6619C129.684 25.7008 129.801 25.7073 129.911 25.6805C129.97 25.6669 130.025 25.6381 130.07 25.5971C130.114 25.5561 130.147 25.5042 130.165 25.4466C130.601 24.5763 131.275 23.846 132.111 23.3399C132.892 22.8583 133.809 22.6409 134.726 22.7202C135.302 22.7727 135.865 22.9176 136.395 23.1493C136.944 23.3926 137.429 23.7602 137.81 24.2228C138.241 24.759 138.56 25.3759 138.746 26.0368C138.979 26.8878 139.052 27.7743 138.961 28.6516C138.921 29.476 138.651 30.273 138.181 30.9536C137.699 31.6426 137.076 32.2232 136.353 32.6575C135.548 33.1357 134.672 33.4849 133.758 33.6923C132.761 33.9278 131.738 34.0454 130.713 34.0424C128.826 34.0424 127.333 33.7367 126.233 33.1254C125.156 32.5393 124.285 31.6411 123.737 30.5508C123.172 29.4448 122.798 28.1022 122.616 26.5232C122.434 24.9442 122.318 23.1917 122.267 21.2657V20.6801C121.848 20.6846 121.43 20.6267 121.028 20.5082Z" fill="#121212"/>
</g>
<defs>
<clipPath id="clip0_2217_2736">
<rect width="139" height="42" fill="white"/>
</clipPath>
</defs>
</svg>
