<svg width="134" height="189" viewBox="0 0 134 189" fill="none" xmlns="http://www.w3.org/2000/svg">
<ellipse cx="109.076" cy="170.542" rx="24.5153" ry="9.94825" fill="white"/>
<ellipse cx="32.3319" cy="180.134" rx="30.2001" ry="8.17178" fill="white"/>
<circle cx="57.5213" cy="48.2049" r="48.2049" fill="white"/>
<circle cx="57.5204" cy="48.205" r="22.5888" fill="#2E2E2E"/>
<path fill-rule="evenodd" clip-rule="evenodd" d="M42.2618 14.4953C42.4056 15.2547 41.9066 15.987 41.1471 16.1309C30.5006 18.1471 25.7153 27.5 24.6773 31.9268C24.5009 32.6794 23.7478 33.1465 22.9952 32.97C22.2426 32.7936 21.7755 32.0404 21.952 31.2878C23.1262 26.2798 28.4666 15.6833 40.6262 13.3805C41.3857 13.2367 42.118 13.7358 42.2618 14.4953Z" fill="#2E2E2E"/>
<path fill-rule="evenodd" clip-rule="evenodd" d="M41.9522 21.6575C42.0719 22.4212 41.5499 23.1373 40.7862 23.257C35.5652 24.0753 33.0049 28.7092 32.4023 30.9573C32.2022 31.7039 31.4347 32.1469 30.688 31.9468C29.9414 31.7466 29.4984 30.9791 29.6985 30.2325C30.4443 27.4501 33.5794 21.5531 40.3527 20.4915C41.1164 20.3718 41.8325 20.8938 41.9522 21.6575Z" fill="#2E2E2E"/>
<path d="M54.1094 55.5332C57.0705 56.3266 60.0883 55.3431 62.5358 53.3403C64.9853 51.3359 66.9539 48.2532 67.936 44.5878C68.9182 40.9223 68.7547 37.2683 67.6356 34.3078C66.5173 31.3495 64.3956 28.9889 61.4345 28.1955C58.4734 27.402 55.4556 28.3855 53.0081 30.3883C50.5586 32.3927 48.59 35.4754 47.6079 39.1409C46.6257 42.8063 46.7892 46.4603 47.9083 49.4209C49.0265 52.3792 51.1483 54.7398 54.1094 55.5332Z" fill="white" stroke="#2E2E2E" stroke-width="2.5"/>
<path d="M71.2451 60.125C74.2062 60.9184 77.224 59.9349 79.6716 57.9321C82.121 55.9277 84.0896 52.845 85.0718 49.1796C86.0539 45.5141 85.8904 41.8601 84.7713 38.8996C83.6531 35.9413 81.5313 33.5807 78.5702 32.7873C75.6091 31.9938 72.5914 32.9773 70.1438 34.9801C67.6944 36.9845 65.7257 40.0672 64.7436 43.7327C63.7614 47.3981 63.9249 51.0521 65.044 54.0127C66.1623 56.971 68.284 59.3316 71.2451 60.125Z" fill="white" stroke="#2E2E2E" stroke-width="2.5"/>
<ellipse cx="53.3464" cy="40.4694" rx="3.83" ry="5.03947" transform="rotate(15 53.3464 40.4694)" fill="#2E2E2E"/>
<ellipse cx="70.4801" cy="45.0612" rx="3.83" ry="5.03947" transform="rotate(15 70.4801 45.0612)" fill="#2E2E2E"/>
<path d="M36.8695 139.276C28.2998 129.216 33.2987 94.8276 36.8695 79.3027L44.0886 84.916C38.7277 113.34 40.5041 124.354 41.9253 128.973" stroke="white" stroke-width="2.6" stroke-linecap="round"/>
<path d="M93.9758 129.151C82.4712 122.648 75.3504 88.6359 73.3695 72.8293L82.0778 75.6204C86.8094 104.156 92.2619 113.889 95.1836 117.738" stroke="white" stroke-width="2.6" stroke-linecap="round"/>
<path d="M16.0809 174.009C5.01483 172.177 5.54646 164.142 6.52104 161.042C12.2157 166.232 30.1456 174.03 61.7038 158.2C62.0346 160.322 61.9185 162.323 61.118 163.999C57.3502 171.886 29.9135 176.299 16.0809 174.009Z" fill="#2E2E2E"/>
<path d="M38.9407 139.957C33.9834 139.17 24.8372 138.588 27.9099 142.553C31.7509 147.509 44.6297 146.916 49.6408 143.81C53.6496 141.324 52.6539 138.342 51.655 137.161C50.7425 136.187 48.0042 135.434 44.3509 140.217M30.0277 145.201C28.5788 146.564 25.7139 149.732 25.8455 151.495M38.9133 157.386C31.9667 152.047 16.8424 144.202 6.52104 161.042M6.52104 161.042C5.54646 164.142 5.01483 172.177 16.0809 174.009C29.9135 176.299 57.3502 171.886 61.118 163.999C61.9185 162.323 62.0346 160.322 61.7038 158.2M6.52104 161.042C12.2157 166.232 30.1456 174.03 61.7038 158.2M53.7225 142.102C56.4553 145.531 60.7889 152.331 61.7038 158.2" stroke="white" stroke-width="2.6" stroke-linecap="round"/>
<path d="M96.7493 169.762C86.6533 174.65 82.4528 167.78 81.4603 164.685C89.106 165.64 108.251 161.667 124.897 130.531C126.391 132.074 127.45 133.775 127.763 135.606C129.236 144.222 109.369 163.654 96.7493 169.762Z" fill="#2E2E2E"/>
<path d="M95.779 128.76C91.2759 130.977 83.4691 135.778 88.2662 137.244C94.2627 139.077 104.441 131.164 106.742 125.735C108.583 121.393 106.049 119.531 104.552 119.142C103.245 118.873 100.574 119.838 100.349 125.852M91.5236 138.186C91.1267 140.135 90.6139 144.376 91.7381 145.739M105.811 143.014C97.0567 142.659 80.177 144.976 81.4603 164.685M81.4603 164.685C82.4528 167.78 86.6533 174.65 96.7493 169.762C109.369 163.654 129.236 144.222 127.763 135.606C127.45 133.775 126.391 132.074 124.897 130.531M81.4603 164.685C89.106 165.64 108.251 161.667 124.897 130.531M109.091 121.986C113.302 123.211 120.764 126.265 124.897 130.531" stroke="white" stroke-width="2.6" stroke-linecap="round"/>
<path d="M42.2793 57.5576C44.6479 61.4659 51.8012 67.8612 61.4652 62.1764" stroke="white" stroke-width="2.6" stroke-linecap="round"/>
<path d="M62.2676 58.2686C61.5905 59.5492 61.0144 62.5936 64.1265 64.5255" stroke="white" stroke-width="2.6" stroke-linecap="round"/>
</svg>
