<svg width="21" height="17" viewBox="0 0 21 17" fill="none" xmlns="http://www.w3.org/2000/svg">
<path d="M14.5907 3.36648L13.3948 1.47707C13.1428 1.18328 12.7974 1 12.4102 1H8.27734C7.89012 1 7.54467 1.18328 7.29266 1.47707L6.09684 3.36648C5.84482 3.66072 5.52004 3.875 5.13281 3.875H2.4375C2.05625 3.875 1.69062 4.02645 1.42103 4.29603C1.15145 4.56562 1 4.93125 1 5.3125V13.9375C1 14.3187 1.15145 14.6844 1.42103 14.954C1.69062 15.2235 2.05625 15.375 2.4375 15.375H18.25C18.6312 15.375 18.9969 15.2235 19.2665 14.954C19.536 14.6844 19.6875 14.3187 19.6875 13.9375V5.3125C19.6875 4.93125 19.536 4.56562 19.2665 4.29603C18.9969 4.02645 18.6312 3.875 18.25 3.875H15.5996C15.211 3.875 14.8427 3.66072 14.5907 3.36648Z" fill="black" stroke="white" stroke-width="1.4375" stroke-linecap="round" stroke-linejoin="round"/>
<path d="M10.3438 12.5C12.3285 12.5 13.9375 10.891 13.9375 8.90625C13.9375 6.92148 12.3285 5.3125 10.3438 5.3125C8.35898 5.3125 6.75 6.92148 6.75 8.90625C6.75 10.891 8.35898 12.5 10.3438 12.5Z" fill="black" stroke="white" stroke-width="1.4375" stroke-miterlimit="10"/>
</svg>
