<svg width="300" height="300" viewBox="0 0 300 300" fill="none" xmlns="http://www.w3.org/2000/svg">
<g clip-path="url(#clip0_2722_411)">
<path d="M277.5 0H22.5C10.0736 0 0 10.0736 0 22.5V277.5C0 289.926 10.0736 300 22.5 300H277.5C289.926 300 300 289.926 300 277.5V22.5C300 10.0736 289.926 0 277.5 0Z" fill="#2E2E2E"/>
<g opacity="0.17">
<path d="M222.806 323.509C278.901 323.509 324.375 278.035 324.375 221.94C324.375 165.845 278.901 120.371 222.806 120.371C166.711 120.371 121.237 165.845 121.237 221.94C121.237 278.035 166.711 323.509 222.806 323.509Z" fill="white"/>
<path fill-rule="evenodd" clip-rule="evenodd" d="M190.654 150.915C190.958 152.516 189.904 154.058 188.306 154.361C165.874 158.61 155.79 178.316 153.604 187.643C153.233 189.229 151.646 190.211 150.06 189.84C148.474 189.469 147.491 187.883 147.863 186.296C150.338 175.744 161.588 153.416 187.208 148.564C188.809 148.26 190.35 149.314 190.654 150.911V150.915Z" fill="#2E2E2E"/>
<path fill-rule="evenodd" clip-rule="evenodd" d="M190.001 166.005C190.253 167.614 189.154 169.121 187.545 169.376C176.546 171.101 171.15 180.863 169.879 185.603C169.459 187.174 167.839 188.108 166.268 187.688C164.696 187.268 163.763 185.648 164.183 184.076C165.754 178.215 172.361 165.788 186.63 163.553C188.239 163.301 189.746 164.4 190.001 166.009V166.005Z" fill="#2E2E2E"/>
<path d="M222.806 269.535C249.092 269.535 270.401 248.226 270.401 221.94C270.401 195.654 249.092 174.345 222.806 174.345C196.52 174.345 175.211 195.654 175.211 221.94C175.211 248.226 196.52 269.535 222.806 269.535Z" fill="#2E2E2E"/>
<path d="M215.819 236.644C221.759 238.238 227.872 236.28 232.893 232.17C237.918 228.06 241.983 221.708 244.019 214.121C246.052 206.535 245.707 199.001 243.408 192.93C241.113 186.862 236.8 182.111 230.857 180.518C224.917 178.924 218.804 180.881 213.783 184.991C208.758 189.101 204.693 195.454 202.657 203.04C200.624 210.626 200.969 218.16 203.268 224.231C205.563 230.299 209.875 235.05 215.819 236.644Z" fill="white"/>
<path d="M220.065 239.074C218.475 239.074 216.892 238.867 215.336 238.451C209.1 236.782 204.191 231.967 201.517 224.891C199.008 218.25 198.768 210.319 200.85 202.552C202.931 194.79 207.101 188.036 212.598 183.54C218.448 178.751 225.101 177.037 231.341 178.706C237.577 180.379 242.482 185.194 245.156 192.266C247.665 198.907 247.901 206.842 245.823 214.605C243.742 222.371 239.568 229.121 234.075 233.617C229.683 237.21 224.838 239.074 220.061 239.074H220.065ZM226.638 181.834C222.708 181.834 218.673 183.409 214.968 186.439C210.075 190.444 206.347 196.511 204.468 203.524C202.59 210.536 202.785 217.657 205.02 223.571C207.255 229.485 211.263 233.486 216.303 234.836C221.343 236.19 226.815 234.727 231.708 230.722C236.602 226.717 240.33 220.65 242.212 213.637C244.091 206.625 243.896 199.504 241.661 193.59C239.426 187.676 235.417 183.675 230.377 182.325C229.151 181.995 227.902 181.834 226.642 181.834H226.638Z" fill="#2E2E2E"/>
<path d="M251.921 246.319C257.865 247.912 263.973 245.955 268.998 241.845C274.02 237.735 278.088 231.382 280.121 223.796C282.153 216.21 281.808 208.676 279.513 202.605C277.218 196.537 272.906 191.786 266.962 190.192C261.022 188.599 254.91 190.556 249.888 194.666C244.863 198.776 240.795 205.129 238.762 212.715C236.73 220.301 237.075 227.835 239.373 233.906C241.668 239.974 245.981 244.725 251.925 246.319H251.921Z" fill="white"/>
<path d="M256.166 248.749C254.576 248.749 252.994 248.542 251.438 248.126C245.201 246.454 240.296 241.639 237.623 234.566C235.114 227.925 234.874 219.99 236.955 212.227C239.036 204.461 243.206 197.711 248.704 193.215C254.554 188.426 261.21 186.709 267.446 188.381C273.683 190.05 278.588 194.865 281.265 201.941C283.774 208.579 284.01 216.514 281.933 224.28C279.851 232.042 275.681 238.796 270.184 243.292C265.793 246.885 260.948 248.749 256.166 248.749ZM252.409 244.511C257.449 245.865 262.92 244.402 267.814 240.397C272.708 236.392 276.435 230.325 278.314 223.312C280.193 216.296 279.998 209.179 277.763 203.265C275.528 197.351 271.519 193.35 266.479 192C261.439 190.65 255.968 192.112 251.074 196.114C246.18 200.119 242.453 206.186 240.574 213.199C238.695 220.211 238.89 227.332 241.125 233.246C243.36 239.16 247.369 243.161 252.409 244.511Z" fill="#2E2E2E"/>
<path d="M221.808 207.73C223.326 202.067 221.066 196.54 216.761 195.387C212.456 194.233 207.736 197.889 206.218 203.553C204.701 209.216 206.961 214.742 211.266 215.896C215.571 217.049 220.291 213.393 221.808 207.73Z" fill="#2E2E2E"/>
<path d="M257.908 217.403C259.426 211.74 257.166 206.214 252.861 205.06C248.556 203.907 243.836 207.563 242.318 213.226C240.8 218.889 243.06 224.416 247.365 225.569C251.67 226.723 256.391 223.067 257.908 217.403Z" fill="#2E2E2E"/>
<path d="M215.122 258.409C202.181 258.409 192.753 249.379 188.775 242.809C188.13 241.748 188.471 240.368 189.532 239.726C190.59 239.081 191.973 239.422 192.615 240.484C197.396 248.37 211.357 260.4 229.98 249.443C231.048 248.813 232.425 249.169 233.055 250.238C233.685 251.306 233.328 252.683 232.26 253.313C226.065 256.954 220.312 258.409 215.126 258.409H215.122Z" fill="white"/>
<path d="M236.722 258.574C236.317 258.574 235.909 258.465 235.541 258.236C227.651 253.339 229.005 245.535 230.824 242.096C231.405 241.001 232.759 240.581 233.857 241.159C234.952 241.74 235.372 243.097 234.795 244.192C234.66 244.447 231.566 250.481 237.911 254.419C238.965 255.071 239.287 256.459 238.635 257.512C238.211 258.199 237.476 258.574 236.726 258.574H236.722Z" fill="white"/>
</g>
</g>
<defs>
<clipPath id="clip0_2722_411">
<rect width="300" height="300" fill="white"/>
</clipPath>
</defs>
</svg>
