<svg width="32" height="30" viewBox="0 0 18 17" fill="none" xmlns="http://www.w3.org/2000/svg">
<path d="M17.7749 10.4993L15.9535 8.67785C15.8396 8.56403 15.6852 8.50009 15.5242 8.50009C15.3632 8.50009 15.2088 8.56403 15.095 8.67785L9.45282 14.32V16.9999H12.1327L17.7749 11.3578C17.8887 11.2439 17.9527 11.0895 17.9527 10.9285C17.9527 10.7675 17.8887 10.6131 17.7749 10.4993ZM11.63 15.7856H10.6671V14.8227L13.7028 11.787L14.6657 12.7499L11.63 15.7856ZM15.5242 11.8914L14.5613 10.9285L15.5242 9.96559L16.4871 10.9285L15.5242 11.8914ZM8.23854 12.1428C6.19612 12.1428 4.5957 10.5424 4.5957 8.49996C4.5957 6.45754 6.19612 4.85712 8.23854 4.85712C10.281 4.85712 11.8814 6.45754 11.8814 8.49996C11.8814 10.5424 10.281 12.1428 8.23854 12.1428ZM8.23854 6.0714C6.85426 6.0714 5.80998 7.11568 5.80998 8.49996C5.80998 9.88423 6.85426 10.9285 8.23854 10.9285C9.62282 10.9285 10.6671 9.88423 10.6671 8.49996C10.6671 7.11568 9.62282 6.0714 8.23854 6.0714Z" fill="white"/>
<path d="M15.2512 6.0714L16.3034 5.46426L14.8851 3.00898C14.7447 2.76593 14.5244 2.57903 14.2618 2.48007C13.9991 2.38111 13.7102 2.37621 13.4444 2.4662L11.9666 2.96588C11.7119 2.79444 11.4458 2.64067 11.17 2.50567L10.8646 0.975674C10.8095 0.700413 10.6606 0.45277 10.4434 0.274885C10.2263 0.0969988 9.95415 -0.000139137 9.67342 1.49584e-07H6.80772C6.5269 -0.00011108 6.25472 0.0971131 6.03753 0.275119C5.82033 0.453125 5.67155 0.700909 5.61651 0.976281L5.31112 2.50567C5.03183 2.64167 4.76105 2.79041 4.50544 2.96284L3.03616 2.4662C2.77029 2.37621 2.48145 2.38111 2.21878 2.48007C1.9561 2.57903 1.73583 2.76593 1.59542 3.00898L0.162572 5.49097C0.0222786 5.73407 -0.0294666 6.01826 0.0161378 6.29521C0.0617422 6.57216 0.20188 6.82476 0.412713 7.01004L1.5851 8.04035C1.57478 8.19335 1.56203 8.34514 1.56203 8.49996C1.56203 8.6566 1.5681 8.81142 1.57903 8.96503L0.413321 9.98988C0.202389 10.1751 0.0621345 10.4276 0.0164188 10.7046C-0.0292969 10.9815 0.0223495 11.2658 0.162572 11.5089L1.59542 13.9909C1.73585 14.2341 1.95623 14.4211 2.21903 14.5201C2.48183 14.619 2.77082 14.6239 3.03677 14.5337L4.51455 14.034C4.76834 14.2052 5.03426 14.3589 5.31112 14.4942L5.61651 16.0236C5.67155 16.299 5.82033 16.5468 6.03753 16.7248C6.25472 16.9028 6.5269 17 6.80772 16.9999H8.24057V15.7856H6.80772L6.37665 13.6303C5.78034 13.4088 5.22678 13.0859 4.74041 12.6759L2.6476 13.3838L1.21475 10.9018L2.8692 9.4477C2.75605 8.81984 2.75461 8.17693 2.86495 7.54857L1.21414 6.0975L2.6476 3.61612L4.72826 4.32041C5.21808 3.90979 5.77595 3.58801 6.37665 3.36963L6.80772 1.21428H9.67403L10.1051 3.36963C10.7014 3.5912 11.2549 3.91408 11.7413 4.32405L13.8341 3.61612L15.2512 6.0714Z" fill="white"/>
</svg>
