<svg width="68" height="20" viewBox="0 0 68 20" fill="none" xmlns="http://www.w3.org/2000/svg">
<mask id="path-1-outside-1_1882_1573" maskUnits="userSpaceOnUse" x="0" y="0" width="18" height="18" fill="black">
<rect fill="white" width="18" height="18"/>
<path d="M6.54472 10.9912C6.51985 11.615 6.4823 12.198 6.43206 12.7401C6.38183 13.2823 6.32562 13.8665 6.26345 14.4928C6.22935 14.8279 6.15419 15.1576 6.03963 15.4746C5.93423 15.7686 5.77145 16.0389 5.56066 16.27C5.34855 16.4968 5.09146 16.6774 4.80565 16.8002C4.4819 16.9367 4.13282 17.0036 3.78131 16.9963C3.42317 17.0048 3.06725 16.938 2.73683 16.8002C2.45203 16.6762 2.19621 16.4946 1.98555 16.267C1.77427 16.0361 1.61121 15.7658 1.50583 15.4716C1.39092 15.1548 1.31574 14.825 1.28201 14.4898C0.905996 10.8324 0.905996 7.14626 1.28201 3.48881C1.31507 3.15641 1.39027 2.82951 1.50583 2.51592C1.61307 2.22554 1.776 1.95868 1.98555 1.73019C2.19729 1.50341 2.45383 1.32263 2.73907 1.19919C3.06949 1.0614 3.42541 0.994588 3.78355 1.00312C4.18288 0.991915 4.57919 1.07514 4.93994 1.24598C5.25526 1.40533 5.52866 1.63603 5.73823 1.91957C6.03348 2.33576 6.30739 2.76655 6.55889 3.21031C6.82847 3.68462 7.09158 4.17428 7.34822 4.67929C7.60487 5.1843 7.85156 5.69797 8.08831 6.22031C8.32606 6.74463 8.55783 7.24988 8.78364 7.73608C8.84631 7.86084 8.92092 7.92323 9.00746 7.92323C9.09475 7.92323 9.1701 7.86084 9.23128 7.73608C9.45659 7.24988 9.68836 6.74463 9.92661 6.22031C10.1648 5.69599 10.4135 5.18158 10.6727 4.67706C10.9293 4.17205 11.1924 3.68239 11.462 3.20808C11.7132 2.76416 11.9871 2.33335 12.2827 1.91734C12.484 1.6297 12.7557 1.39787 13.072 1.24375C13.4361 1.07348 13.8352 0.99032 14.2373 1.0009C14.5955 0.99236 14.9514 1.05917 15.2818 1.19696C15.5666 1.32149 15.8226 1.503 16.0339 1.73019C16.2429 1.9589 16.4056 2.22571 16.5128 2.51592C16.6284 2.82951 16.7036 3.15641 16.7366 3.48881C16.9117 5.27119 16.9995 7.10482 17 8.98969C17.0005 10.8746 16.911 12.7089 16.7314 14.4928C16.6977 14.828 16.6225 15.1577 16.5076 15.4746C16.4022 15.7686 16.2394 16.0389 16.0286 16.27C15.8175 16.4974 15.5615 16.6789 15.2766 16.8032C14.9462 16.941 14.5903 17.0078 14.2321 16.9993C13.8806 17.0066 13.5315 16.9398 13.2078 16.8032C12.9228 16.6791 12.6667 16.4976 12.4557 16.27C12.245 16.0389 12.0822 15.7686 11.9768 15.4746C11.8619 15.1577 11.7867 14.828 11.753 14.4928C11.6893 13.869 11.6328 13.2857 11.5836 12.7431C11.5344 12.2005 11.4968 11.6175 11.4709 10.9941C11.6833 10.5446 11.8649 10.1361 12.0156 9.76874C12.1726 9.3815 12.3044 8.98459 12.4102 8.58048C12.4367 8.4948 12.4335 8.40276 12.4013 8.31907C12.3889 8.29077 12.3708 8.26533 12.3481 8.24437C12.3254 8.2234 12.2985 8.20737 12.2692 8.19727C12.2409 8.18806 12.2108 8.18582 12.1814 8.19074C12.1521 8.19565 12.1243 8.20758 12.1006 8.22549C12.0382 8.27085 11.9947 8.33745 11.9783 8.41264C11.7503 9.12275 11.4761 9.81737 11.1576 10.4921C10.8259 11.2026 10.4968 11.8573 10.1706 12.4564C10.0492 12.6768 9.87101 12.8608 9.65429 12.9897C9.45798 13.1054 9.23412 13.1667 9.00597 13.1672C8.77484 13.1661 8.548 13.1049 8.34794 12.9897C8.12949 12.8659 7.95291 12.6803 7.84062 12.4564C7.51484 11.8578 7.18583 11.2031 6.85359 10.4921C6.53507 9.81737 6.26094 9.12275 6.03292 8.41264C6.01622 8.33777 5.97306 8.27136 5.91131 8.22549C5.88742 8.20763 5.85956 8.19574 5.83009 8.19083C5.80062 8.18592 5.77039 8.18813 5.74196 8.19727C5.71281 8.20745 5.6861 8.22353 5.6635 8.24449C5.6409 8.26546 5.62291 8.29084 5.61065 8.31907C5.57733 8.40251 5.57391 8.49483 5.60095 8.58048C5.70675 8.98459 5.83858 9.3815 5.99562 9.76874C6.14732 10.1351 6.33035 10.5426 6.54472 10.9912Z"/>
</mask>
<path d="M6.54472 10.9912C6.51985 11.615 6.4823 12.198 6.43206 12.7401C6.38183 13.2823 6.32562 13.8665 6.26345 14.4928C6.22935 14.8279 6.15419 15.1576 6.03963 15.4746C5.93423 15.7686 5.77145 16.0389 5.56066 16.27C5.34855 16.4968 5.09146 16.6774 4.80565 16.8002C4.4819 16.9367 4.13282 17.0036 3.78131 16.9963C3.42317 17.0048 3.06725 16.938 2.73683 16.8002C2.45203 16.6762 2.19621 16.4946 1.98555 16.267C1.77427 16.0361 1.61121 15.7658 1.50583 15.4716C1.39092 15.1548 1.31574 14.825 1.28201 14.4898C0.905996 10.8324 0.905996 7.14626 1.28201 3.48881C1.31507 3.15641 1.39027 2.82951 1.50583 2.51592C1.61307 2.22554 1.776 1.95868 1.98555 1.73019C2.19729 1.50341 2.45383 1.32263 2.73907 1.19919C3.06949 1.0614 3.42541 0.994588 3.78355 1.00312C4.18288 0.991915 4.57919 1.07514 4.93994 1.24598C5.25526 1.40533 5.52866 1.63603 5.73823 1.91957C6.03348 2.33576 6.30739 2.76655 6.55889 3.21031C6.82847 3.68462 7.09158 4.17428 7.34822 4.67929C7.60487 5.1843 7.85156 5.69797 8.08831 6.22031C8.32606 6.74463 8.55783 7.24988 8.78364 7.73608C8.84631 7.86084 8.92092 7.92323 9.00746 7.92323C9.09475 7.92323 9.1701 7.86084 9.23128 7.73608C9.45659 7.24988 9.68836 6.74463 9.92661 6.22031C10.1648 5.69599 10.4135 5.18158 10.6727 4.67706C10.9293 4.17205 11.1924 3.68239 11.462 3.20808C11.7132 2.76416 11.9871 2.33335 12.2827 1.91734C12.484 1.6297 12.7557 1.39787 13.072 1.24375C13.4361 1.07348 13.8352 0.99032 14.2373 1.0009C14.5955 0.99236 14.9514 1.05917 15.2818 1.19696C15.5666 1.32149 15.8226 1.503 16.0339 1.73019C16.2429 1.9589 16.4056 2.22571 16.5128 2.51592C16.6284 2.82951 16.7036 3.15641 16.7366 3.48881C16.9117 5.27119 16.9995 7.10482 17 8.98969C17.0005 10.8746 16.911 12.7089 16.7314 14.4928C16.6977 14.828 16.6225 15.1577 16.5076 15.4746C16.4022 15.7686 16.2394 16.0389 16.0286 16.27C15.8175 16.4974 15.5615 16.6789 15.2766 16.8032C14.9462 16.941 14.5903 17.0078 14.2321 16.9993C13.8806 17.0066 13.5315 16.9398 13.2078 16.8032C12.9228 16.6791 12.6667 16.4976 12.4557 16.27C12.245 16.0389 12.0822 15.7686 11.9768 15.4746C11.8619 15.1577 11.7867 14.828 11.753 14.4928C11.6893 13.869 11.6328 13.2857 11.5836 12.7431C11.5344 12.2005 11.4968 11.6175 11.4709 10.9941C11.6833 10.5446 11.8649 10.1361 12.0156 9.76874C12.1726 9.3815 12.3044 8.98459 12.4102 8.58048C12.4367 8.4948 12.4335 8.40276 12.4013 8.31907C12.3889 8.29077 12.3708 8.26533 12.3481 8.24437C12.3254 8.2234 12.2985 8.20737 12.2692 8.19727C12.2409 8.18806 12.2108 8.18582 12.1814 8.19074C12.1521 8.19565 12.1243 8.20758 12.1006 8.22549C12.0382 8.27085 11.9947 8.33745 11.9783 8.41264C11.7503 9.12275 11.4761 9.81737 11.1576 10.4921C10.8259 11.2026 10.4968 11.8573 10.1706 12.4564C10.0492 12.6768 9.87101 12.8608 9.65429 12.9897C9.45798 13.1054 9.23412 13.1667 9.00597 13.1672C8.77484 13.1661 8.548 13.1049 8.34794 12.9897C8.12949 12.8659 7.95291 12.6803 7.84062 12.4564C7.51484 11.8578 7.18583 11.2031 6.85359 10.4921C6.53507 9.81737 6.26094 9.12275 6.03292 8.41264C6.01622 8.33777 5.97306 8.27136 5.91131 8.22549C5.88742 8.20763 5.85956 8.19574 5.83009 8.19083C5.80062 8.18592 5.77039 8.18813 5.74196 8.19727C5.71281 8.20745 5.6861 8.22353 5.6635 8.24449C5.6409 8.26546 5.62291 8.29084 5.61065 8.31907C5.57733 8.40251 5.57391 8.49483 5.60095 8.58048C5.70675 8.98459 5.83858 9.3815 5.99562 9.76874C6.14732 10.1351 6.33035 10.5426 6.54472 10.9912Z" fill="white"/>
<path d="M6.54472 10.9912C6.51985 11.615 6.4823 12.198 6.43206 12.7401C6.38183 13.2823 6.32562 13.8665 6.26345 14.4928C6.22935 14.8279 6.15419 15.1576 6.03963 15.4746C5.93423 15.7686 5.77145 16.0389 5.56066 16.27C5.34855 16.4968 5.09146 16.6774 4.80565 16.8002C4.4819 16.9367 4.13282 17.0036 3.78131 16.9963C3.42317 17.0048 3.06725 16.938 2.73683 16.8002C2.45203 16.6762 2.19621 16.4946 1.98555 16.267C1.77427 16.0361 1.61121 15.7658 1.50583 15.4716C1.39092 15.1548 1.31574 14.825 1.28201 14.4898C0.905996 10.8324 0.905996 7.14626 1.28201 3.48881C1.31507 3.15641 1.39027 2.82951 1.50583 2.51592C1.61307 2.22554 1.776 1.95868 1.98555 1.73019C2.19729 1.50341 2.45383 1.32263 2.73907 1.19919C3.06949 1.0614 3.42541 0.994588 3.78355 1.00312C4.18288 0.991915 4.57919 1.07514 4.93994 1.24598C5.25526 1.40533 5.52866 1.63603 5.73823 1.91957C6.03348 2.33576 6.30739 2.76655 6.55889 3.21031C6.82847 3.68462 7.09158 4.17428 7.34822 4.67929C7.60487 5.1843 7.85156 5.69797 8.08831 6.22031C8.32606 6.74463 8.55783 7.24988 8.78364 7.73608C8.84631 7.86084 8.92092 7.92323 9.00746 7.92323C9.09475 7.92323 9.1701 7.86084 9.23128 7.73608C9.45659 7.24988 9.68836 6.74463 9.92661 6.22031C10.1648 5.69599 10.4135 5.18158 10.6727 4.67706C10.9293 4.17205 11.1924 3.68239 11.462 3.20808C11.7132 2.76416 11.9871 2.33335 12.2827 1.91734C12.484 1.6297 12.7557 1.39787 13.072 1.24375C13.4361 1.07348 13.8352 0.99032 14.2373 1.0009C14.5955 0.99236 14.9514 1.05917 15.2818 1.19696C15.5666 1.32149 15.8226 1.503 16.0339 1.73019C16.2429 1.9589 16.4056 2.22571 16.5128 2.51592C16.6284 2.82951 16.7036 3.15641 16.7366 3.48881C16.9117 5.27119 16.9995 7.10482 17 8.98969C17.0005 10.8746 16.911 12.7089 16.7314 14.4928C16.6977 14.828 16.6225 15.1577 16.5076 15.4746C16.4022 15.7686 16.2394 16.0389 16.0286 16.27C15.8175 16.4974 15.5615 16.6789 15.2766 16.8032C14.9462 16.941 14.5903 17.0078 14.2321 16.9993C13.8806 17.0066 13.5315 16.9398 13.2078 16.8032C12.9228 16.6791 12.6667 16.4976 12.4557 16.27C12.245 16.0389 12.0822 15.7686 11.9768 15.4746C11.8619 15.1577 11.7867 14.828 11.753 14.4928C11.6893 13.869 11.6328 13.2857 11.5836 12.7431C11.5344 12.2005 11.4968 11.6175 11.4709 10.9941C11.6833 10.5446 11.8649 10.1361 12.0156 9.76874C12.1726 9.3815 12.3044 8.98459 12.4102 8.58048C12.4367 8.4948 12.4335 8.40276 12.4013 8.31907C12.3889 8.29077 12.3708 8.26533 12.3481 8.24437C12.3254 8.2234 12.2985 8.20737 12.2692 8.19727C12.2409 8.18806 12.2108 8.18582 12.1814 8.19074C12.1521 8.19565 12.1243 8.20758 12.1006 8.22549C12.0382 8.27085 11.9947 8.33745 11.9783 8.41264C11.7503 9.12275 11.4761 9.81737 11.1576 10.4921C10.8259 11.2026 10.4968 11.8573 10.1706 12.4564C10.0492 12.6768 9.87101 12.8608 9.65429 12.9897C9.45798 13.1054 9.23412 13.1667 9.00597 13.1672C8.77484 13.1661 8.548 13.1049 8.34794 12.9897C8.12949 12.8659 7.95291 12.6803 7.84062 12.4564C7.51484 11.8578 7.18583 11.2031 6.85359 10.4921C6.53507 9.81737 6.26094 9.12275 6.03292 8.41264C6.01622 8.33777 5.97306 8.27136 5.91131 8.22549C5.88742 8.20763 5.85956 8.19574 5.83009 8.19083C5.80062 8.18592 5.77039 8.18813 5.74196 8.19727C5.71281 8.20745 5.6861 8.22353 5.6635 8.24449C5.6409 8.26546 5.62291 8.29084 5.61065 8.31907C5.57733 8.40251 5.57391 8.49483 5.60095 8.58048C5.70675 8.98459 5.83858 9.3815 5.99562 9.76874C6.14732 10.1351 6.33035 10.5426 6.54472 10.9912Z" stroke="black" mask="url(#path-1-outside-1_1882_1573)"/>
<mask id="path-2-outside-2_1882_1573" maskUnits="userSpaceOnUse" x="15" y="2" width="14" height="18" fill="black">
<rect fill="white" x="15" y="2" width="14" height="18"/>
<path d="M23.9506 11.8296C23.9984 11.7455 24.0121 11.6465 23.9889 11.5527C23.9792 11.5215 23.9632 11.4927 23.9417 11.468C23.9202 11.4433 23.8938 11.4233 23.8641 11.4093C23.8023 11.3842 23.733 11.3842 23.6712 11.4093C23.5985 11.4364 23.5396 11.491 23.5074 11.5611C23.1339 12.1594 22.7129 12.6085 22.2444 12.9085C21.776 13.2084 21.1876 13.3586 20.4793 13.3591C19.8927 13.3576 19.3113 13.2507 18.7632 13.0435C18.2094 12.8403 17.7015 12.5309 17.2683 12.1331C16.8303 11.7259 16.4891 11.2273 16.2694 10.6734C16.0316 10.0937 15.9512 9.42812 16.0283 8.67651L16.4722 4.89217C16.5365 4.3186 16.7646 3.85985 17.1565 3.51591C17.5485 3.17197 18.0332 3 18.6109 3H19.8823C20.4599 3 20.884 3.16893 21.1544 3.5068C21.4249 3.84467 21.5014 4.29382 21.3841 4.85424L20.5352 8.8677C20.5219 8.90674 20.5167 8.94806 20.52 8.98915C20.5232 9.03024 20.5349 9.07023 20.5543 9.10669C20.5708 9.13901 20.5938 9.16759 20.622 9.19058C20.6502 9.21357 20.683 9.23048 20.7181 9.24022C20.7932 9.25873 20.8725 9.24843 20.9401 9.21139C20.9829 9.18677 21.0202 9.15396 21.0501 9.11489C21.0799 9.07581 21.1016 9.03124 21.1139 8.98378L22.0584 4.85575C22.1719 4.31904 22.4765 3.84074 22.9165 3.50832C23.3544 3.17281 23.894 2.99417 24.4474 3.00152H25.643C26.3375 3.00152 26.8988 3.21167 27.327 3.63199C27.7551 4.0523 27.973 4.60615 27.9806 5.29352L27.9998 10.6643C28.0125 13.0597 27.4726 15.0472 26.3801 16.6268C26.0938 17.0254 25.7533 17.3829 25.3682 17.689C24.9911 17.9869 24.576 18.2341 24.1335 18.4242C23.6847 18.6178 23.2161 18.7628 22.7358 18.8566C22.2468 18.9523 21.7494 19.0003 21.2509 19C21.0978 19 20.8911 18.9909 20.6339 18.9712C20.3768 18.9514 20.0981 18.9203 19.7858 18.8756C19.4735 18.8308 19.1651 18.7769 18.8505 18.7132C18.5645 18.6583 18.283 18.5822 18.0085 18.4856C17.6997 18.3826 17.4214 18.2054 17.1986 17.9697C17.0093 17.7594 16.8738 17.507 16.8037 17.2338C16.7322 16.9528 16.7091 16.662 16.7356 16.3734C16.7611 16.0765 16.8259 15.7841 16.9284 15.504C17.0166 15.253 17.1265 15.0101 17.2568 14.7779C17.3772 14.5574 17.5322 14.3574 17.7161 14.1854C17.8989 14.0177 18.1158 13.8907 18.3522 13.8128C18.6199 13.7275 18.9038 13.7046 19.1819 13.7461C19.362 13.7709 19.6029 13.7931 19.9045 13.8128C20.2061 13.8326 20.4729 13.8419 20.7051 13.8409C21.515 13.8409 22.1674 13.6563 22.6624 13.2871C23.184 12.8897 23.6217 12.3945 23.9506 11.8296Z"/>
</mask>
<path d="M23.9506 11.8296C23.9984 11.7455 24.0121 11.6465 23.9889 11.5527C23.9792 11.5215 23.9632 11.4927 23.9417 11.468C23.9202 11.4433 23.8938 11.4233 23.8641 11.4093C23.8023 11.3842 23.733 11.3842 23.6712 11.4093C23.5985 11.4364 23.5396 11.491 23.5074 11.5611C23.1339 12.1594 22.7129 12.6085 22.2444 12.9085C21.776 13.2084 21.1876 13.3586 20.4793 13.3591C19.8927 13.3576 19.3113 13.2507 18.7632 13.0435C18.2094 12.8403 17.7015 12.5309 17.2683 12.1331C16.8303 11.7259 16.4891 11.2273 16.2694 10.6734C16.0316 10.0937 15.9512 9.42812 16.0283 8.67651L16.4722 4.89217C16.5365 4.3186 16.7646 3.85985 17.1565 3.51591C17.5485 3.17197 18.0332 3 18.6109 3H19.8823C20.4599 3 20.884 3.16893 21.1544 3.5068C21.4249 3.84467 21.5014 4.29382 21.3841 4.85424L20.5352 8.8677C20.5219 8.90674 20.5167 8.94806 20.52 8.98915C20.5232 9.03024 20.5349 9.07023 20.5543 9.10669C20.5708 9.13901 20.5938 9.16759 20.622 9.19058C20.6502 9.21357 20.683 9.23048 20.7181 9.24022C20.7932 9.25873 20.8725 9.24843 20.9401 9.21139C20.9829 9.18677 21.0202 9.15396 21.0501 9.11489C21.0799 9.07581 21.1016 9.03124 21.1139 8.98378L22.0584 4.85575C22.1719 4.31904 22.4765 3.84074 22.9165 3.50832C23.3544 3.17281 23.894 2.99417 24.4474 3.00152H25.643C26.3375 3.00152 26.8988 3.21167 27.327 3.63199C27.7551 4.0523 27.973 4.60615 27.9806 5.29352L27.9998 10.6643C28.0125 13.0597 27.4726 15.0472 26.3801 16.6268C26.0938 17.0254 25.7533 17.3829 25.3682 17.689C24.9911 17.9869 24.576 18.2341 24.1335 18.4242C23.6847 18.6178 23.2161 18.7628 22.7358 18.8566C22.2468 18.9523 21.7494 19.0003 21.2509 19C21.0978 19 20.8911 18.9909 20.6339 18.9712C20.3768 18.9514 20.0981 18.9203 19.7858 18.8756C19.4735 18.8308 19.1651 18.7769 18.8505 18.7132C18.5645 18.6583 18.283 18.5822 18.0085 18.4856C17.6997 18.3826 17.4214 18.2054 17.1986 17.9697C17.0093 17.7594 16.8738 17.507 16.8037 17.2338C16.7322 16.9528 16.7091 16.662 16.7356 16.3734C16.7611 16.0765 16.8259 15.7841 16.9284 15.504C17.0166 15.253 17.1265 15.0101 17.2568 14.7779C17.3772 14.5574 17.5322 14.3574 17.7161 14.1854C17.8989 14.0177 18.1158 13.8907 18.3522 13.8128C18.6199 13.7275 18.9038 13.7046 19.1819 13.7461C19.362 13.7709 19.6029 13.7931 19.9045 13.8128C20.2061 13.8326 20.4729 13.8419 20.7051 13.8409C21.515 13.8409 22.1674 13.6563 22.6624 13.2871C23.184 12.8897 23.6217 12.3945 23.9506 11.8296Z" fill="white"/>
<path d="M23.9506 11.8296C23.9984 11.7455 24.0121 11.6465 23.9889 11.5527C23.9792 11.5215 23.9632 11.4927 23.9417 11.468C23.9202 11.4433 23.8938 11.4233 23.8641 11.4093C23.8023 11.3842 23.733 11.3842 23.6712 11.4093C23.5985 11.4364 23.5396 11.491 23.5074 11.5611C23.1339 12.1594 22.7129 12.6085 22.2444 12.9085C21.776 13.2084 21.1876 13.3586 20.4793 13.3591C19.8927 13.3576 19.3113 13.2507 18.7632 13.0435C18.2094 12.8403 17.7015 12.5309 17.2683 12.1331C16.8303 11.7259 16.4891 11.2273 16.2694 10.6734C16.0316 10.0937 15.9512 9.42812 16.0283 8.67651L16.4722 4.89217C16.5365 4.3186 16.7646 3.85985 17.1565 3.51591C17.5485 3.17197 18.0332 3 18.6109 3H19.8823C20.4599 3 20.884 3.16893 21.1544 3.5068C21.4249 3.84467 21.5014 4.29382 21.3841 4.85424L20.5352 8.8677C20.5219 8.90674 20.5167 8.94806 20.52 8.98915C20.5232 9.03024 20.5349 9.07023 20.5543 9.10669C20.5708 9.13901 20.5938 9.16759 20.622 9.19058C20.6502 9.21357 20.683 9.23048 20.7181 9.24022C20.7932 9.25873 20.8725 9.24843 20.9401 9.21139C20.9829 9.18677 21.0202 9.15396 21.0501 9.11489C21.0799 9.07581 21.1016 9.03124 21.1139 8.98378L22.0584 4.85575C22.1719 4.31904 22.4765 3.84074 22.9165 3.50832C23.3544 3.17281 23.894 2.99417 24.4474 3.00152H25.643C26.3375 3.00152 26.8988 3.21167 27.327 3.63199C27.7551 4.0523 27.973 4.60615 27.9806 5.29352L27.9998 10.6643C28.0125 13.0597 27.4726 15.0472 26.3801 16.6268C26.0938 17.0254 25.7533 17.3829 25.3682 17.689C24.9911 17.9869 24.576 18.2341 24.1335 18.4242C23.6847 18.6178 23.2161 18.7628 22.7358 18.8566C22.2468 18.9523 21.7494 19.0003 21.2509 19C21.0978 19 20.8911 18.9909 20.6339 18.9712C20.3768 18.9514 20.0981 18.9203 19.7858 18.8756C19.4735 18.8308 19.1651 18.7769 18.8505 18.7132C18.5645 18.6583 18.283 18.5822 18.0085 18.4856C17.6997 18.3826 17.4214 18.2054 17.1986 17.9697C17.0093 17.7594 16.8738 17.507 16.8037 17.2338C16.7322 16.9528 16.7091 16.662 16.7356 16.3734C16.7611 16.0765 16.8259 15.7841 16.9284 15.504C17.0166 15.253 17.1265 15.0101 17.2568 14.7779C17.3772 14.5574 17.5322 14.3574 17.7161 14.1854C17.8989 14.0177 18.1158 13.8907 18.3522 13.8128C18.6199 13.7275 18.9038 13.7046 19.1819 13.7461C19.362 13.7709 19.6029 13.7931 19.9045 13.8128C20.2061 13.8326 20.4729 13.8419 20.7051 13.8409C21.515 13.8409 22.1674 13.6563 22.6624 13.2871C23.184 12.8897 23.6217 12.3945 23.9506 11.8296Z" stroke="black" mask="url(#path-2-outside-2_1882_1573)"/>
<mask id="path-3-outside-3_1882_1573" maskUnits="userSpaceOnUse" x="31" y="0" width="14" height="18" fill="black">
<rect fill="white" x="31" width="14" height="18"/>
<path d="M32.271 13.5629C32.1809 12.9023 32.113 12.1732 32.0672 11.3757C32.0214 10.5781 31.999 9.74607 32 8.8797C32 8.01284 32.0227 7.13707 32.068 6.25239C32.1132 5.36772 32.1812 4.50184 32.2717 3.65477C32.3494 2.87004 32.625 2.23127 33.0984 1.73847C33.5718 1.24566 34.2557 0.999506 35.15 1C35.8503 1 36.4045 1.16526 36.8126 1.49578C37.2348 1.8463 37.5477 2.30259 37.7164 2.81388C37.9218 3.42437 38.0331 4.06049 38.0468 4.70199C38.072 5.43794 38.0527 6.17468 37.9889 6.90848C37.9447 7.46046 37.8632 8.0091 37.745 8.55092C37.6462 8.99922 37.5129 9.43982 37.3459 9.86903C37.2019 10.2391 37.0231 10.5958 36.8118 10.9348C36.6131 11.2488 36.3956 11.5513 36.1604 11.841C36.1367 11.8697 36.1193 11.9027 36.1092 11.938C36.0992 11.9734 36.0966 12.0103 36.1017 12.0466C36.1059 12.0743 36.1157 12.101 36.1307 12.1251C36.1457 12.1492 36.1655 12.1702 36.1889 12.1869C36.2372 12.2193 36.2966 12.2328 36.3549 12.2247C36.4299 12.213 36.4984 12.1765 36.5486 12.1215C36.7938 11.8119 37.0601 11.5183 37.3459 11.2428C37.6246 10.9739 37.9308 10.7327 38.2598 10.5229C38.5841 10.3173 38.9336 10.151 39.3003 10.0279C39.6849 9.90079 40.0892 9.83754 40.4959 9.84083C41.0098 9.82923 41.5214 9.91158 42.0033 10.0835C42.395 10.2281 42.7521 10.4475 43.0531 10.7285C43.3321 10.9977 43.5505 11.3193 43.6945 11.6733C43.8459 12.0447 43.9411 12.4351 43.977 12.8325C44.0542 13.6425 43.9373 14.3125 43.6265 14.8424C43.312 15.3742 42.8556 15.8156 42.3044 16.1211C41.6786 16.4642 40.9935 16.6955 40.2821 16.8039C39.4729 16.9371 38.6532 17.0027 37.8322 16.9999C37.1551 17.0028 36.4788 16.9532 35.8099 16.8514C35.2193 16.7655 34.6477 16.5854 34.1188 16.3186C33.6305 16.0667 33.2106 15.708 32.8931 15.2713C32.5689 14.8305 32.3615 14.261 32.271 13.5629Z"/>
</mask>
<path d="M32.271 13.5629C32.1809 12.9023 32.113 12.1732 32.0672 11.3757C32.0214 10.5781 31.999 9.74607 32 8.8797C32 8.01284 32.0227 7.13707 32.068 6.25239C32.1132 5.36772 32.1812 4.50184 32.2717 3.65477C32.3494 2.87004 32.625 2.23127 33.0984 1.73847C33.5718 1.24566 34.2557 0.999506 35.15 1C35.8503 1 36.4045 1.16526 36.8126 1.49578C37.2348 1.8463 37.5477 2.30259 37.7164 2.81388C37.9218 3.42437 38.0331 4.06049 38.0468 4.70199C38.072 5.43794 38.0527 6.17468 37.9889 6.90848C37.9447 7.46046 37.8632 8.0091 37.745 8.55092C37.6462 8.99922 37.5129 9.43982 37.3459 9.86903C37.2019 10.2391 37.0231 10.5958 36.8118 10.9348C36.6131 11.2488 36.3956 11.5513 36.1604 11.841C36.1367 11.8697 36.1193 11.9027 36.1092 11.938C36.0992 11.9734 36.0966 12.0103 36.1017 12.0466C36.1059 12.0743 36.1157 12.101 36.1307 12.1251C36.1457 12.1492 36.1655 12.1702 36.1889 12.1869C36.2372 12.2193 36.2966 12.2328 36.3549 12.2247C36.4299 12.213 36.4984 12.1765 36.5486 12.1215C36.7938 11.8119 37.0601 11.5183 37.3459 11.2428C37.6246 10.9739 37.9308 10.7327 38.2598 10.5229C38.5841 10.3173 38.9336 10.151 39.3003 10.0279C39.6849 9.90079 40.0892 9.83754 40.4959 9.84083C41.0098 9.82923 41.5214 9.91158 42.0033 10.0835C42.395 10.2281 42.7521 10.4475 43.0531 10.7285C43.3321 10.9977 43.5505 11.3193 43.6945 11.6733C43.8459 12.0447 43.9411 12.4351 43.977 12.8325C44.0542 13.6425 43.9373 14.3125 43.6265 14.8424C43.312 15.3742 42.8556 15.8156 42.3044 16.1211C41.6786 16.4642 40.9935 16.6955 40.2821 16.8039C39.4729 16.9371 38.6532 17.0027 37.8322 16.9999C37.1551 17.0028 36.4788 16.9532 35.8099 16.8514C35.2193 16.7655 34.6477 16.5854 34.1188 16.3186C33.6305 16.0667 33.2106 15.708 32.8931 15.2713C32.5689 14.8305 32.3615 14.261 32.271 13.5629Z" fill="white"/>
<path d="M32.271 13.5629C32.1809 12.9023 32.113 12.1732 32.0672 11.3757C32.0214 10.5781 31.999 9.74607 32 8.8797C32 8.01284 32.0227 7.13707 32.068 6.25239C32.1132 5.36772 32.1812 4.50184 32.2717 3.65477C32.3494 2.87004 32.625 2.23127 33.0984 1.73847C33.5718 1.24566 34.2557 0.999506 35.15 1C35.8503 1 36.4045 1.16526 36.8126 1.49578C37.2348 1.8463 37.5477 2.30259 37.7164 2.81388C37.9218 3.42437 38.0331 4.06049 38.0468 4.70199C38.072 5.43794 38.0527 6.17468 37.9889 6.90848C37.9447 7.46046 37.8632 8.0091 37.745 8.55092C37.6462 8.99922 37.5129 9.43982 37.3459 9.86903C37.2019 10.2391 37.0231 10.5958 36.8118 10.9348C36.6131 11.2488 36.3956 11.5513 36.1604 11.841C36.1367 11.8697 36.1193 11.9027 36.1092 11.938C36.0992 11.9734 36.0966 12.0103 36.1017 12.0466C36.1059 12.0743 36.1157 12.101 36.1307 12.1251C36.1457 12.1492 36.1655 12.1702 36.1889 12.1869C36.2372 12.2193 36.2966 12.2328 36.3549 12.2247C36.4299 12.213 36.4984 12.1765 36.5486 12.1215C36.7938 11.8119 37.0601 11.5183 37.3459 11.2428C37.6246 10.9739 37.9308 10.7327 38.2598 10.5229C38.5841 10.3173 38.9336 10.151 39.3003 10.0279C39.6849 9.90079 40.0892 9.83754 40.4959 9.84083C41.0098 9.82923 41.5214 9.91158 42.0033 10.0835C42.395 10.2281 42.7521 10.4475 43.0531 10.7285C43.3321 10.9977 43.5505 11.3193 43.6945 11.6733C43.8459 12.0447 43.9411 12.4351 43.977 12.8325C44.0542 13.6425 43.9373 14.3125 43.6265 14.8424C43.312 15.3742 42.8556 15.8156 42.3044 16.1211C41.6786 16.4642 40.9935 16.6955 40.2821 16.8039C39.4729 16.9371 38.6532 17.0027 37.8322 16.9999C37.1551 17.0028 36.4788 16.9532 35.8099 16.8514C35.2193 16.7655 34.6477 16.5854 34.1188 16.3186C33.6305 16.0667 33.2106 15.708 32.8931 15.2713C32.5689 14.8305 32.3615 14.261 32.271 13.5629Z" stroke="black" mask="url(#path-3-outside-3_1882_1573)"/>
<mask id="path-4-outside-4_1882_1573" maskUnits="userSpaceOnUse" x="42" y="0" width="8" height="18" fill="black">
<rect fill="white" x="42" width="8" height="18"/>
<path d="M43.2861 15.447C42.9046 13.1969 42.9046 10.9072 43.2861 8.65711C43.3536 8.22535 43.6085 7.85821 44.0509 7.55569C44.4932 7.25317 45.1497 7.10215 46.0203 7.10264C46.8639 7.10264 47.5002 7.25366 47.929 7.55569C48.3578 7.85772 48.6128 8.22486 48.6938 8.65711C49.1021 10.9048 49.1021 13.1979 48.6938 15.4455C48.6128 15.8773 48.3578 16.2444 47.929 16.5469C47.5002 16.8495 46.8639 17.0005 46.0203 17C45.1497 17 44.4932 16.849 44.0509 16.5469C43.6085 16.2449 43.3536 15.8783 43.2861 15.447ZM46.0203 6.14294C45.6751 6.14423 45.3326 6.08772 45.0101 5.97625C44.6919 5.86626 44.4033 5.69604 44.1635 5.47694C43.9097 5.24291 43.7085 4.96632 43.5713 4.66263C43.4161 4.31635 43.3397 3.94519 43.3469 3.57149C43.3417 3.22708 43.4124 2.8852 43.555 2.56593C43.6976 2.24666 43.9092 1.95643 44.1773 1.71229C44.423 1.48832 44.714 1.30932 45.0344 1.18508C45.3472 1.0634 45.684 1.00045 46.0244 1.00004C46.3857 0.998036 46.7424 1.07352 47.0654 1.22032C47.3899 1.36658 47.6808 1.56742 47.9225 1.81215C48.1659 2.05942 48.358 2.34449 48.4896 2.65364C48.6247 2.96288 48.6939 3.2925 48.6938 3.62509C48.6965 3.95765 48.6271 4.28746 48.4896 4.59581C48.3604 4.88882 48.1737 5.15823 47.9387 5.39103C47.6933 5.62913 47.3961 5.81865 47.066 5.94767C46.7359 6.07668 46.3798 6.14242 46.0203 6.14073V6.14294Z"/>
</mask>
<path d="M43.2861 15.447C42.9046 13.1969 42.9046 10.9072 43.2861 8.65711C43.3536 8.22535 43.6085 7.85821 44.0509 7.55569C44.4932 7.25317 45.1497 7.10215 46.0203 7.10264C46.8639 7.10264 47.5002 7.25366 47.929 7.55569C48.3578 7.85772 48.6128 8.22486 48.6938 8.65711C49.1021 10.9048 49.1021 13.1979 48.6938 15.4455C48.6128 15.8773 48.3578 16.2444 47.929 16.5469C47.5002 16.8495 46.8639 17.0005 46.0203 17C45.1497 17 44.4932 16.849 44.0509 16.5469C43.6085 16.2449 43.3536 15.8783 43.2861 15.447ZM46.0203 6.14294C45.6751 6.14423 45.3326 6.08772 45.0101 5.97625C44.6919 5.86626 44.4033 5.69604 44.1635 5.47694C43.9097 5.24291 43.7085 4.96632 43.5713 4.66263C43.4161 4.31635 43.3397 3.94519 43.3469 3.57149C43.3417 3.22708 43.4124 2.8852 43.555 2.56593C43.6976 2.24666 43.9092 1.95643 44.1773 1.71229C44.423 1.48832 44.714 1.30932 45.0344 1.18508C45.3472 1.0634 45.684 1.00045 46.0244 1.00004C46.3857 0.998036 46.7424 1.07352 47.0654 1.22032C47.3899 1.36658 47.6808 1.56742 47.9225 1.81215C48.1659 2.05942 48.358 2.34449 48.4896 2.65364C48.6247 2.96288 48.6939 3.2925 48.6938 3.62509C48.6965 3.95765 48.6271 4.28746 48.4896 4.59581C48.3604 4.88882 48.1737 5.15823 47.9387 5.39103C47.6933 5.62913 47.3961 5.81865 47.066 5.94767C46.7359 6.07668 46.3798 6.14242 46.0203 6.14073V6.14294Z" fill="white"/>
<path d="M43.2861 15.447C42.9046 13.1969 42.9046 10.9072 43.2861 8.65711C43.3536 8.22535 43.6085 7.85821 44.0509 7.55569C44.4932 7.25317 45.1497 7.10215 46.0203 7.10264C46.8639 7.10264 47.5002 7.25366 47.929 7.55569C48.3578 7.85772 48.6128 8.22486 48.6938 8.65711C49.1021 10.9048 49.1021 13.1979 48.6938 15.4455C48.6128 15.8773 48.3578 16.2444 47.929 16.5469C47.5002 16.8495 46.8639 17.0005 46.0203 17C45.1497 17 44.4932 16.849 44.0509 16.5469C43.6085 16.2449 43.3536 15.8783 43.2861 15.447ZM46.0203 6.14294C45.6751 6.14423 45.3326 6.08772 45.0101 5.97625C44.6919 5.86626 44.4033 5.69604 44.1635 5.47694C43.9097 5.24291 43.7085 4.96632 43.5713 4.66263C43.4161 4.31635 43.3397 3.94519 43.3469 3.57149C43.3417 3.22708 43.4124 2.8852 43.555 2.56593C43.6976 2.24666 43.9092 1.95643 44.1773 1.71229C44.423 1.48832 44.714 1.30932 45.0344 1.18508C45.3472 1.0634 45.684 1.00045 46.0244 1.00004C46.3857 0.998036 46.7424 1.07352 47.0654 1.22032C47.3899 1.36658 47.6808 1.56742 47.9225 1.81215C48.1659 2.05942 48.358 2.34449 48.4896 2.65364C48.6247 2.96288 48.6939 3.2925 48.6938 3.62509C48.6965 3.95765 48.6271 4.28746 48.4896 4.59581C48.3604 4.88882 48.1737 5.15823 47.9387 5.39103C47.6933 5.62913 47.3961 5.81865 47.066 5.94767C46.7359 6.07668 46.3798 6.14242 46.0203 6.14073V6.14294Z" stroke="black" mask="url(#path-4-outside-4_1882_1573)"/>
<mask id="path-5-outside-5_1882_1573" maskUnits="userSpaceOnUse" x="47" y="4" width="13" height="14" fill="black">
<rect fill="white" x="47" y="4" width="13" height="14"/>
<path d="M54.3817 13.5264C54.3957 13.5591 54.4167 13.5886 54.4434 13.6129C54.47 13.6371 54.5017 13.6557 54.5364 13.6673C54.5933 13.686 54.655 13.686 54.7119 13.6673C54.7393 13.6562 54.7639 13.6395 54.7841 13.6184C54.8042 13.5973 54.8194 13.5723 54.8287 13.5451C54.8412 13.5113 54.8459 13.4754 54.8425 13.4398C54.8392 13.4041 54.8279 13.3696 54.8094 13.3386C54.6432 13.0347 54.4542 12.7429 54.244 12.4655C54.0141 12.1622 53.7495 11.8848 53.4552 11.6387C53.1369 11.3739 52.7869 11.1469 52.4126 10.9625C52.0035 10.7629 51.5642 10.627 51.111 10.5599C50.1892 10.3973 49.4619 10.1155 48.9293 9.71439C48.3967 9.31328 48.1304 8.71236 48.1304 7.91164C48.126 7.48469 48.2613 7.06726 48.5171 6.71874C48.8035 6.33911 49.1732 6.02499 49.5999 5.79872C50.1115 5.52351 50.6632 5.32396 51.2363 5.20675C51.9115 5.06473 52.6009 4.99546 53.292 5.00023C53.8857 5.00401 54.4782 5.05111 55.0646 5.14114C55.6702 5.22683 56.2625 5.3846 56.8279 5.61084C57.3279 5.80412 57.7771 6.10236 58.1426 6.48389C58.4798 6.84723 58.6291 7.29183 58.5904 7.81769C58.5748 8.12052 58.488 8.41598 58.3367 8.6818C58.2054 8.90835 58.0198 9.10135 57.7954 9.24469C57.5653 9.38564 57.3114 9.48658 57.0452 9.54291C56.7664 9.606 56.4809 9.63753 56.1945 9.63686C55.7886 9.64214 55.3875 9.55207 55.0259 9.37442C54.6746 9.19915 54.3418 8.99141 54.0321 8.75412C53.6939 8.5056 53.3951 8.27398 53.1358 8.05925C52.8764 7.84453 52.5784 7.5821 52.2417 7.27195C52.1874 7.22646 52.1187 7.20016 52.0468 7.19739C51.9861 7.19602 51.9269 7.21618 51.8806 7.25405C51.8586 7.27143 51.8405 7.29283 51.8272 7.31702C51.8139 7.34121 51.8058 7.36771 51.8032 7.39496C51.8019 7.42662 51.8093 7.45806 51.8246 7.48608C51.84 7.5141 51.8627 7.53771 51.8906 7.55451C52.0855 7.74239 52.316 7.95214 52.582 8.18376C53.248 8.75624 53.9819 9.25076 54.7684 9.65699C55.2904 9.9287 55.8334 10.1612 56.3925 10.3526C56.7486 10.4802 57.0913 10.6405 57.4156 10.8312C57.7446 11.0239 58.0376 11.2683 58.2826 11.5544C58.5333 11.8495 58.7248 12.187 58.8472 12.5498C58.9813 12.9623 59.0278 13.3966 58.9841 13.8269C58.9503 14.313 58.7708 14.7792 58.4674 15.1689C58.1468 15.576 57.7424 15.9149 57.2795 16.1642C56.7515 16.4483 56.1837 16.6573 55.5936 16.7845C54.2626 17.0718 52.8821 17.0718 51.5511 16.7845C50.9634 16.656 50.3989 16.4439 49.876 16.1553C49.4084 15.8963 48.998 15.5516 48.6679 15.1406C48.3466 14.7337 48.1356 14.2561 48.0539 13.7508C47.9892 13.4004 47.9827 13.0423 48.0345 12.6899C48.0806 12.3608 48.2039 12.0462 48.3949 11.7699C48.5948 11.4912 48.8667 11.2676 49.1838 11.1213C49.522 10.9587 49.9572 10.8775 50.4892 10.8775C50.9478 10.8698 51.4033 10.9498 51.8295 11.1131C52.2103 11.2643 52.5651 11.4702 52.8821 11.7237C53.192 11.9723 53.4698 12.2559 53.7096 12.5684C53.9514 12.8815 54.1754 13.2009 54.3817 13.5264Z"/>
</mask>
<path d="M54.3817 13.5264C54.3957 13.5591 54.4167 13.5886 54.4434 13.6129C54.47 13.6371 54.5017 13.6557 54.5364 13.6673C54.5933 13.686 54.655 13.686 54.7119 13.6673C54.7393 13.6562 54.7639 13.6395 54.7841 13.6184C54.8042 13.5973 54.8194 13.5723 54.8287 13.5451C54.8412 13.5113 54.8459 13.4754 54.8425 13.4398C54.8392 13.4041 54.8279 13.3696 54.8094 13.3386C54.6432 13.0347 54.4542 12.7429 54.244 12.4655C54.0141 12.1622 53.7495 11.8848 53.4552 11.6387C53.1369 11.3739 52.7869 11.1469 52.4126 10.9625C52.0035 10.7629 51.5642 10.627 51.111 10.5599C50.1892 10.3973 49.4619 10.1155 48.9293 9.71439C48.3967 9.31328 48.1304 8.71236 48.1304 7.91164C48.126 7.48469 48.2613 7.06726 48.5171 6.71874C48.8035 6.33911 49.1732 6.02499 49.5999 5.79872C50.1115 5.52351 50.6632 5.32396 51.2363 5.20675C51.9115 5.06473 52.6009 4.99546 53.292 5.00023C53.8857 5.00401 54.4782 5.05111 55.0646 5.14114C55.6702 5.22683 56.2625 5.3846 56.8279 5.61084C57.3279 5.80412 57.7771 6.10236 58.1426 6.48389C58.4798 6.84723 58.6291 7.29183 58.5904 7.81769C58.5748 8.12052 58.488 8.41598 58.3367 8.6818C58.2054 8.90835 58.0198 9.10135 57.7954 9.24469C57.5653 9.38564 57.3114 9.48658 57.0452 9.54291C56.7664 9.606 56.4809 9.63753 56.1945 9.63686C55.7886 9.64214 55.3875 9.55207 55.0259 9.37442C54.6746 9.19915 54.3418 8.99141 54.0321 8.75412C53.6939 8.5056 53.3951 8.27398 53.1358 8.05925C52.8764 7.84453 52.5784 7.5821 52.2417 7.27195C52.1874 7.22646 52.1187 7.20016 52.0468 7.19739C51.9861 7.19602 51.9269 7.21618 51.8806 7.25405C51.8586 7.27143 51.8405 7.29283 51.8272 7.31702C51.8139 7.34121 51.8058 7.36771 51.8032 7.39496C51.8019 7.42662 51.8093 7.45806 51.8246 7.48608C51.84 7.5141 51.8627 7.53771 51.8906 7.55451C52.0855 7.74239 52.316 7.95214 52.582 8.18376C53.248 8.75624 53.9819 9.25076 54.7684 9.65699C55.2904 9.9287 55.8334 10.1612 56.3925 10.3526C56.7486 10.4802 57.0913 10.6405 57.4156 10.8312C57.7446 11.0239 58.0376 11.2683 58.2826 11.5544C58.5333 11.8495 58.7248 12.187 58.8472 12.5498C58.9813 12.9623 59.0278 13.3966 58.9841 13.8269C58.9503 14.313 58.7708 14.7792 58.4674 15.1689C58.1468 15.576 57.7424 15.9149 57.2795 16.1642C56.7515 16.4483 56.1837 16.6573 55.5936 16.7845C54.2626 17.0718 52.8821 17.0718 51.5511 16.7845C50.9634 16.656 50.3989 16.4439 49.876 16.1553C49.4084 15.8963 48.998 15.5516 48.6679 15.1406C48.3466 14.7337 48.1356 14.2561 48.0539 13.7508C47.9892 13.4004 47.9827 13.0423 48.0345 12.6899C48.0806 12.3608 48.2039 12.0462 48.3949 11.7699C48.5948 11.4912 48.8667 11.2676 49.1838 11.1213C49.522 10.9587 49.9572 10.8775 50.4892 10.8775C50.9478 10.8698 51.4033 10.9498 51.8295 11.1131C52.2103 11.2643 52.5651 11.4702 52.8821 11.7237C53.192 11.9723 53.4698 12.2559 53.7096 12.5684C53.9514 12.8815 54.1754 13.2009 54.3817 13.5264Z" fill="white"/>
<path d="M54.3817 13.5264C54.3957 13.5591 54.4167 13.5886 54.4434 13.6129C54.47 13.6371 54.5017 13.6557 54.5364 13.6673C54.5933 13.686 54.655 13.686 54.7119 13.6673C54.7393 13.6562 54.7639 13.6395 54.7841 13.6184C54.8042 13.5973 54.8194 13.5723 54.8287 13.5451C54.8412 13.5113 54.8459 13.4754 54.8425 13.4398C54.8392 13.4041 54.8279 13.3696 54.8094 13.3386C54.6432 13.0347 54.4542 12.7429 54.244 12.4655C54.0141 12.1622 53.7495 11.8848 53.4552 11.6387C53.1369 11.3739 52.7869 11.1469 52.4126 10.9625C52.0035 10.7629 51.5642 10.627 51.111 10.5599C50.1892 10.3973 49.4619 10.1155 48.9293 9.71439C48.3967 9.31328 48.1304 8.71236 48.1304 7.91164C48.126 7.48469 48.2613 7.06726 48.5171 6.71874C48.8035 6.33911 49.1732 6.02499 49.5999 5.79872C50.1115 5.52351 50.6632 5.32396 51.2363 5.20675C51.9115 5.06473 52.6009 4.99546 53.292 5.00023C53.8857 5.00401 54.4782 5.05111 55.0646 5.14114C55.6702 5.22683 56.2625 5.3846 56.8279 5.61084C57.3279 5.80412 57.7771 6.10236 58.1426 6.48389C58.4798 6.84723 58.6291 7.29183 58.5904 7.81769C58.5748 8.12052 58.488 8.41598 58.3367 8.6818C58.2054 8.90835 58.0198 9.10135 57.7954 9.24469C57.5653 9.38564 57.3114 9.48658 57.0452 9.54291C56.7664 9.606 56.4809 9.63753 56.1945 9.63686C55.7886 9.64214 55.3875 9.55207 55.0259 9.37442C54.6746 9.19915 54.3418 8.99141 54.0321 8.75412C53.6939 8.5056 53.3951 8.27398 53.1358 8.05925C52.8764 7.84453 52.5784 7.5821 52.2417 7.27195C52.1874 7.22646 52.1187 7.20016 52.0468 7.19739C51.9861 7.19602 51.9269 7.21618 51.8806 7.25405C51.8586 7.27143 51.8405 7.29283 51.8272 7.31702C51.8139 7.34121 51.8058 7.36771 51.8032 7.39496C51.8019 7.42662 51.8093 7.45806 51.8246 7.48608C51.84 7.5141 51.8627 7.53771 51.8906 7.55451C52.0855 7.74239 52.316 7.95214 52.582 8.18376C53.248 8.75624 53.9819 9.25076 54.7684 9.65699C55.2904 9.9287 55.8334 10.1612 56.3925 10.3526C56.7486 10.4802 57.0913 10.6405 57.4156 10.8312C57.7446 11.0239 58.0376 11.2683 58.2826 11.5544C58.5333 11.8495 58.7248 12.187 58.8472 12.5498C58.9813 12.9623 59.0278 13.3966 58.9841 13.8269C58.9503 14.313 58.7708 14.7792 58.4674 15.1689C58.1468 15.576 57.7424 15.9149 57.2795 16.1642C56.7515 16.4483 56.1837 16.6573 55.5936 16.7845C54.2626 17.0718 52.8821 17.0718 51.5511 16.7845C50.9634 16.656 50.3989 16.4439 49.876 16.1553C49.4084 15.8963 48.998 15.5516 48.6679 15.1406C48.3466 14.7337 48.1356 14.2561 48.0539 13.7508C47.9892 13.4004 47.9827 13.0423 48.0345 12.6899C48.0806 12.3608 48.2039 12.0462 48.3949 11.7699C48.5948 11.4912 48.8667 11.2676 49.1838 11.1213C49.522 10.9587 49.9572 10.8775 50.4892 10.8775C50.9478 10.8698 51.4033 10.9498 51.8295 11.1131C52.2103 11.2643 52.5651 11.4702 52.8821 11.7237C53.192 11.9723 53.4698 12.2559 53.7096 12.5684C53.9514 12.8815 54.1754 13.2009 54.3817 13.5264Z" stroke="black" mask="url(#path-5-outside-5_1882_1573)"/>
<mask id="path-6-outside-6_1882_1573" maskUnits="userSpaceOnUse" x="56" y="2" width="12" height="16" fill="black">
<rect fill="white" x="56" y="2" width="12" height="16"/>
<path d="M58.3854 10.4409C58.2193 10.3904 58.0585 10.3238 57.9053 10.2419C57.3026 9.88907 57.0012 9.2019 57.0012 8.18041C56.9916 7.86235 57.0395 7.54518 57.1425 7.24425C57.2271 7.01288 57.3658 6.80534 57.5471 6.63916C57.7335 6.47581 57.9518 6.35333 58.188 6.27956C58.4663 6.1909 58.7494 6.11847 59.0361 6.0626C59.048 5.93648 59.0548 5.81336 59.0548 5.69399C59.0549 5.57164 59.0611 5.44936 59.0734 5.32764C59.0944 4.9273 59.1738 4.53222 59.309 4.155C59.4066 3.88396 59.5683 3.64077 59.7802 3.44631C59.9853 3.27069 60.2316 3.15031 60.4958 3.09647C60.821 3.02869 61.1524 2.99647 61.4845 3.00038C61.8073 2.99613 62.1296 3.02786 62.4454 3.09497C62.7088 3.15151 62.9544 3.27158 63.1611 3.44481C63.3777 3.63714 63.543 3.88074 63.642 4.15349C63.778 4.53138 63.8635 4.9257 63.8962 5.32614V5.38319C64.2792 5.35759 64.6637 5.36387 65.0457 5.40196C65.3567 5.42331 65.6592 5.51383 65.9311 5.66696C66.5339 6.01731 66.8352 6.71073 66.8352 7.74724C66.8352 8.47845 66.6563 9.00171 66.2983 9.31701C65.9403 9.63232 65.4223 9.82776 64.7443 9.90333L64.235 9.95964C64.235 10.1864 64.2288 10.4008 64.2163 10.603C64.2036 10.805 64.1849 10.9934 64.1602 11.1698C63.9477 11.233 63.7424 11.3185 63.5478 11.4251C63.3588 11.528 63.182 11.6519 63.0205 11.7944C62.8725 11.9233 62.7368 12.0658 62.6152 12.2201C62.5151 12.3434 62.4325 12.4801 62.3699 12.6262C62.3451 12.6902 62.3451 12.7612 62.3699 12.8252C62.3801 12.8509 62.3954 12.8742 62.415 12.8937C62.4345 12.9133 62.4579 12.9285 62.4836 12.9385C62.5349 12.9574 62.5906 12.9605 62.6436 12.9475C62.672 12.9409 62.6982 12.927 62.7196 12.9071C62.7409 12.8872 62.7568 12.8621 62.7655 12.8342C62.9743 12.4124 63.2976 12.0585 63.6981 11.8132C64.0726 11.5798 64.5123 11.4744 64.9514 11.5129C65.2276 11.5383 65.4979 11.6085 65.7516 11.7208C66.0151 11.8387 66.2474 12.0169 66.4299 12.2411C66.6368 12.5009 66.7894 12.7999 66.8786 13.1202C66.9904 13.5326 67.0254 13.9623 66.9818 14.3874C66.9627 14.7869 66.8333 15.1732 66.6079 15.503C66.3767 15.8369 66.0781 16.1183 65.7314 16.3288C65.3457 16.5605 64.926 16.7298 64.4878 16.8303C64.0096 16.9444 63.5196 17.0014 63.028 17C62.1236 17 61.4077 16.8518 60.8802 16.5555C60.3642 16.2715 59.9468 15.8362 59.6837 15.3078C59.413 14.7718 59.234 14.1212 59.1467 13.3559C59.0595 12.5907 59.0037 11.7414 58.9792 10.808V10.5242C58.7783 10.5264 58.5781 10.4983 58.3854 10.4409Z"/>
</mask>
<path d="M58.3854 10.4409C58.2193 10.3904 58.0585 10.3238 57.9053 10.2419C57.3026 9.88907 57.0012 9.2019 57.0012 8.18041C56.9916 7.86235 57.0395 7.54518 57.1425 7.24425C57.2271 7.01288 57.3658 6.80534 57.5471 6.63916C57.7335 6.47581 57.9518 6.35333 58.188 6.27956C58.4663 6.1909 58.7494 6.11847 59.0361 6.0626C59.048 5.93648 59.0548 5.81336 59.0548 5.69399C59.0549 5.57164 59.0611 5.44936 59.0734 5.32764C59.0944 4.9273 59.1738 4.53222 59.309 4.155C59.4066 3.88396 59.5683 3.64077 59.7802 3.44631C59.9853 3.27069 60.2316 3.15031 60.4958 3.09647C60.821 3.02869 61.1524 2.99647 61.4845 3.00038C61.8073 2.99613 62.1296 3.02786 62.4454 3.09497C62.7088 3.15151 62.9544 3.27158 63.1611 3.44481C63.3777 3.63714 63.543 3.88074 63.642 4.15349C63.778 4.53138 63.8635 4.9257 63.8962 5.32614V5.38319C64.2792 5.35759 64.6637 5.36387 65.0457 5.40196C65.3567 5.42331 65.6592 5.51383 65.9311 5.66696C66.5339 6.01731 66.8352 6.71073 66.8352 7.74724C66.8352 8.47845 66.6563 9.00171 66.2983 9.31701C65.9403 9.63232 65.4223 9.82776 64.7443 9.90333L64.235 9.95964C64.235 10.1864 64.2288 10.4008 64.2163 10.603C64.2036 10.805 64.1849 10.9934 64.1602 11.1698C63.9477 11.233 63.7424 11.3185 63.5478 11.4251C63.3588 11.528 63.182 11.6519 63.0205 11.7944C62.8725 11.9233 62.7368 12.0658 62.6152 12.2201C62.5151 12.3434 62.4325 12.4801 62.3699 12.6262C62.3451 12.6902 62.3451 12.7612 62.3699 12.8252C62.3801 12.8509 62.3954 12.8742 62.415 12.8937C62.4345 12.9133 62.4579 12.9285 62.4836 12.9385C62.5349 12.9574 62.5906 12.9605 62.6436 12.9475C62.672 12.9409 62.6982 12.927 62.7196 12.9071C62.7409 12.8872 62.7568 12.8621 62.7655 12.8342C62.9743 12.4124 63.2976 12.0585 63.6981 11.8132C64.0726 11.5798 64.5123 11.4744 64.9514 11.5129C65.2276 11.5383 65.4979 11.6085 65.7516 11.7208C66.0151 11.8387 66.2474 12.0169 66.4299 12.2411C66.6368 12.5009 66.7894 12.7999 66.8786 13.1202C66.9904 13.5326 67.0254 13.9623 66.9818 14.3874C66.9627 14.7869 66.8333 15.1732 66.6079 15.503C66.3767 15.8369 66.0781 16.1183 65.7314 16.3288C65.3457 16.5605 64.926 16.7298 64.4878 16.8303C64.0096 16.9444 63.5196 17.0014 63.028 17C62.1236 17 61.4077 16.8518 60.8802 16.5555C60.3642 16.2715 59.9468 15.8362 59.6837 15.3078C59.413 14.7718 59.234 14.1212 59.1467 13.3559C59.0595 12.5907 59.0037 11.7414 58.9792 10.808V10.5242C58.7783 10.5264 58.5781 10.4983 58.3854 10.4409Z" fill="white"/>
<path d="M58.3854 10.4409C58.2193 10.3904 58.0585 10.3238 57.9053 10.2419C57.3026 9.88907 57.0012 9.2019 57.0012 8.18041C56.9916 7.86235 57.0395 7.54518 57.1425 7.24425C57.2271 7.01288 57.3658 6.80534 57.5471 6.63916C57.7335 6.47581 57.9518 6.35333 58.188 6.27956C58.4663 6.1909 58.7494 6.11847 59.0361 6.0626C59.048 5.93648 59.0548 5.81336 59.0548 5.69399C59.0549 5.57164 59.0611 5.44936 59.0734 5.32764C59.0944 4.9273 59.1738 4.53222 59.309 4.155C59.4066 3.88396 59.5683 3.64077 59.7802 3.44631C59.9853 3.27069 60.2316 3.15031 60.4958 3.09647C60.821 3.02869 61.1524 2.99647 61.4845 3.00038C61.8073 2.99613 62.1296 3.02786 62.4454 3.09497C62.7088 3.15151 62.9544 3.27158 63.1611 3.44481C63.3777 3.63714 63.543 3.88074 63.642 4.15349C63.778 4.53138 63.8635 4.9257 63.8962 5.32614V5.38319C64.2792 5.35759 64.6637 5.36387 65.0457 5.40196C65.3567 5.42331 65.6592 5.51383 65.9311 5.66696C66.5339 6.01731 66.8352 6.71073 66.8352 7.74724C66.8352 8.47845 66.6563 9.00171 66.2983 9.31701C65.9403 9.63232 65.4223 9.82776 64.7443 9.90333L64.235 9.95964C64.235 10.1864 64.2288 10.4008 64.2163 10.603C64.2036 10.805 64.1849 10.9934 64.1602 11.1698C63.9477 11.233 63.7424 11.3185 63.5478 11.4251C63.3588 11.528 63.182 11.6519 63.0205 11.7944C62.8725 11.9233 62.7368 12.0658 62.6152 12.2201C62.5151 12.3434 62.4325 12.4801 62.3699 12.6262C62.3451 12.6902 62.3451 12.7612 62.3699 12.8252C62.3801 12.8509 62.3954 12.8742 62.415 12.8937C62.4345 12.9133 62.4579 12.9285 62.4836 12.9385C62.5349 12.9574 62.5906 12.9605 62.6436 12.9475C62.672 12.9409 62.6982 12.927 62.7196 12.9071C62.7409 12.8872 62.7568 12.8621 62.7655 12.8342C62.9743 12.4124 63.2976 12.0585 63.6981 11.8132C64.0726 11.5798 64.5123 11.4744 64.9514 11.5129C65.2276 11.5383 65.4979 11.6085 65.7516 11.7208C66.0151 11.8387 66.2474 12.0169 66.4299 12.2411C66.6368 12.5009 66.7894 12.7999 66.8786 13.1202C66.9904 13.5326 67.0254 13.9623 66.9818 14.3874C66.9627 14.7869 66.8333 15.1732 66.6079 15.503C66.3767 15.8369 66.0781 16.1183 65.7314 16.3288C65.3457 16.5605 64.926 16.7298 64.4878 16.8303C64.0096 16.9444 63.5196 17.0014 63.028 17C62.1236 17 61.4077 16.8518 60.8802 16.5555C60.3642 16.2715 59.9468 15.8362 59.6837 15.3078C59.413 14.7718 59.234 14.1212 59.1467 13.3559C59.0595 12.5907 59.0037 11.7414 58.9792 10.808V10.5242C58.7783 10.5264 58.5781 10.4983 58.3854 10.4409Z" stroke="black" mask="url(#path-6-outside-6_1882_1573)"/>
</svg>
