<svg width="26" height="27" viewBox="0 0 26 27" fill="none" xmlns="http://www.w3.org/2000/svg">
<mask id="path-1-outside-1_1771_254" maskUnits="userSpaceOnUse" x="0" y="0" width="26" height="27" fill="black">
<rect fill="white" width="26" height="27"/>
<path fill-rule="evenodd" clip-rule="evenodd" d="M15.0991 1.19C14.6366 1 14.0491 1 12.8754 1C11.7016 1 11.1154 1 10.6516 1.19C10.036 1.44276 9.54587 1.92971 9.28915 2.54375C9.17165 2.8225 9.12665 3.14875 9.1079 3.6225C9.09956 3.96575 9.00381 4.30121 8.8297 4.59715C8.6556 4.89309 8.40888 5.13973 8.1129 5.31375C7.81133 5.48138 7.47233 5.57018 7.1273 5.57193C6.78228 5.57368 6.4424 5.48831 6.13915 5.32375C5.71665 5.10125 5.4104 4.97875 5.10789 4.93875C4.44609 4.85185 3.77674 5.02975 3.24539 5.43375C2.84789 5.73625 2.55414 6.24125 1.96789 7.25C1.38039 8.25875 1.08789 8.7625 1.02164 9.25625C0.934144 9.91375 1.11414 10.5787 1.52164 11.105C1.70664 11.345 1.96789 11.5463 2.37164 11.7987C2.96789 12.17 3.35039 12.8025 3.35039 13.5C3.35039 14.1975 2.96789 14.83 2.37289 15.2C1.96789 15.4537 1.70664 15.655 1.52039 15.895C1.31925 16.1549 1.17161 16.4521 1.086 16.7695C1.00039 17.0868 0.97852 17.4179 1.02164 17.7438C1.08789 18.2363 1.38039 18.7412 1.96789 19.75C2.55539 20.7588 2.84789 21.2625 3.24539 21.5662C3.77539 21.97 4.44539 22.1475 5.10789 22.0613C5.4104 22.0212 5.71665 21.8988 6.13915 21.6763C6.44255 21.5115 6.78267 21.426 7.12793 21.4277C7.47319 21.4295 7.81242 21.5184 8.11415 21.6862C8.72165 22.0362 9.08165 22.68 9.1079 23.3775C9.12665 23.8525 9.17165 24.1775 9.28915 24.4562C9.54415 25.0687 10.0341 25.5562 10.6516 25.81C11.1141 26 11.7016 26 12.8754 26C14.0491 26 14.6366 26 15.0991 25.81C15.7148 25.5572 16.2049 25.0703 16.4616 24.4562C16.5791 24.1775 16.6241 23.8525 16.6429 23.3775C16.6679 22.68 17.0291 22.035 17.6379 21.6862C17.9395 21.5186 18.2785 21.4298 18.6235 21.4281C18.9685 21.4263 19.3084 21.5117 19.6116 21.6763C20.0341 21.8988 20.3404 22.0212 20.6429 22.0613C21.3054 22.1488 21.9754 21.97 22.5054 21.5662C22.9029 21.2638 23.1966 20.7588 23.7829 19.75C24.3704 18.7412 24.6629 18.2375 24.7291 17.7438C24.7721 17.4178 24.75 17.0867 24.6642 16.7693C24.5784 16.452 24.4305 16.1548 24.2291 15.895C24.0441 15.655 23.7829 15.4537 23.3791 15.2013C22.7829 14.83 22.4004 14.1975 22.4004 13.5C22.4004 12.8025 22.7829 12.17 23.3779 11.8C23.7829 11.5463 24.0441 11.345 24.2304 11.105C24.4315 10.8451 24.5792 10.5479 24.6648 10.2305C24.7504 9.91322 24.7723 9.58208 24.7291 9.25625C24.6629 8.76375 24.3704 8.25875 23.7829 7.25C23.1954 6.24125 22.9029 5.7375 22.5054 5.43375C21.9741 5.02975 21.3047 4.85185 20.6429 4.93875C20.3404 4.97875 20.0341 5.10125 19.6116 5.32375C19.3082 5.48854 18.9681 5.57402 18.6229 5.57227C18.2776 5.57052 17.9384 5.4816 17.6366 5.31375C17.3409 5.13958 17.0944 4.89287 16.9205 4.59694C16.7467 4.30101 16.6511 3.96563 16.6429 3.6225C16.6241 3.1475 16.5791 2.8225 16.4616 2.54375C16.3346 2.23967 16.1489 1.9636 15.9151 1.73132C15.6813 1.49904 15.404 1.3151 15.0991 1.19ZM12.8754 17.25C14.9629 17.25 16.6541 15.5712 16.6541 13.5C16.6541 11.4288 14.9616 9.75 12.8754 9.75C10.7879 9.75 9.09665 11.4288 9.09665 13.5C9.09665 15.5712 10.7891 17.25 12.8754 17.25Z"/>
</mask>
<path fill-rule="evenodd" clip-rule="evenodd" d="M15.0991 1.19C14.6366 1 14.0491 1 12.8754 1C11.7016 1 11.1154 1 10.6516 1.19C10.036 1.44276 9.54587 1.92971 9.28915 2.54375C9.17165 2.8225 9.12665 3.14875 9.1079 3.6225C9.09956 3.96575 9.00381 4.30121 8.8297 4.59715C8.6556 4.89309 8.40888 5.13973 8.1129 5.31375C7.81133 5.48138 7.47233 5.57018 7.1273 5.57193C6.78228 5.57368 6.4424 5.48831 6.13915 5.32375C5.71665 5.10125 5.4104 4.97875 5.10789 4.93875C4.44609 4.85185 3.77674 5.02975 3.24539 5.43375C2.84789 5.73625 2.55414 6.24125 1.96789 7.25C1.38039 8.25875 1.08789 8.7625 1.02164 9.25625C0.934144 9.91375 1.11414 10.5787 1.52164 11.105C1.70664 11.345 1.96789 11.5463 2.37164 11.7987C2.96789 12.17 3.35039 12.8025 3.35039 13.5C3.35039 14.1975 2.96789 14.83 2.37289 15.2C1.96789 15.4537 1.70664 15.655 1.52039 15.895C1.31925 16.1549 1.17161 16.4521 1.086 16.7695C1.00039 17.0868 0.97852 17.4179 1.02164 17.7438C1.08789 18.2363 1.38039 18.7412 1.96789 19.75C2.55539 20.7588 2.84789 21.2625 3.24539 21.5662C3.77539 21.97 4.44539 22.1475 5.10789 22.0613C5.4104 22.0212 5.71665 21.8988 6.13915 21.6763C6.44255 21.5115 6.78267 21.426 7.12793 21.4277C7.47319 21.4295 7.81242 21.5184 8.11415 21.6862C8.72165 22.0362 9.08165 22.68 9.1079 23.3775C9.12665 23.8525 9.17165 24.1775 9.28915 24.4562C9.54415 25.0687 10.0341 25.5562 10.6516 25.81C11.1141 26 11.7016 26 12.8754 26C14.0491 26 14.6366 26 15.0991 25.81C15.7148 25.5572 16.2049 25.0703 16.4616 24.4562C16.5791 24.1775 16.6241 23.8525 16.6429 23.3775C16.6679 22.68 17.0291 22.035 17.6379 21.6862C17.9395 21.5186 18.2785 21.4298 18.6235 21.4281C18.9685 21.4263 19.3084 21.5117 19.6116 21.6763C20.0341 21.8988 20.3404 22.0212 20.6429 22.0613C21.3054 22.1488 21.9754 21.97 22.5054 21.5662C22.9029 21.2638 23.1966 20.7588 23.7829 19.75C24.3704 18.7412 24.6629 18.2375 24.7291 17.7438C24.7721 17.4178 24.75 17.0867 24.6642 16.7693C24.5784 16.452 24.4305 16.1548 24.2291 15.895C24.0441 15.655 23.7829 15.4537 23.3791 15.2013C22.7829 14.83 22.4004 14.1975 22.4004 13.5C22.4004 12.8025 22.7829 12.17 23.3779 11.8C23.7829 11.5463 24.0441 11.345 24.2304 11.105C24.4315 10.8451 24.5792 10.5479 24.6648 10.2305C24.7504 9.91322 24.7723 9.58208 24.7291 9.25625C24.6629 8.76375 24.3704 8.25875 23.7829 7.25C23.1954 6.24125 22.9029 5.7375 22.5054 5.43375C21.9741 5.02975 21.3047 4.85185 20.6429 4.93875C20.3404 4.97875 20.0341 5.10125 19.6116 5.32375C19.3082 5.48854 18.9681 5.57402 18.6229 5.57227C18.2776 5.57052 17.9384 5.4816 17.6366 5.31375C17.3409 5.13958 17.0944 4.89287 16.9205 4.59694C16.7467 4.30101 16.6511 3.96563 16.6429 3.6225C16.6241 3.1475 16.5791 2.8225 16.4616 2.54375C16.3346 2.23967 16.1489 1.9636 15.9151 1.73132C15.6813 1.49904 15.404 1.3151 15.0991 1.19ZM12.8754 17.25C14.9629 17.25 16.6541 15.5712 16.6541 13.5C16.6541 11.4288 14.9616 9.75 12.8754 9.75C10.7879 9.75 9.09665 11.4288 9.09665 13.5C9.09665 15.5712 10.7891 17.25 12.8754 17.25Z" fill="white"/>
<path fill-rule="evenodd" clip-rule="evenodd" d="M15.0991 1.19C14.6366 1 14.0491 1 12.8754 1C11.7016 1 11.1154 1 10.6516 1.19C10.036 1.44276 9.54587 1.92971 9.28915 2.54375C9.17165 2.8225 9.12665 3.14875 9.1079 3.6225C9.09956 3.96575 9.00381 4.30121 8.8297 4.59715C8.6556 4.89309 8.40888 5.13973 8.1129 5.31375C7.81133 5.48138 7.47233 5.57018 7.1273 5.57193C6.78228 5.57368 6.4424 5.48831 6.13915 5.32375C5.71665 5.10125 5.4104 4.97875 5.10789 4.93875C4.44609 4.85185 3.77674 5.02975 3.24539 5.43375C2.84789 5.73625 2.55414 6.24125 1.96789 7.25C1.38039 8.25875 1.08789 8.7625 1.02164 9.25625C0.934144 9.91375 1.11414 10.5787 1.52164 11.105C1.70664 11.345 1.96789 11.5463 2.37164 11.7987C2.96789 12.17 3.35039 12.8025 3.35039 13.5C3.35039 14.1975 2.96789 14.83 2.37289 15.2C1.96789 15.4537 1.70664 15.655 1.52039 15.895C1.31925 16.1549 1.17161 16.4521 1.086 16.7695C1.00039 17.0868 0.97852 17.4179 1.02164 17.7438C1.08789 18.2363 1.38039 18.7412 1.96789 19.75C2.55539 20.7588 2.84789 21.2625 3.24539 21.5662C3.77539 21.97 4.44539 22.1475 5.10789 22.0613C5.4104 22.0212 5.71665 21.8988 6.13915 21.6763C6.44255 21.5115 6.78267 21.426 7.12793 21.4277C7.47319 21.4295 7.81242 21.5184 8.11415 21.6862C8.72165 22.0362 9.08165 22.68 9.1079 23.3775C9.12665 23.8525 9.17165 24.1775 9.28915 24.4562C9.54415 25.0687 10.0341 25.5562 10.6516 25.81C11.1141 26 11.7016 26 12.8754 26C14.0491 26 14.6366 26 15.0991 25.81C15.7148 25.5572 16.2049 25.0703 16.4616 24.4562C16.5791 24.1775 16.6241 23.8525 16.6429 23.3775C16.6679 22.68 17.0291 22.035 17.6379 21.6862C17.9395 21.5186 18.2785 21.4298 18.6235 21.4281C18.9685 21.4263 19.3084 21.5117 19.6116 21.6763C20.0341 21.8988 20.3404 22.0212 20.6429 22.0613C21.3054 22.1488 21.9754 21.97 22.5054 21.5662C22.9029 21.2638 23.1966 20.7588 23.7829 19.75C24.3704 18.7412 24.6629 18.2375 24.7291 17.7438C24.7721 17.4178 24.75 17.0867 24.6642 16.7693C24.5784 16.452 24.4305 16.1548 24.2291 15.895C24.0441 15.655 23.7829 15.4537 23.3791 15.2013C22.7829 14.83 22.4004 14.1975 22.4004 13.5C22.4004 12.8025 22.7829 12.17 23.3779 11.8C23.7829 11.5463 24.0441 11.345 24.2304 11.105C24.4315 10.8451 24.5792 10.5479 24.6648 10.2305C24.7504 9.91322 24.7723 9.58208 24.7291 9.25625C24.6629 8.76375 24.3704 8.25875 23.7829 7.25C23.1954 6.24125 22.9029 5.7375 22.5054 5.43375C21.9741 5.02975 21.3047 4.85185 20.6429 4.93875C20.3404 4.97875 20.0341 5.10125 19.6116 5.32375C19.3082 5.48854 18.9681 5.57402 18.6229 5.57227C18.2776 5.57052 17.9384 5.4816 17.6366 5.31375C17.3409 5.13958 17.0944 4.89287 16.9205 4.59694C16.7467 4.30101 16.6511 3.96563 16.6429 3.6225C16.6241 3.1475 16.5791 2.8225 16.4616 2.54375C16.3346 2.23967 16.1489 1.9636 15.9151 1.73132C15.6813 1.49904 15.404 1.3151 15.0991 1.19ZM12.8754 17.25C14.9629 17.25 16.6541 15.5712 16.6541 13.5C16.6541 11.4288 14.9616 9.75 12.8754 9.75C10.7879 9.75 9.09665 11.4288 9.09665 13.5C9.09665 15.5712 10.7891 17.25 12.8754 17.25Z" stroke="black" mask="url(#path-1-outside-1_1771_254)"/>
</svg>
