<svg width="24" height="25" viewBox="0 0 24 25" fill="none" xmlns="http://www.w3.org/2000/svg">
<path fill-rule="evenodd" clip-rule="evenodd" d="M14.0991 0.19C13.6366 -5.96046e-08 13.0491 0 11.8754 0C10.7016 0 10.1154 -5.96046e-08 9.65165 0.19C9.03596 0.442764 8.54587 0.929706 8.28915 1.54375C8.17165 1.8225 8.12665 2.14875 8.1079 2.6225C8.09956 2.96575 8.00381 3.30121 7.8297 3.59715C7.6556 3.89309 7.40888 4.13973 7.1129 4.31375C6.81133 4.48138 6.47233 4.57018 6.1273 4.57193C5.78228 4.57368 5.4424 4.48831 5.13915 4.32375C4.71665 4.10125 4.4104 3.97875 4.10789 3.93875C3.44609 3.85185 2.77674 4.02975 2.24539 4.43375C1.84789 4.73625 1.55414 5.24125 0.967894 6.25C0.380394 7.25875 0.0878944 7.7625 0.0216444 8.25625C-0.0658556 8.91375 0.114145 9.57875 0.521645 10.105C0.706645 10.345 0.967895 10.5463 1.37164 10.7987C1.96789 11.17 2.35039 11.8025 2.35039 12.5C2.35039 13.1975 1.96789 13.83 1.37289 14.2C0.967895 14.4537 0.706644 14.655 0.520394 14.895C0.319248 15.1549 0.171606 15.4521 0.0859998 15.7695C0.000393622 16.0868 -0.0214796 16.4179 0.0216444 16.7438C0.0878944 17.2363 0.380394 17.7412 0.967894 18.75C1.55539 19.7588 1.84789 20.2625 2.24539 20.5662C2.77539 20.97 3.44539 21.1475 4.10789 21.0613C4.4104 21.0212 4.71665 20.8988 5.13915 20.6763C5.44255 20.5115 5.78267 20.426 6.12793 20.4277C6.47319 20.4295 6.81242 20.5184 7.11415 20.6862C7.72165 21.0362 8.08165 21.68 8.1079 22.3775C8.12665 22.8525 8.17165 23.1775 8.28915 23.4562C8.54415 24.0687 9.03415 24.5562 9.65165 24.81C10.1141 25 10.7016 25 11.8754 25C13.0491 25 13.6366 25 14.0991 24.81C14.7148 24.5572 15.2049 24.0703 15.4616 23.4562C15.5791 23.1775 15.6241 22.8525 15.6429 22.3775C15.6679 21.68 16.0291 21.035 16.6379 20.6862C16.9395 20.5186 17.2785 20.4298 17.6235 20.4281C17.9685 20.4263 18.3084 20.5117 18.6116 20.6763C19.0341 20.8988 19.3404 21.0212 19.6429 21.0613C20.3054 21.1488 20.9754 20.97 21.5054 20.5662C21.9029 20.2638 22.1966 19.7588 22.7829 18.75C23.3704 17.7412 23.6629 17.2375 23.7291 16.7438C23.7721 16.4178 23.75 16.0867 23.6642 15.7693C23.5784 15.452 23.4305 15.1548 23.2291 14.895C23.0441 14.655 22.7829 14.4537 22.3791 14.2013C21.7829 13.83 21.4004 13.1975 21.4004 12.5C21.4004 11.8025 21.7829 11.17 22.3779 10.8C22.7829 10.5463 23.0441 10.345 23.2304 10.105C23.4315 9.84507 23.5792 9.54786 23.6648 9.23054C23.7504 8.91322 23.7723 8.58208 23.7291 8.25625C23.6629 7.76375 23.3704 7.25875 22.7829 6.25C22.1954 5.24125 21.9029 4.7375 21.5054 4.43375C20.9741 4.02975 20.3047 3.85185 19.6429 3.93875C19.3404 3.97875 19.0341 4.10125 18.6116 4.32375C18.3082 4.48854 17.9681 4.57402 17.6229 4.57227C17.2776 4.57052 16.9384 4.4816 16.6366 4.31375C16.3409 4.13958 16.0944 3.89287 15.9205 3.59694C15.7467 3.30101 15.6511 2.96563 15.6429 2.6225C15.6241 2.1475 15.5791 1.8225 15.4616 1.54375C15.3346 1.23967 15.1489 0.963603 14.9151 0.731322C14.6813 0.499041 14.404 0.315097 14.0991 0.19ZM11.8754 16.25C13.9629 16.25 15.6541 14.5712 15.6541 12.5C15.6541 10.4288 13.9616 8.75 11.8754 8.75C9.7879 8.75 8.09665 10.4288 8.09665 12.5C8.09665 14.5712 9.78915 16.25 11.8754 16.25Z" fill="white"/>
</svg>
