<svg width="23" height="29" viewBox="0 0 23 29" fill="none" xmlns="http://www.w3.org/2000/svg">
<path d="M6.25 3.625V19.375C6.25 20.0712 6.52656 20.7389 7.01885 21.2312C7.51113 21.7234 8.17881 22 8.875 22H19.375C20.0712 22 20.7389 21.7234 21.2312 21.2312C21.7234 20.7389 22 20.0712 22 19.375V7.88013C22 7.53042 21.93 7.18425 21.7944 6.86195C21.6587 6.53964 21.46 6.24769 21.2099 6.00325L16.8589 1.74812C16.3685 1.26861 15.7099 1.00009 15.0241 1H8.875C8.17881 1 7.51113 1.27656 7.01885 1.76884C6.52656 2.26113 6.25 2.92881 6.25 3.625Z" stroke="black" stroke-width="2" stroke-linecap="round" stroke-linejoin="round"/>
<path d="M16.75 22V24.625C16.75 25.3212 16.4734 25.9889 15.9812 26.4812C15.4889 26.9734 14.8212 27.25 14.125 27.25H3.625C2.92881 27.25 2.26113 26.9734 1.76884 26.4812C1.27656 25.9889 1 25.3212 1 24.625V10.1875C1 9.49131 1.27656 8.82363 1.76884 8.33134C2.26113 7.83906 2.92881 7.5625 3.625 7.5625H6.25" stroke="black" stroke-width="2" stroke-linecap="round" stroke-linejoin="round"/>
</svg>
