<svg width="23" height="23" viewBox="0 0 23 23" fill="none" xmlns="http://www.w3.org/2000/svg">
<path d="M1.25 10H8.75C9.08152 10 9.39946 9.8683 9.63388 9.63388C9.8683 9.39946 10 9.08152 10 8.75V1.25C10 0.918479 9.8683 0.600537 9.63388 0.366116C9.39946 0.131696 9.08152 0 8.75 0H1.25C0.918479 0 0.600537 0.131696 0.366116 0.366116C0.131696 0.600537 0 0.918479 0 1.25V8.75C0 9.08152 0.131696 9.39946 0.366116 9.63388C0.600537 9.8683 0.918479 10 1.25 10ZM13.75 10H21.25C21.5815 10 21.8995 9.8683 22.1339 9.63388C22.3683 9.39946 22.5 9.08152 22.5 8.75V1.25C22.5 0.918479 22.3683 0.600537 22.1339 0.366116C21.8995 0.131696 21.5815 0 21.25 0H13.75C13.4185 0 13.1005 0.131696 12.8661 0.366116C12.6317 0.600537 12.5 0.918479 12.5 1.25V8.75C12.5 9.08152 12.6317 9.39946 12.8661 9.63388C13.1005 9.8683 13.4185 10 13.75 10ZM1.25 22.5H8.75C9.08152 22.5 9.39946 22.3683 9.63388 22.1339C9.8683 21.8995 10 21.5815 10 21.25V13.75C10 13.4185 9.8683 13.1005 9.63388 12.8661C9.39946 12.6317 9.08152 12.5 8.75 12.5H1.25C0.918479 12.5 0.600537 12.6317 0.366116 12.8661C0.131696 13.1005 0 13.4185 0 13.75V21.25C0 21.5815 0.131696 21.8995 0.366116 22.1339C0.600537 22.3683 0.918479 22.5 1.25 22.5ZM17.5 22.5C20.2575 22.5 22.5 20.2575 22.5 17.5C22.5 14.7425 20.2575 12.5 17.5 12.5C14.7425 12.5 12.5 14.7425 12.5 17.5C12.5 20.2575 14.7425 22.5 17.5 22.5Z" fill="black"/>
</svg>
