<svg width="43" height="43" viewBox="0 0 43 43" fill="none" xmlns="http://www.w3.org/2000/svg">
<path d="M0 0H43.1973V42.9662C41.5 34.0332 34 36 26.1976 36C15 36 7.19763 29.0332 7.19763 18C7.19763 9.5332 7 1.5332 0 0Z" fill="#2E2E2E"/>
<path d="M26 4.0332L28.69 8.87196L33.569 6.25565L33.2159 11.7806L38.7348 12.2174L35.4508 16.6744L39.8575 20.0256L34.6852 21.9996L36.5805 27.2013L31.162 26.0655L29.9443 31.4661L26 27.5812L22.0557 31.4661L20.838 26.0655L15.4195 27.2013L17.3148 21.9996L12.1425 20.0256L16.5492 16.6744L13.2652 12.2174L18.7841 11.7806L18.431 6.25565L23.31 8.87196L26 4.0332Z" fill="white"/>
<path d="M27.708 13.8086V23H26.0449V15.4209H25.9941L23.8486 16.792V15.2812L26.1211 13.8086H27.708Z" fill="#2E2E2E"/>
</svg>
