<svg width="43" height="42" viewBox="0 0 43 42" fill="none" xmlns="http://www.w3.org/2000/svg">
<path d="M0 0H43.1973V41.9662C39.7733 37.3634 32.4541 36 25.1976 36C15.2565 36 7.19763 27.9411 7.19763 18C7.19763 10.7433 5.03483 3.42382 0 0Z" fill="white"/>
<circle cx="26.1973" cy="18" r="12" fill="#2E2E2E"/>
<path d="M23.5566 13.8086V23H21.8936V15.4209H21.8428L19.6973 16.792V15.2812L21.9697 13.8086H23.5566ZM29.1807 23.127C26.9653 23.127 25.645 21.4131 25.6514 18.4043C25.645 15.4082 26.978 13.6816 29.1807 13.6816C31.3833 13.6816 32.71 15.4082 32.71 18.4043C32.71 21.4194 31.3896 23.127 29.1807 23.127ZM27.3145 18.4043C27.3145 20.6133 28.0254 21.7368 29.1807 21.7432C30.3296 21.7368 31.0469 20.6133 31.0469 18.4043C31.0405 16.2144 30.3296 15.0591 29.1807 15.0527C28.0317 15.0591 27.3208 16.2144 27.3145 18.4043Z" fill="white"/>
</svg>
