<svg width="43" height="42" viewBox="0 0 43 42" fill="none" xmlns="http://www.w3.org/2000/svg">
<path d="M0 0H43.1973V41.9662C39.7733 37.3634 32.4541 36 25.1976 36C15.2565 36 7.19763 27.9411 7.19763 18C7.19763 10.7433 5.03483 3.42382 0 0Z" fill="white"/>
<circle cx="26.1973" cy="18" r="12" fill="#2E2E2E"/>
<path d="M26.21 23.127C24.3691 23.127 23.0234 22.0352 22.9727 20.5117H24.585C24.6357 21.2607 25.334 21.7939 26.21 21.7939C27.2383 21.7939 27.9746 21.0449 27.9746 20.0293C27.9746 18.9756 27.2129 18.2266 26.1592 18.2266C25.4482 18.2139 24.9277 18.4678 24.6357 19.0137H23.0996L23.6582 13.8086H29.0918V15.1924H25.0166L24.7373 17.6299H24.8262C25.1816 17.2236 25.8545 16.9316 26.6035 16.9316C28.3174 16.9316 29.5742 18.2139 29.5742 19.9785C29.5742 21.8193 28.1904 23.127 26.21 23.127Z" fill="white"/>
</svg>
