<svg width="43" height="42" viewBox="0 0 43 42" fill="none" xmlns="http://www.w3.org/2000/svg">
<path d="M0 0H43.1973V41.9662C39.7733 37.3634 32.4541 36 25.1976 36C15.2565 36 7.19763 27.9411 7.19763 18C7.19763 10.7433 5.03483 3.42382 0 0Z" fill="white"/>
<circle cx="26.1973" cy="18" r="12" fill="#2E2E2E"/>
<path d="M26.1084 13.6816C27.9048 13.6943 29.6948 14.7671 29.7012 18.125C29.7012 21.2925 28.2666 23.127 26.0068 23.127C24.2358 23.127 23.0107 22.0225 22.8076 20.499H24.4453C24.6104 21.229 25.1753 21.6924 26.0068 21.6924C27.3398 21.6924 28.0889 20.5181 28.1016 18.5439H28C27.5366 19.3438 26.6479 19.8198 25.6387 19.8135C23.9946 19.8198 22.7251 18.5693 22.7188 16.8301C22.7188 15.0337 24.0708 13.6689 26.1084 13.6816ZM24.3311 16.792C24.3311 17.7822 25.0674 18.5566 26.0957 18.5566C27.1177 18.5566 27.9048 17.7314 27.8984 16.7793C27.8984 15.8462 27.1494 15.021 26.1211 15.0146C25.0864 15.021 24.3184 15.8081 24.3311 16.792Z" fill="white"/>
</svg>
