<svg width="19" height="17" viewBox="0 0 19 17" fill="none" xmlns="http://www.w3.org/2000/svg">
<path d="M7.70775 1.03531C8.50534 -0.345103 10.4948 -0.345103 11.2924 1.03531L18.7192 13.8893C19.5168 15.2714 18.5204 17 16.926 17H2.07407C0.478877 17 -0.516666 15.2714 0.280928 13.8893L7.70775 1.03531ZM9.50005 5.39293C9.33531 5.39293 9.17731 5.45845 9.06081 5.57506C8.94432 5.69167 8.87888 5.84983 8.87888 6.01474V9.74558C8.87888 9.9105 8.94432 10.0687 9.06081 10.1853C9.17731 10.3019 9.33531 10.3674 9.50005 10.3674C9.6648 10.3674 9.8228 10.3019 9.93929 10.1853C10.0558 10.0687 10.1212 9.9105 10.1212 9.74558V6.01474C10.1212 5.84983 10.0558 5.69167 9.93929 5.57506C9.8228 5.45845 9.6648 5.39293 9.50005 5.39293ZM10.3283 12.8546C10.3283 12.6347 10.241 12.4239 10.0857 12.2684C9.93038 12.1129 9.71972 12.0255 9.50005 12.0255C9.28039 12.0255 9.06973 12.1129 8.9144 12.2684C8.75908 12.4239 8.67182 12.6347 8.67182 12.8546C8.67182 13.0745 8.75908 13.2854 8.9144 13.4409C9.06973 13.5963 9.28039 13.6837 9.50005 13.6837C9.71972 13.6837 9.93038 13.5963 10.0857 13.4409C10.241 13.2854 10.3283 13.0745 10.3283 12.8546Z" fill="white"/>
</svg>
