<svg width="17" height="15" viewBox="0 0 17 15" fill="none" xmlns="http://www.w3.org/2000/svg">
<path d="M8.5 0L0 7.65H2.55V14.45H14.45V7.65H17L8.5 0ZM8.5 4.8875C9.00723 4.8875 9.49368 5.08899 9.85234 5.44766C10.211 5.80632 10.4125 6.29277 10.4125 6.8C10.4125 7.30723 10.211 7.79368 9.85234 8.15234C9.49368 8.511 9.00723 8.7125 8.5 8.7125C7.99277 8.7125 7.50632 8.511 7.14766 8.15234C6.789 7.79368 6.5875 7.30723 6.5875 6.8C6.5875 6.29277 6.789 5.80632 7.14766 5.44766C7.50632 5.08899 7.99277 4.8875 8.5 4.8875ZM8.5 10.2C9.775 10.2 12.325 10.8375 12.325 12.1125V12.75H4.675V12.1125C4.675 10.8375 7.225 10.2 8.5 10.2Z" fill="white"/>
</svg>
