<svg width="20" height="22" viewBox="0 0 20 22" fill="none" xmlns="http://www.w3.org/2000/svg">
<path d="M16.6667 15.5502C15.8222 15.5502 15.0667 15.8815 14.4889 16.4006L6.56667 11.8173C6.62222 11.5633 6.66667 11.3092 6.66667 11.0442C6.66667 10.7791 6.62222 10.5251 6.56667 10.2711L14.4 5.73193C15 6.28414 15.7889 6.62651 16.6667 6.62651C18.5111 6.62651 20 5.14659 20 3.31325C20 1.47992 18.5111 0 16.6667 0C14.8222 0 13.3333 1.47992 13.3333 3.31325C13.3333 3.57831 13.3778 3.83233 13.4333 4.08635L5.6 8.6255C5 8.07329 4.21111 7.73092 3.33333 7.73092C1.48889 7.73092 0 9.21084 0 11.0442C0 12.8775 1.48889 14.3574 3.33333 14.3574C4.21111 14.3574 5 14.0151 5.6 13.4629L13.5111 18.0572C13.4556 18.2892 13.4222 18.5321 13.4222 18.7751C13.4222 20.5532 14.8778 22 16.6667 22C18.4556 22 19.9111 20.5532 19.9111 18.7751C19.9111 16.997 18.4556 15.5502 16.6667 15.5502ZM16.6667 2.20884C17.2778 2.20884 17.7778 2.70582 17.7778 3.31325C17.7778 3.92068 17.2778 4.41767 16.6667 4.41767C16.0556 4.41767 15.5556 3.92068 15.5556 3.31325C15.5556 2.70582 16.0556 2.20884 16.6667 2.20884ZM3.33333 12.1486C2.72222 12.1486 2.22222 11.6516 2.22222 11.0442C2.22222 10.4367 2.72222 9.93976 3.33333 9.93976C3.94444 9.93976 4.44444 10.4367 4.44444 11.0442C4.44444 11.6516 3.94444 12.1486 3.33333 12.1486ZM16.6667 19.9016C16.0556 19.9016 15.5556 19.4046 15.5556 18.7972C15.5556 18.1898 16.0556 17.6928 16.6667 17.6928C17.2778 17.6928 17.7778 18.1898 17.7778 18.7972C17.7778 19.4046 17.2778 19.9016 16.6667 19.9016Z" fill="white"/>
</svg>
