<svg width="28" height="29" viewBox="0 0 28 29" fill="none" xmlns="http://www.w3.org/2000/svg">
<path d="M14 0.181641L16.69 5.0204L21.569 2.40409L21.2159 7.92903L26.7348 8.36583L23.4508 12.8228L27.8575 16.174L22.6852 18.148L24.5805 23.3497L19.162 22.2139L17.9443 27.6145L14 23.7296L10.0557 27.6145L8.83796 22.2139L3.41951 23.3497L5.31483 18.148L0.1425 16.174L4.54918 12.8228L1.26515 8.36583L6.7841 7.92903L6.43103 2.40409L11.31 5.0204L14 0.181641Z" fill="#2E2E2E"/>
<path d="M14.7836 9.77832V16.8486H13.6996V10.8525H13.6606L11.9711 11.9561V10.9307L13.7289 9.77832H14.7836Z" fill="white"/>
</svg>
