<svg width="28" height="29" viewBox="0 0 28 29" fill="none" xmlns="http://www.w3.org/2000/svg">
<circle cx="14" cy="14.4424" r="9" fill="#2E2E2E"/>
<path d="M12.101 11.7861V17.4424H11.2338V12.6455H11.2026L9.851 13.5283V12.708L11.2573 11.7861H12.101ZM15.5073 17.5205C14.1987 17.5205 13.4291 16.4658 13.4291 14.6143C13.4291 12.7744 14.2065 11.708 15.5073 11.708C16.8041 11.708 17.5815 12.7744 17.5854 14.6143C17.5815 16.4658 16.8158 17.5205 15.5073 17.5205ZM14.2885 14.6143C14.2846 16.0244 14.7416 16.7783 15.5073 16.7783C16.269 16.7783 16.726 16.0244 16.726 14.6143C16.726 13.208 16.2651 12.4385 15.5073 12.4346C14.7455 12.4385 14.2885 13.208 14.2885 14.6143Z" fill="white"/>
</svg>
