<svg width="28" height="29" viewBox="0 0 28 29" fill="none" xmlns="http://www.w3.org/2000/svg">
<path d="M14 0.543945L16.69 5.38271L21.569 2.7664L21.2159 8.29134L26.7348 8.72814L23.4508 13.1851L27.8575 16.5364L22.6852 18.5103L24.5805 23.712L19.162 22.5762L17.9443 27.9768L14 24.0919L10.0557 27.9768L8.83796 22.5762L3.41951 23.712L5.31483 18.5103L0.1425 16.5364L4.54918 13.1851L1.26515 8.72814L6.7841 8.29134L6.43103 2.7664L11.31 5.38271L14 0.543945Z" fill="#2E2E2E"/>
<path d="M11.3657 17.2109V16.4297L13.8168 13.959C14.5883 13.1484 14.9789 12.6992 14.9789 12.084C14.9789 11.3906 14.4125 10.9414 13.6703 10.9414C12.8891 10.9414 12.3813 11.4395 12.3813 12.1914H11.3657C11.3559 10.9023 12.3422 10.043 13.6899 10.043C15.0571 10.043 15.9946 10.9023 16.0043 12.0547C15.9946 12.8457 15.6235 13.4707 14.2953 14.7793L12.8598 16.2344V16.293H16.1215V17.2109H11.3657Z" fill="white"/>
</svg>
