<svg width="28" height="29" viewBox="0 0 28 29" fill="none" xmlns="http://www.w3.org/2000/svg">
<path d="M14 0.90625L16.69 5.74501L21.569 3.1287L21.2159 8.65364L26.7348 9.09044L23.4508 13.5474L27.8575 16.8987L22.6852 18.8726L24.5805 24.0743L19.162 22.9385L17.9443 28.3392L14 24.4543L10.0557 28.3392L8.83796 22.9385L3.41951 24.0743L5.31483 18.8726L0.1425 16.8987L4.54918 13.5474L1.26515 9.09044L6.7841 8.65364L6.43103 3.1287L11.31 5.74501L14 0.90625Z" fill="#2E2E2E"/>
<path d="M13.7289 17.6709C12.2641 17.6709 11.2192 16.8799 11.1801 15.7275H12.2739C12.3129 16.3525 12.9282 16.7432 13.7192 16.7432C14.5688 16.7432 15.1938 16.2744 15.1938 15.5908C15.1938 14.8975 14.6078 14.3896 13.602 14.3896H12.9965V13.5107H13.602C14.4028 13.5107 14.9692 13.0615 14.9692 12.3877C14.9692 11.7432 14.4907 11.3037 13.7387 11.3037C13.0258 11.3037 12.4008 11.6943 12.3715 12.3389H11.3364C11.3657 11.1865 12.4301 10.4053 13.7485 10.4053C15.1352 10.4053 16.0141 11.2842 16.0043 12.3291C16.0141 13.1299 15.516 13.7158 14.7543 13.9014V13.9502C15.7211 14.0869 16.2778 14.7314 16.2778 15.6299C16.2778 16.8115 15.1938 17.6709 13.7289 17.6709Z" fill="white"/>
</svg>
