<svg width="28" height="29" viewBox="0 0 28 29" fill="none" xmlns="http://www.w3.org/2000/svg">
<circle cx="14" cy="14.6309" r="9" fill="#2E2E2E"/>
<path d="M13.7104 17.709C12.6401 17.709 11.8354 17.0566 11.7963 16.1543H12.6323C12.6791 16.6348 13.1401 16.9863 13.7104 16.9902C14.3979 16.9863 14.8901 16.4902 14.8901 15.8184C14.8901 15.1309 14.3823 14.6309 13.6713 14.623C13.2182 14.623 12.8705 14.7754 12.6791 15.123H11.8666L12.2338 11.9746H15.4369V12.709H12.9448L12.7573 14.2949H12.8119C13.0463 14.0684 13.4448 13.916 13.8744 13.9121C14.9408 13.916 15.726 14.7051 15.726 15.7949C15.726 16.9082 14.8901 17.709 13.7104 17.709Z" fill="white"/>
</svg>
