<svg width="28" height="28" viewBox="0 0 28 28" fill="none" xmlns="http://www.w3.org/2000/svg">
<circle cx="14" cy="13.9932" r="9" fill="#2E2E2E"/>
<path d="M13.769 17.0713C12.7221 17.0635 11.6283 16.4424 11.6283 14.3525C11.6323 12.3838 12.4838 11.2588 13.8393 11.2588C14.8823 11.2588 15.6049 11.9072 15.7377 12.8057H14.8862C14.7729 12.3447 14.4096 12.0127 13.8393 12.0088C12.9643 12.0127 12.4565 12.7705 12.4565 14.0479H12.519C12.8276 13.5674 13.3588 13.2861 13.9721 13.2822C14.9799 13.2861 15.7924 14.0596 15.7924 15.1416C15.7924 16.2393 14.9838 17.0791 13.769 17.0713ZM12.558 15.165C12.5619 15.7939 13.0658 16.3486 13.7612 16.3525C14.4448 16.3486 14.9565 15.8174 14.9565 15.1572C14.9565 14.5088 14.4643 13.9814 13.7846 13.9854C13.0932 13.9814 12.5658 14.5361 12.558 15.165Z" fill="white"/>
</svg>
