<svg width="28" height="29" viewBox="0 0 28 29" fill="none" xmlns="http://www.w3.org/2000/svg">
<circle cx="14" cy="14.7178" r="9" fill="#2E2E2E"/>
<path d="M13.7182 17.7959C12.4877 17.7959 11.6323 17.1318 11.6401 16.21C11.6323 15.4834 12.1518 14.8896 12.8198 14.7881V14.7568C12.2377 14.624 11.851 14.1084 11.851 13.4912C11.851 12.6201 12.6362 11.9834 13.7182 11.9834C14.7846 11.9834 15.5737 12.6201 15.5776 13.4912C15.5737 14.1084 15.1791 14.624 14.6088 14.7568V14.7881C15.269 14.8896 15.7924 15.4834 15.7963 16.21C15.7924 17.1318 14.9291 17.7959 13.7182 17.7959ZM12.5151 16.1475C12.5033 16.7021 12.9721 17.085 13.7182 17.085C14.4526 17.085 14.9213 16.7021 14.9213 16.1475C14.9213 15.5654 14.4135 15.1396 13.7182 15.1396C13.0151 15.1396 12.5033 15.5654 12.5151 16.1475ZM12.6869 13.5693C12.6908 14.0967 13.1127 14.4639 13.7182 14.46C14.308 14.4639 14.7377 14.1006 14.7338 13.5693C14.7377 13.042 14.3237 12.6826 13.7182 12.6865C13.0971 12.6826 12.6908 13.042 12.6869 13.5693Z" fill="white"/>
</svg>
