<svg width="28" height="29" viewBox="0 0 28 29" fill="none" xmlns="http://www.w3.org/2000/svg">
<circle cx="14" cy="14.0801" r="9" fill="#2E2E2E"/>
<path d="M13.6674 11.3457C14.7065 11.3535 15.7963 11.9785 15.8002 14.0488C15.8002 16.0332 14.9448 17.1582 13.5893 17.1582C12.5463 17.1582 11.8198 16.5137 11.683 15.5957H12.5346C12.6518 16.0723 13.019 16.4043 13.5893 16.4082C14.4604 16.4043 14.9721 15.6465 14.9799 14.3535H14.9096C14.6049 14.8301 14.0737 15.1191 13.4643 15.1191C12.4487 15.1191 11.6362 14.3418 11.6362 13.2598C11.6362 12.1816 12.4369 11.3379 13.6674 11.3457ZM12.4721 13.2441C12.476 13.9004 12.9643 14.4199 13.6518 14.416C14.3354 14.4199 14.8627 13.8613 14.8627 13.2363C14.8627 12.623 14.3588 12.0645 13.6674 12.0645C12.9838 12.0645 12.4682 12.5957 12.4721 13.2441Z" fill="white"/>
</svg>
