<svg width="61" height="87" viewBox="0 0 61 87" fill="none" xmlns="http://www.w3.org/2000/svg">
<ellipse cx="49.806" cy="78.0053" rx="11.1941" ry="4.5503" fill="white"/>
<ellipse cx="14.763" cy="82.3927" rx="13.7899" ry="3.73775" fill="white"/>
<ellipse cx="26.2651" cy="22.0488" rx="22.0112" ry="22.0488" fill="white"/>
<ellipse cx="26.2651" cy="22.0487" rx="10.3144" ry="10.332" fill="#2E2E2E"/>
<path fill-rule="evenodd" clip-rule="evenodd" d="M19.2979 6.63016C19.3636 6.97755 19.1357 7.3125 18.7889 7.37829C13.9275 8.30049 11.7425 12.5785 11.2685 14.6033C11.188 14.9475 10.8441 15.1612 10.5004 15.0805C10.1568 14.9998 9.94351 14.6553 10.0241 14.311C10.5602 12.0204 12.9988 7.17355 18.5511 6.12027C18.8979 6.05449 19.2322 6.28277 19.2979 6.63016Z" fill="#2E2E2E"/>
<path fill-rule="evenodd" clip-rule="evenodd" d="M19.1561 9.90607C19.2108 10.2554 18.9724 10.5829 18.6237 10.6377C16.2397 11.012 15.0706 13.1315 14.7955 14.1598C14.7041 14.5013 14.3536 14.7039 14.0127 14.6124C13.6718 14.5208 13.4695 14.1698 13.5608 13.8283C13.9014 12.5556 15.3329 9.85835 18.4258 9.37274C18.7745 9.31799 19.1015 9.55677 19.1561 9.90607Z" fill="#2E2E2E"/>
<path d="M24.5324 26.0561C26.1503 26.4903 27.7483 25.9374 28.9863 24.9226C30.2263 23.9062 31.1962 22.3684 31.6771 20.5705C32.158 18.7726 32.0857 16.9549 31.5192 15.4537C30.9536 13.9548 29.8456 12.6756 28.2277 12.2413C26.6099 11.8071 25.0118 12.36 23.7738 13.3748C22.5338 14.3911 21.5639 15.929 21.083 17.7269C20.6021 19.5248 20.6744 21.3424 21.2409 22.8437C21.8065 24.3426 22.9145 25.6218 24.5324 26.0561Z" fill="white" stroke="#2E2E2E" stroke-width="2.5"/>
<path d="M32.3566 28.156C33.9745 28.5902 35.5726 28.0373 36.8106 27.0225C38.0505 26.0062 39.0204 24.4683 39.5013 22.6704C39.9822 20.8725 39.9099 19.0549 39.3434 17.5536C38.7778 16.0547 37.6698 14.7755 36.0519 14.3412C34.4341 13.907 32.836 14.4599 31.598 15.4747C30.358 16.4911 29.3881 18.029 28.9072 19.8268C28.4263 21.6247 28.4986 23.4424 29.0651 24.9436C29.6307 26.4425 30.7387 27.7217 32.3566 28.156Z" fill="white" stroke="#2E2E2E" stroke-width="2.5"/>
<ellipse cx="1.74905" cy="2.30478" rx="1.74905" ry="2.30478" transform="matrix(0.965815 0.259231 -0.258408 0.966036 23.2656 15.8307)" fill="#2E2E2E"/>
<ellipse cx="1.74905" cy="2.30478" rx="1.74905" ry="2.30478" transform="matrix(0.965815 0.259231 -0.258408 0.966036 31.0889 17.9308)" fill="#2E2E2E"/>
<path d="M16.8349 63.7044C12.9218 59.1029 15.2045 43.3738 16.8349 36.2728L20.1313 38.8402C17.6834 51.8413 18.4946 56.8789 19.1435 58.9916" stroke="white" stroke-width="2.6" stroke-linecap="round"/>
<path d="M42.9114 59.0736C37.6582 56.099 34.4067 40.5419 33.5022 33.312L37.4786 34.5886C39.6391 47.6406 42.1289 52.0924 43.4629 53.8531" stroke="white" stroke-width="2.6" stroke-linecap="round"/>
<path d="M7.34283 79.5908C2.28986 78.7529 2.53261 75.0779 2.97762 73.6597C5.57791 76.0338 13.765 79.6008 28.1751 72.3599C28.3261 73.3306 28.2731 74.2458 27.9076 75.0123C26.1871 78.62 13.659 80.6382 7.34283 79.5908Z" fill="#2E2E2E"/>
<path d="M17.781 64.0155C15.5175 63.6557 11.3411 63.3894 12.7442 65.203C14.498 67.4699 20.3787 67.1988 22.6669 65.7779C24.4974 64.6411 24.0427 63.2768 23.5866 62.7367C23.1699 62.2912 21.9196 61.947 20.2514 64.1346M13.7112 66.4141C13.0496 67.0379 11.7414 68.4868 11.8015 69.293M17.7685 71.9878C14.5966 69.5455 7.69053 65.9572 2.97762 73.6597M2.97762 73.6597C2.53261 75.0779 2.28986 78.7529 7.34283 79.5908C13.659 80.6382 26.1871 78.62 27.9076 75.0123C28.2731 74.2458 28.3261 73.3306 28.1751 72.3599M2.97762 73.6597C5.57791 76.0338 13.765 79.6008 28.1751 72.3599M24.5306 64.9967C25.7785 66.5654 27.7573 69.6754 28.1751 72.3599" stroke="white" stroke-width="2.6" stroke-linecap="round"/>
<path d="M44.1774 77.6489C39.5673 79.8843 37.6493 76.7421 37.1961 75.3266C40.6873 75.7632 49.4291 73.9461 57.03 59.7047C57.7124 60.4103 58.1961 61.1885 58.3389 62.0258C59.0112 65.9669 49.9399 74.8547 44.1774 77.6489Z" fill="#2E2E2E"/>
<path d="M43.7343 58.8947C41.6781 59.9088 38.1134 62.1045 40.3038 62.7752C43.042 63.6135 47.6895 59.9939 48.7402 57.511C49.5808 55.5247 48.4238 54.673 47.7401 54.4954C47.1432 54.3723 45.9237 54.8136 45.8209 57.5645M41.7912 63.2057C41.61 64.0975 41.3758 66.037 41.8892 66.6608M48.3151 65.4141C44.3177 65.2519 36.6102 66.3115 37.1961 75.3266M37.1961 75.3266C37.6493 76.7421 39.5673 79.8843 44.1774 77.6489C49.9399 74.8547 59.0112 65.9669 58.3389 62.0258C58.1961 61.1885 57.7124 60.4103 57.03 59.7047M37.1961 75.3266C40.6873 75.7632 49.4291 73.9461 57.03 59.7047M49.8128 55.796C51.7355 56.3563 55.1428 57.7532 57.03 59.7047" stroke="white" stroke-width="2.6" stroke-linecap="round"/>
<path d="M19.3057 26.3266C20.3872 28.1142 23.6535 31.0394 28.0663 28.4392" stroke="white" stroke-width="2.6" stroke-linecap="round"/>
<path d="M28.4326 26.6519C28.1235 27.2377 27.8604 28.6302 29.2815 29.5138" stroke="white" stroke-width="2.6" stroke-linecap="round"/>
</svg>
